<?xml version="1.0" encoding="utf-8"?>
<!-- Generator: Adobe Illustrator 21.0.2, SVG Export Plug-In . SVG Version: 6.00 Build 0)  -->
<svg version="1.1" id="Layer_1" xmlns="http://www.w3.org/2000/svg" xmlns:xlink="http://www.w3.org/1999/xlink" x="0px" y="0px"
	 viewBox="0 0 32 32" style="enable-background:new 0 0 32 32;" xml:space="preserve">
<style type="text/css">
	.st0{clip-path:url(#SVGID_2_);fill:#180087;}
	.st1{clip-path:url(#SVGID_2_);fill:#FFFFFF;}
	.st2{clip-path:url(#SVGID_2_);fill:#EA0020;}
</style>
<g id="AUSTRALIA_2_">
	<g>
		<g>
			<defs>
				<rect id="SVGID_1_" y="6.7" width="32" height="18.7"/>
			</defs>
			<clipPath id="SVGID_2_">
				<use xlink:href="#SVGID_1_"  style="overflow:visible;"/>
			</clipPath>
			<rect y="6.7" class="st0" width="32" height="18.7"/>
			<polygon class="st1" points="8.4,18.2 8.9,19.7 10.4,19.1 9.5,20.4 10.9,21.3 9.3,21.4 9.5,23 8.4,21.8 7.3,23 7.5,21.4 6,21.3 
				7.3,20.4 6.4,19.1 7.9,19.7 			"/>
			<polygon class="st1" points="25.3,20.9 25.5,21.6 26.2,21.4 25.8,22 26.4,22.4 25.7,22.4 25.8,23.2 25.3,22.6 24.7,23.2 
				24.8,22.4 24.1,22.4 24.7,22 24.3,21.4 25,21.6 			"/>
			<polygon class="st1" points="21,14.2 21.3,14.9 22,14.7 21.6,15.3 22.2,15.7 21.5,15.8 21.6,16.5 21,16 20.5,16.5 20.6,15.8 
				19.9,15.7 20.5,15.3 20.1,14.7 20.8,14.9 			"/>
			<polygon class="st1" points="25.3,9.7 25.5,10.4 26.2,10.1 25.8,10.7 26.4,11.1 25.7,11.2 25.8,11.9 25.3,11.4 24.7,11.9 
				24.8,11.2 24.1,11.1 24.7,10.7 24.3,10.1 25,10.4 			"/>
			<polygon class="st1" points="29,13.1 29.2,13.8 29.9,13.5 29.5,14.2 30.2,14.6 29.4,14.6 29.5,15.4 29,14.8 28.5,15.4 28.6,14.6 
				27.8,14.6 28.5,14.2 28.1,13.5 28.8,13.8 			"/>
			<polygon class="st1" points="26.9,16.5 27.1,16.9 27.6,17 27.2,17.3 27.4,17.8 26.9,17.5 26.5,17.8 26.6,17.3 26.3,17 26.8,16.9 
							"/>
			<polygon class="st1" points="7,6.7 7,9.5 0,9.5 0,12.3 7,12.3 7,15.1 9.8,15.1 9.8,12.3 16.8,12.3 16.8,9.5 9.8,9.5 9.8,6.7 			
				"/>
			<polygon class="st1" points="0,6.7 0,7.7 15,15.1 16.8,15.1 16.8,14.2 1.9,6.7 			"/>
			<polygon class="st1" points="15,6.7 0,14.2 0,15.1 1.9,15.1 16.8,7.7 16.8,6.7 			"/>
			<polygon class="st2" points="7.6,6.7 7.6,10.1 0,10.1 0,11.8 7.6,11.8 7.6,15.1 9.3,15.1 9.3,11.8 16.8,11.8 16.8,10.1 9.3,10.1 
				9.3,6.7 			"/>
			<path class="st2" d="M0,6.7v0.6l4.4,2.2h1.3L0,6.7z M15.6,6.7L10,9.5h1.3l5.6-2.8H15.6z"/>
			<path class="st2" d="M5.6,12.3L0,15.1h1.3l5.6-2.8H5.6z M11.2,12.3l5.6,2.8v-0.6l-4.4-2.2H11.2z"/>
		</g>
	</g>
</g>
</svg>
