<?xml version="1.0" encoding="utf-8"?>
<!-- Generator: Adobe Illustrator 21.0.0, SVG Export Plug-In . SVG Version: 6.00 Build 0)  -->
<svg version="1.1" id="Layer_1" xmlns="http://www.w3.org/2000/svg" xmlns:xlink="http://www.w3.org/1999/xlink" x="0px" y="0px"
	 viewBox="0 0 32 32" style="enable-background:new 0 0 32 32;" xml:space="preserve">
<style type="text/css">
	.st0{clip-path:url(#SVGID_2_);fill:#EA0020;}
	.st1{clip-path:url(#SVGID_4_);fill:#EA0020;}
	.st2{clip-path:url(#SVGID_6_);fill:#FFFFFF;}
	.st3{clip-path:url(#SVGID_8_);}
	.st4{clip-path:url(#SVGID_10_);fill:#EA0020;}
	.st5{fill:#DDDDDD;}
</style>
<g>
	<g>
		<defs>
			<rect id="SVGID_1_" y="7.5" width="32" height="18.7"/>
		</defs>
		<clipPath id="SVGID_2_">
			<use xlink:href="#SVGID_1_"  style="overflow:visible;"/>
		</clipPath>
		<rect y="7.5" class="st0" width="7.5" height="18.7"/>
	</g>
</g>
<g>
	<g>
		<defs>
			<rect id="SVGID_3_" y="7.5" width="32" height="18.7"/>
		</defs>
		<clipPath id="SVGID_4_">
			<use xlink:href="#SVGID_3_"  style="overflow:visible;"/>
		</clipPath>
		<rect x="24.5" y="7.5" class="st1" width="7.5" height="18.7"/>
	</g>
</g>
<g>
	<g>
		<defs>
			<rect id="SVGID_5_" y="7.5" width="32" height="18.7"/>
		</defs>
		<clipPath id="SVGID_6_">
			<use xlink:href="#SVGID_5_"  style="overflow:visible;"/>
		</clipPath>
		<rect x="7.5" y="7.5" class="st2" width="16.9" height="18.7"/>
	</g>
</g>
<g id="CANADA_2_">
	<defs>
		<rect id="SVGID_7_" y="7.5" width="32" height="18.7"/>
	</defs>
	<clipPath id="SVGID_8_">
		<use xlink:href="#SVGID_7_"  style="overflow:visible;"/>
	</clipPath>
	<g class="st3">
		<g>
			<g>
				<defs>
					<rect id="SVGID_9_" y="7.5" width="32" height="18.7"/>
				</defs>
				<clipPath id="SVGID_10_">
					<use xlink:href="#SVGID_9_"  style="overflow:visible;"/>
				</clipPath>
				<path class="st4" d="M16,9.9l-1.1,2.2c-0.1,0.2-0.4,0.2-0.6,0.1l-0.8-0.4l0.6,3.3c0.1,0.6-0.3,0.6-0.5,0.3l-1.4-1.6L12,14.6
					c0,0.1-0.1,0.2-0.3,0.2l-1.8-0.4l0.5,1.8c0.1,0.4,0.2,0.6-0.1,0.7l-0.6,0.3l3.1,2.6c0.1,0.1,0.2,0.3,0.1,0.4L12.6,21
					c1-0.1,2-0.2,3-0.4c0.1,0,0.2,0.1,0.2,0.2l-0.1,3.3h0.5l-0.1-3.3c0-0.1,0.1-0.2,0.2-0.2c1.1,0.1,2,0.2,3,0.4L19,20.1
					c0-0.2,0-0.3,0.1-0.4l3.1-2.6l-0.6-0.3c-0.3-0.1-0.2-0.3-0.1-0.7l0.5-1.8l-1.8,0.4c-0.2,0-0.3-0.1-0.3-0.2l-0.2-0.8l-1.4,1.6
					c-0.2,0.3-0.6,0.3-0.5-0.3l0.6-3.3l-0.8,0.4c-0.2,0.1-0.5,0.2-0.6-0.1L16,9.9z"/>
			</g>
		</g>
	</g>
</g>
<rect x="7.5" y="26.1" class="st5" width="17" height="0.1"/>
<rect x="7.5" y="7.5" class="st5" width="17" height="0.1"/>
</svg>
