<?xml version="1.0" encoding="utf-8"?>
<!-- Generator: Adobe Illustrator 19.1.0, SVG Export Plug-In . SVG Version: 6.00 Build 0)  -->
<svg version="1.1" id="Layer_1" xmlns="http://www.w3.org/2000/svg" xmlns:xlink="http://www.w3.org/1999/xlink" x="0px" y="0px"
	 viewBox="-1 -6 32 32" style="enable-background:new -1 -6 32 32;" xml:space="preserve">
<style type="text/css">
	.st0{clip-path:url(#SVGID_2_);fill:#CB1D23;}
	.st1{clip-path:url(#SVGID_2_);fill:#F7DE29;}
</style>
<g id="CHINA_3_">
	<g>
		<g>
			<defs>
				<rect id="SVGID_1_" x="-1" y="0.7" width="32" height="18.7"/>
			</defs>
			<clipPath id="SVGID_2_">
				<use xlink:href="#SVGID_1_"  style="overflow:visible;"/>
			</clipPath>
			<rect x="-1" y="0.7" class="st0" width="32" height="18.7"/>
			<polygon class="st1" points="2.1,7.4 2.7,5.6 1.1,4.4 3.1,4.4 3.7,2.5 4.3,4.4 6.2,4.4 4.7,5.6 5.2,7.4 3.7,6.3 			"/>
			<polygon class="st1" points="7.5,8.4 8.2,8.7 8.7,8.2 8.6,8.9 9.3,9.1 8.6,9.3 8.5,10 8.1,9.4 7.5,9.6 7.9,9 			"/>
			<polygon class="st1" points="11.1,4.9 10.4,4.7 10.1,5.4 10,4.7 9.3,4.5 9.9,4.2 9.8,3.5 10.3,4 10.9,3.7 10.6,4.3 			"/>
			<polygon class="st1" points="9.6,8 9.8,7.4 9.3,6.9 10,6.9 10.2,6.3 10.4,6.9 11.1,6.9 10.6,7.4 10.8,8 10.2,7.6 			"/>
			<polygon class="st1" points="7.6,1.9 8.2,2.2 8.7,1.6 8.6,2.3 9.3,2.6 8.6,2.8 8.5,3.5 8.1,2.9 7.4,3 7.9,2.5 			"/>
		</g>
	</g>
</g>
</svg>
