<?xml version="1.0" encoding="utf-8"?>
<!-- Generator: Adobe Illustrator 21.0.2, SVG Export Plug-In . SVG Version: 6.00 Build 0)  -->
<svg version="1.1" id="Layer_1" xmlns="http://www.w3.org/2000/svg" xmlns:xlink="http://www.w3.org/1999/xlink" x="0px" y="0px"
	 viewBox="0 0 32 32" style="enable-background:new 0 0 32 32;" xml:space="preserve">
<style type="text/css">
	.st0{fill:none;enable-background:new    ;}
	.st1{fill:#FFFFFF;}
	.st2{fill:#FF3C2F;}
	.st3{fill:none;}
</style>
<path class="st0" d="z"/>
<rect x="2" y="6.7" class="st1" width="27.9" height="18.7"/>
<rect x="0" y="6.7" class="st2" width="32" height="18.7"/>
<polyline class="st3" points="2,25.3 30,25.3 30,6.7 2,6.7 2,25.3 "/>
<path class="st1" d="M15.7,15.9c-1-0.6-1.9-1.7-1.5-3.3c0.3-1.3,1.3-2.5,3.3-2.3c-0.3,0.2-0.5,0.3-0.6,0.7c-0.2,0.7,0.6,1,0.3,2
	c-0.4,1-1.3,0.8-1.6,1.7c-0.1,0.5,0,0.8,0.2,1.1l0,0c-1-0.9-0.9-2-0.4-2.8l-0.1,0C14.9,13.8,14.7,14.9,15.7,15.9L15.7,15.9
	 M16.2,12.1l-0.4,0.2L15.6,12l0,0.4l-0.4,0.2l0.4,0.1l0,0.4l0.2-0.3l0.4,0.1L16,12.5L16.2,12.1z M12.3,14.7l0,0.4L12,15.3l0.4,0.1
	l0,0.4l0.2-0.3l0.4,0.1l-0.3-0.3l0.2-0.3L12.6,15L12.3,14.7z M15.8,16.3c-0.8,0.8-2.2,1.3-3.6,0.5c-1.1-0.6-2-2-1.2-3.9
	c0.1,0.3,0.1,0.6,0.5,0.8c0.6,0.4,1.1-0.3,1.9,0.3c0.9,0.7,0.3,1.5,1.2,2c0.4,0.3,0.8,0.2,1.1,0.1l0,0c-1.1,0.7-2.2,0.2-2.8-0.4
	l-0.1,0.1C13.5,16.5,14.6,17,15.8,16.3L15.8,16.3 M13.7,19.2l0.4,0.1l0,0.4l0.2-0.3l0.4,0.1l-0.3-0.3l0.2-0.3l-0.4,0.2L14,18.7
	l0,0.4L13.7,19.2z M16.2,16.4c0.5,1,0.6,2.5-0.6,3.5c-0.9,0.9-2.5,1.3-4.1,0.1c0.3,0,0.6,0.1,0.9-0.2c0.6-0.5,0-1.2,0.9-1.8
	c0.9-0.6,1.5,0.1,2.3-0.6c0.4-0.4,0.4-0.7,0.4-1l0,0c0.3,1.3-0.4,2.1-1.2,2.5l0,0.1C15.7,18.6,16.5,17.7,16.2,16.4L16.2,16.4
	 M18.3,19.2l0.2-0.3l0.4,0.1l-0.3-0.3l0.2-0.3l-0.4,0.2l-0.3-0.3l0.1,0.4l-0.4,0.2l0.4,0.1L18.3,19.2z M18.5,18
	c-0.1-0.9-0.8-1.9-2.1-2l0-0.1c1.1-0.2,2.5,0.2,3.2,1.6c0.6,1.1,0.5,2.7-1.1,3.9c0.1-0.3,0.2-0.5,0.1-0.9c-0.3-0.7-1.1-0.4-1.4-1.4
	c-0.4-1,0.6-1.4,0.1-2.3c-0.2-0.5-0.5-0.6-0.8-0.7l0,0C17.6,16.2,18.2,17.1,18.5,18L18.5,18z M19.9,14.9l-0.3-0.3l0.2-0.3l-0.4,0.2
	l-0.3-0.3l0,0.4l-0.4,0.2l0.4,0.1l0,0.4l0.2-0.3L19.9,14.9z M16.2,15.7c0.2-1.1,1-2.3,2.5-2.5c1.3-0.2,2.8,0.4,3.3,2.3
	c-0.2-0.2-0.4-0.4-0.9-0.4c-0.7,0-0.7,0.9-1.7,0.9c-1.1,0-1.2-1-2.2-0.9c-0.5,0.1-0.8,0.3-0.9,0.6l0,0c0.5-1.2,1.6-1.5,2.5-1.3
	l0-0.1C17.9,14.2,16.8,14.5,16.2,15.7L16.2,15.7"/>
</svg>
