<?xml version="1.0" encoding="utf-8"?>
<!-- Generator: Adobe Illustrator 21.0.2, SVG Export Plug-In . SVG Version: 6.00 Build 0)  -->
<svg version="1.1" id="Layer_2" xmlns="http://www.w3.org/2000/svg" xmlns:xlink="http://www.w3.org/1999/xlink" x="0px" y="0px"
	 viewBox="0 0 32 32" style="enable-background:new 0 0 32 32;" xml:space="preserve">
<style type="text/css">
	.st0{fill:#FFFFFF;}
	.st1{fill:#A5A5A5;}
	.st2{fill:#B50037;}
	.st3{fill:#1E3476;}
	.st4{fill:#CCCCCC;}
</style>
<g>
	<rect y="6.4" class="st0" width="32" height="19.2"/>
	<path class="st1" d="M32,25.6H0V6.4h32V25.6z M0,25.6h32V6.4H0V25.6z"/>
</g>
<g>
	<rect x="21" y="9.8" transform="matrix(0.8325 -0.554 0.554 0.8325 -2.4172 13.6834)" width="0.8" height="2.1"/>
	<rect x="22.5" y="11.8" transform="matrix(0.8324 -0.5542 0.5542 0.8324 -3.283 14.8343)" width="0.8" height="2.1"/>
	<rect x="22.9" y="8.4" transform="matrix(0.8325 -0.554 0.554 0.8325 -1.3309 14.4815)" width="0.8" height="2.1"/>
	<rect x="24.4" y="10.6" transform="matrix(0.8324 -0.5542 0.5542 0.8324 -2.3039 15.7081)" width="0.8" height="2.1"/>
	<rect x="22.7" y="8.9" transform="matrix(0.8322 -0.5545 0.5545 0.8322 -2.3512 14.6892)" width="0.8" height="4.7"/>
</g>
<g>
	<rect x="23.7" y="19.9" transform="matrix(0.5542 -0.8324 0.8324 0.5542 -5.8616 29.6017)" width="2.1" height="0.8"/>
	<rect x="22.7" y="19.3" transform="matrix(0.5542 -0.8324 0.8324 0.5542 -5.8041 28.5456)" width="2.1" height="0.8"/>
	<rect x="21.6" y="18.6" transform="matrix(0.5542 -0.8324 0.8324 0.5542 -5.7123 27.3384)" width="2.1" height="0.8"/>
	<rect x="20.2" y="20.7" transform="matrix(0.5542 -0.8324 0.8324 0.5542 -8.1182 27.1078)" width="2.1" height="0.8"/>
	<rect x="21.3" y="21.4" transform="matrix(0.5542 -0.8324 0.8324 0.5542 -8.1724 28.3703)" width="2.1" height="0.8"/>
	<rect x="22.1" y="22.1" transform="matrix(0.5542 -0.8324 0.8324 0.5542 -8.3754 29.2695)" width="2.1" height="0.8"/>
</g>
<g>
	<path class="st2" d="M18.5,12.1c-2.1-1.4-5-0.8-6.5,1.3c-0.7,1.1-0.4,2.5,0.6,3.2c1.1,0.7,2.5,0.4,3.2-0.6s2.2-1.4,3.2-0.6
		c1.1,0.7,1.4,2.2,0.6,3.2C21.2,16.4,20.6,13.5,18.5,12.1"/>
	<path class="st3" d="M12.1,13.4c-0.7,1.1-0.4,2.5,0.6,3.2c1.1,0.7,2.5,0.4,3.2-0.6s2.2-1.4,3.2-0.6c1.1,0.7,1.4,2.2,0.6,3.2
		c-1.4,2.1-4.3,2.7-6.5,1.3C11.3,18.5,10.7,15.6,12.1,13.4"/>
</g>
<g>
	<rect x="7.5" y="11.5" transform="matrix(0.5545 -0.8322 0.8322 0.5545 -5.5484 13.5341)" width="4.7" height="0.8"/>
	<rect x="6.4" y="10.9" transform="matrix(0.5545 -0.8322 0.8322 0.5545 -5.4969 12.3102)" width="4.7" height="0.8"/>
	<rect x="5.5" y="10.4" transform="matrix(0.5545 -0.8322 0.8322 0.5545 -5.4646 11.323)" width="4.7" height="0.8"/>
</g>
<rect x="9.4" y="17.8" transform="matrix(0.8319 -0.5549 0.5549 0.8319 -9.5203 8.8195)" width="0.8" height="4.7"/>
<rect x="7.4" y="18.9" transform="matrix(0.8319 -0.5549 0.5549 0.8319 -10.4893 7.8866)" width="0.8" height="4.7"/>
<rect x="9.1" y="20.8" transform="matrix(0.8324 -0.5542 0.5542 0.8324 -10.5221 8.9449)" width="0.8" height="2.1"/>
<rect x="7.7" y="18.6" transform="matrix(0.8324 -0.5542 0.5542 0.8324 -9.536 7.7685)" width="0.8" height="2.1"/>
<path class="st4" d="M32,25.4H0V6.3h32V25.4z M0.1,25.3h31.8V6.4H0.1V25.3z"/>
</svg>
