<?xml version="1.0" encoding="utf-8"?>
<!-- Generator: Adobe Illustrator 19.1.0, SVG Export Plug-In . SVG Version: 6.00 Build 0)  -->
<svg version="1.1" id="Layer_1" xmlns="http://www.w3.org/2000/svg" xmlns:xlink="http://www.w3.org/1999/xlink" x="0px" y="0px"
	 viewBox="0 0 32 32" style="enable-background:new 0 0 32 32;" xml:space="preserve">
<style type="text/css">
	.st0{clip-path:url(#SVGID_2_);fill:#D80031;}
	.st1{clip-path:url(#SVGID_2_);fill:#FFFFFF;}
	.st2{clip-path:url(#SVGID_2_);fill:#2530A9;}
	.st3{clip-path:url(#SVGID_2_);}
	.st4{clip-path:url(#SVGID_4_);fill:#F5D028;}
</style>
<g id="MALAYSIA_3_">
	<g>
		<g>
			<defs>
				<rect id="SVGID_1_" y="6.7" width="32" height="18.7"/>
			</defs>
			<clipPath id="SVGID_2_">
				<use xlink:href="#SVGID_1_"  style="overflow:visible;"/>
			</clipPath>
			<rect y="6.7" class="st0" width="32" height="1.3"/>
			<rect y="8" class="st1" width="32" height="1.3"/>
			<rect y="9.3" class="st0" width="32" height="1.3"/>
			<rect y="10.7" class="st1" width="32" height="1.3"/>
			<rect y="12" class="st0" width="32" height="1.3"/>
			<rect y="13.3" class="st1" width="32" height="1.3"/>
			<rect y="14.7" class="st0" width="32" height="1.3"/>
			<rect y="16" class="st1" width="32" height="1.3"/>
			<rect y="17.3" class="st0" width="32" height="1.3"/>
			<rect y="18.7" class="st1" width="32" height="1.3"/>
			<rect y="20" class="st0" width="32" height="1.3"/>
			<rect y="21.3" class="st1" width="32" height="1.3"/>
			<rect y="22.7" class="st0" width="32" height="1.3"/>
			<rect y="24" class="st1" width="32" height="1.3"/>
			<rect y="6.7" class="st2" width="18.7" height="10.7"/>
			<g class="st3">
				<defs>
					<rect id="SVGID_3_" y="6.7" width="32" height="18.7"/>
				</defs>
				<clipPath id="SVGID_4_">
					<use xlink:href="#SVGID_3_"  style="overflow:visible;"/>
				</clipPath>
				<path class="st4" d="M5,12c0-1.9,1.6-3.5,3.5-3.5c0.7,0,1.3,0.2,1.8,0.5C9.6,8.4,8.7,8,7.7,8c-2.2,0-4,1.8-4,4c0,2.2,1.8,4,4,4
					c1,0,2-0.4,2.7-1c-0.5,0.3-1.2,0.5-1.8,0.5C6.6,15.5,5,13.9,5,12"/>
				<polygon class="st4" points="13,12 14.9,11.3 12.9,11.4 14.3,9.9 12.5,11 13.1,9 12,10.7 11.7,8.7 11.5,10.1 11.4,10.5 
					11.4,10.7 10.2,9 10.8,11 9.1,9.9 10.5,11.4 8.4,11.3 10.3,12 8.4,12.7 10.5,12.6 9.1,14.1 10.8,13 10.2,15 11.4,13.3 
					11.4,13.5 11.5,13.9 11.7,15.3 12,13.3 13.1,15 12.5,13 14.3,14.1 12.9,12.6 14.9,12.7 				"/>
			</g>
		</g>
	</g>
</g>
</svg>
