<?xml version="1.0" encoding="utf-8"?>
<!-- Generator: Adobe Illustrator 19.1.0, SVG Export Plug-In . SVG Version: 6.00 Build 0)  -->
<svg version="1.1" id="Layer_1" xmlns="http://www.w3.org/2000/svg" xmlns:xlink="http://www.w3.org/1999/xlink" x="0px" y="0px"
	 viewBox="-1 -6 32 32" style="enable-background:new -1 -6 32 32;" xml:space="preserve">
<style type="text/css">
	.st0{clip-path:url(#SVGID_2_);fill:#2534A4;}
	.st1{clip-path:url(#SVGID_2_);fill:#BC0030;}
	.st2{clip-path:url(#SVGID_2_);fill:#FFFFFF;}
	.st3{clip-path:url(#SVGID_2_);fill:#F3D02F;}
	.st4{clip-path:url(#SVGID_2_);}
	.st5{clip-path:url(#SVGID_4_);fill:#F3D02F;}
</style>
<g id="PHILIPPINES_3_">
	<g>
		<g>
			<defs>
				<rect id="SVGID_1_" x="-1" y="0.7" width="32" height="18.7"/>
			</defs>
			<clipPath id="SVGID_2_">
				<use xlink:href="#SVGID_1_"  style="overflow:visible;"/>
			</clipPath>
			<rect x="-1" y="0.7" class="st0" width="32" height="9.3"/>
			<rect x="-1" y="10" class="st1" width="32" height="9.3"/>
			<polygon class="st2" points="-1,0.7 -1,19.3 15.2,10 			"/>
			<polygon class="st3" points="1.2,17.5 0.5,17.1 -0.1,17.7 0,16.9 -0.7,16.5 0.1,16.4 0.3,15.5 0.6,16.3 1.5,16.2 0.8,16.8 			"/>
			<path class="st3" d="M3.4,8.3l-0.6-1l-0.4,0l0.8,1.2L3.4,8.3z M2.9,8.8l-1.3-1l0-0.6l0.5,0l1.1,1.3L2.9,8.8z M2.7,9L1.7,8.4
				l0-0.3l1.2,0.8L2.7,9z"/>
			<path class="st3" d="M4.9,8.1l0.3-1.2L5,6.7L4.7,8.1L4.9,8.1z M4.2,8.1L4,6.5l0.4-0.4l0.4,0.4L4.6,8.1L4.2,8.1z M3.9,8.1L3.6,6.9
				l0.2-0.3l0.3,1.4L3.9,8.1z"/>
			<path class="st3" d="M6.1,9l1.1-0.6l0-0.3L6,8.9L6.1,9z M5.6,8.6l1-1.3l0.6,0l0,0.5l-1.3,1L5.6,8.6z M5.4,8.4l0.6-1l0.4,0
				L5.5,8.5L5.4,8.4z"/>
			<path class="st3" d="M6.3,10.5l1.2,0.3l0.3-0.2l-1.4-0.3L6.3,10.5z M6.3,9.8l1.6-0.2L8.3,10L8,10.4l-1.7-0.2L6.3,9.8z M6.3,9.5
				l1.2-0.3l0.3,0.2L6.3,9.7L6.3,9.5z"/>
			<path class="st3" d="M5.4,11.7l0.6,1l0.3,0l-0.8-1.2L5.4,11.7z M5.9,11.2l1.3,1l0,0.6l-0.5,0l-1.1-1.3L5.9,11.2z M6.1,11l1.1,0.6
				l0,0.3L6,11.1L6.1,11z"/>
			<path class="st3" d="M3.9,11.9l-0.3,1.2l0.2,0.3l0.2-1.4L3.9,11.9z M4.6,11.9l0.2,1.6l-0.4,0.4L4,13.6l0.2-1.7L4.6,11.9z
				 M4.9,11.9l0.3,1.2L5,13.3l-0.3-1.4L4.9,11.9z"/>
			<path class="st3" d="M2.7,11l-1,0.6l0,0.4l1.2-0.8L2.7,11z M3.2,11.5l-1,1.3l-0.6,0l0-0.5l1.3-1L3.2,11.5z M3.4,11.7l-0.6,1.1
				l-0.4,0l0.8-1.2L3.4,11.7z"/>
			<path class="st3" d="M2.5,9.5L1.3,9.2L1,9.4l1.4,0.2L2.5,9.5z M2.5,10.2l-1.6,0.2L0.5,10l0.4-0.4l1.7,0.2L2.5,10.2z M2.5,10.5
				l-1.2,0.3l-0.3-0.2l1.4-0.3L2.5,10.5z"/>
			<g class="st4">
				<defs>
					<rect id="SVGID_3_" x="-1" y="0.7" width="32" height="18.7"/>
				</defs>
				<clipPath id="SVGID_4_">
					<use xlink:href="#SVGID_3_"  style="overflow:visible;"/>
				</clipPath>
				<path class="st5" d="M4.4,8c1.1,0,2,0.9,2,2c0,1.1-0.9,2-2,2c-1.1,0-2-0.9-2-2C2.4,8.9,3.3,8,4.4,8"/>
				<polygon class="st5" points="11.2,10.7 11.7,10 11.2,9.3 12,9.6 12.4,8.9 12.4,9.7 13.2,10 12.4,10.3 12.4,11.1 12,10.4 				"/>
				<polygon class="st5" points="1.2,2.3 0.5,2.7 -0.1,2.1 0,2.9 -0.7,3.3 0.1,3.4 0.3,4.2 0.6,3.5 1.5,3.6 0.8,3 				"/>
			</g>
		</g>
	</g>
</g>
</svg>
