<?xml version="1.0" encoding="utf-8"?>
<!-- Generator: Adobe Illustrator 21.0.2, SVG Export Plug-In . SVG Version: 6.00 Build 0)  -->
<svg version="1.1" id="Layer_1" xmlns="http://www.w3.org/2000/svg" xmlns:xlink="http://www.w3.org/1999/xlink" x="0px" y="0px"
	 viewBox="0 0 32 32" style="enable-background:new 0 0 32 32;" xml:space="preserve">
<style type="text/css">
	.st0{fill:none;enable-background:new    ;}
	.st1{fill:#D91C42;}
	.st2{fill:#FFFFFF;}
	.st3{fill:none;stroke:#CCCCCC;stroke-width:0.1;stroke-miterlimit:10;}
</style>
<path class="st0" d="M0,0"/>
<rect y="6.7" class="st1" width="32" height="9.3"/>
<path class="st2" d="M9.6,11.3c0,1.9-1.6,3.5-3.5,3.5s-3.5-1.6-3.5-3.5s1.6-3.5,3.5-3.5S9.6,9.4,9.6,11.3"/>
<path class="st1" d="M10.7,11.3c0,1.8-1.5,3.3-3.3,3.3s-3.3-1.5-3.3-3.3C4.1,9.5,5.6,8,7.4,8S10.7,9.5,10.7,11.3"/>
<polygon class="st2" points="6.5,11.4 6.1,11.1 5.6,11.4 5.8,10.8 5.3,10.5 5.9,10.5 6.1,9.9 6.2,10.5 6.8,10.5 6.3,10.8 "/>
<polygon class="st2" points="10.3,11.4 9.8,11.1 9.3,11.4 9.5,10.8 9,10.5 9.6,10.5 9.8,9.9 10,10.5 10.6,10.5 10.1,10.8 "/>
<polygon class="st2" points="8.4,10 7.9,9.7 7.4,10 7.6,9.4 7.2,9.1 7.7,9.1 7.9,8.5 8.1,9.1 8.7,9.1 8.2,9.4 "/>
<polygon class="st2" points="7.2,13.6 6.8,13.3 6.3,13.6 6.5,13.1 6,12.7 6.6,12.7 6.8,12.1 6.9,12.7 7.5,12.7 7,13.1 "/>
<polygon class="st2" points="9.6,13.6 9.1,13.3 8.6,13.6 8.8,13.1 8.3,12.7 8.9,12.7 9.1,12.1 9.3,12.7 9.9,12.7 9.4,13.1 "/>
<rect x="0" y="6.7" class="st3" width="31.9" height="18.9"/>
</svg>
