<?xml version="1.0" encoding="utf-8"?>
<!-- Generator: Adobe Illustrator 16.0.0, SVG Export Plug-In . SVG Version: 6.00 Build 0)  -->
<!DOCTYPE svg PUBLIC "-//W3C//DTD SVG 1.1//EN" "http://www.w3.org/Graphics/SVG/1.1/DTD/svg11.dtd">
<svg version="1.1" id="Layer_1" xmlns="http://www.w3.org/2000/svg" xmlns:xlink="http://www.w3.org/1999/xlink" x="0px" y="0px"
	 width="32px" height="32px" viewBox="0 0 32 32" enable-background="new 0 0 32 32" xml:space="preserve">
<g id="USA_4_">
	<g>
		<g>
			<defs>
				<rect id="SVGID_1_" y="6.7" width="32" height="18.6"/>
			</defs>
			<clipPath id="SVGID_2_">
				<use xlink:href="#SVGID_1_"  overflow="visible"/>
			</clipPath>
			<rect y="23.868" clip-path="url(#SVGID_2_)" fill="#CB001C" width="32" height="1.432"/>
			<rect y="22.438" clip-path="url(#SVGID_2_)" fill="#FFFFFF" width="32" height="1.43"/>
			<rect y="21.011" clip-path="url(#SVGID_2_)" fill="#CB001C" width="32" height="1.428"/>
			<rect y="19.577" clip-path="url(#SVGID_2_)" fill="#FFFFFF" width="32" height="1.434"/>
			<rect y="18.147" clip-path="url(#SVGID_2_)" fill="#CB001C" width="32" height="1.43"/>
			<rect y="16.716" clip-path="url(#SVGID_2_)" fill="#FFFFFF" width="32" height="1.432"/>
			<rect y="15.284" clip-path="url(#SVGID_2_)" fill="#CB001C" width="32" height="1.432"/>
			<rect y="13.854" clip-path="url(#SVGID_2_)" fill="#FFFFFF" width="32" height="1.429"/>
			<rect y="12.424" clip-path="url(#SVGID_2_)" fill="#CB001C" width="32" height="1.43"/>
			<rect y="10.993" clip-path="url(#SVGID_2_)" fill="#FFFFFF" width="32" height="1.431"/>
			<rect y="9.561" clip-path="url(#SVGID_2_)" fill="#CB001C" width="32" height="1.432"/>
			<rect y="8.133" clip-path="url(#SVGID_2_)" fill="#FFFFFF" width="32" height="1.428"/>
			<rect y="6.7" clip-path="url(#SVGID_2_)" fill="#CB001C" width="32" height="1.433"/>
			<rect y="6.7" clip-path="url(#SVGID_2_)" fill="#2A3560" width="14.046" height="10.016"/>
			<polygon clip-path="url(#SVGID_2_)" fill="#FFFFFF" points="1.268,7.803 1.389,8.185 1.773,8.185 1.461,8.418 1.58,8.796 
				1.268,8.563 0.957,8.796 1.078,8.418 0.768,8.185 1.148,8.185 			"/>
			<polygon clip-path="url(#SVGID_2_)" fill="#FFFFFF" points="1.268,9.476 1.389,9.854 1.773,9.854 1.461,10.088 1.58,10.467 
				1.268,10.233 0.957,10.467 1.078,10.088 0.768,9.854 1.148,9.854 			"/>
			<polygon clip-path="url(#SVGID_2_)" fill="#FFFFFF" points="1.268,11.15 1.389,11.526 1.773,11.526 1.461,11.76 1.58,12.14 
				1.268,11.905 0.957,12.14 1.078,11.76 0.768,11.526 1.148,11.526 			"/>
			<polygon clip-path="url(#SVGID_2_)" fill="#FFFFFF" points="1.268,12.82 1.389,13.198 1.773,13.198 1.461,13.432 1.58,13.81 
				1.268,13.577 0.957,13.81 1.078,13.432 0.768,13.198 1.148,13.198 			"/>
			<polygon clip-path="url(#SVGID_2_)" fill="#FFFFFF" points="1.268,14.491 1.389,14.872 1.773,14.872 1.461,15.104 1.58,15.482 
				1.268,15.248 0.957,15.482 1.078,15.104 0.768,14.872 1.148,14.872 			"/>
			<polygon clip-path="url(#SVGID_2_)" fill="#FFFFFF" points="2.393,8.686 2.506,9.064 2.894,9.064 2.584,9.298 2.701,9.676 
				2.393,9.443 2.083,9.676 2.199,9.298 1.889,9.064 2.274,9.064 			"/>
			<polygon clip-path="url(#SVGID_2_)" fill="#FFFFFF" points="2.393,10.357 2.506,10.734 2.894,10.734 2.584,10.969 2.701,11.346 
				2.393,11.116 2.083,11.346 2.199,10.969 1.889,10.734 2.274,10.734 			"/>
			<polygon clip-path="url(#SVGID_2_)" fill="#FFFFFF" points="2.393,12.029 2.506,12.408 2.894,12.408 2.584,12.642 2.701,13.019 
				2.393,12.786 2.083,13.019 2.199,12.642 1.889,12.408 2.274,12.408 			"/>
			<polygon clip-path="url(#SVGID_2_)" fill="#FFFFFF" points="2.393,13.703 2.506,14.079 2.894,14.079 2.584,14.313 2.701,14.69 
				2.393,14.457 2.083,14.69 2.199,14.313 1.889,14.079 2.274,14.079 			"/>
			<polygon clip-path="url(#SVGID_2_)" fill="#FFFFFF" points="3.527,7.803 3.646,8.185 4.031,8.185 3.721,8.418 3.84,8.796 
				3.527,8.563 3.219,8.796 3.338,8.418 3.025,8.185 3.408,8.185 			"/>
			<polygon clip-path="url(#SVGID_2_)" fill="#FFFFFF" points="3.527,9.476 3.646,9.854 4.031,9.854 3.721,10.088 3.84,10.467 
				3.527,10.233 3.219,10.467 3.338,10.088 3.025,9.854 3.408,9.854 			"/>
			<polygon clip-path="url(#SVGID_2_)" fill="#FFFFFF" points="3.527,11.15 3.646,11.526 4.031,11.526 3.721,11.76 3.84,12.14 
				3.527,11.905 3.219,12.14 3.338,11.76 3.025,11.526 3.408,11.526 			"/>
			<polygon clip-path="url(#SVGID_2_)" fill="#FFFFFF" points="3.527,12.82 3.646,13.198 4.031,13.198 3.721,13.432 3.84,13.81 
				3.527,13.577 3.219,13.81 3.338,13.432 3.025,13.198 3.408,13.198 			"/>
			<polygon clip-path="url(#SVGID_2_)" fill="#FFFFFF" points="3.527,14.491 3.646,14.872 4.031,14.872 3.721,15.104 3.84,15.482 
				3.527,15.248 3.219,15.482 3.338,15.104 3.025,14.872 3.408,14.872 			"/>
			<polygon clip-path="url(#SVGID_2_)" fill="#FFFFFF" points="4.651,8.686 4.77,9.064 5.155,9.064 4.844,9.298 4.963,9.676 
				4.651,9.443 4.342,9.676 4.461,9.298 4.148,9.064 4.533,9.064 			"/>
			<polygon clip-path="url(#SVGID_2_)" fill="#FFFFFF" points="4.651,10.357 4.77,10.734 5.155,10.734 4.844,10.969 4.963,11.346 
				4.651,11.116 4.342,11.346 4.461,10.969 4.148,10.734 4.533,10.734 			"/>
			<polygon clip-path="url(#SVGID_2_)" fill="#FFFFFF" points="4.651,12.029 4.77,12.408 5.155,12.408 4.844,12.642 4.963,13.019 
				4.651,12.786 4.342,13.019 4.461,12.642 4.148,12.408 4.533,12.408 			"/>
			<polygon clip-path="url(#SVGID_2_)" fill="#FFFFFF" points="4.651,13.703 4.77,14.079 5.155,14.079 4.844,14.313 4.963,14.69 
				4.651,14.457 4.342,14.69 4.461,14.313 4.148,14.079 4.533,14.079 			"/>
			<polygon clip-path="url(#SVGID_2_)" fill="#FFFFFF" points="5.789,7.803 5.91,8.185 6.291,8.185 5.979,8.418 6.104,8.796 
				5.789,8.563 5.479,8.796 5.596,8.418 5.288,8.185 5.672,8.185 			"/>
			<polygon clip-path="url(#SVGID_2_)" fill="#FFFFFF" points="5.789,9.476 5.91,9.854 6.291,9.854 5.979,10.088 6.104,10.467 
				5.789,10.233 5.479,10.467 5.596,10.088 5.288,9.854 5.672,9.854 			"/>
			<polygon clip-path="url(#SVGID_2_)" fill="#FFFFFF" points="5.789,11.15 5.91,11.526 6.291,11.526 5.979,11.76 6.104,12.14 
				5.789,11.905 5.479,12.14 5.596,11.76 5.288,11.526 5.672,11.526 			"/>
			<polygon clip-path="url(#SVGID_2_)" fill="#FFFFFF" points="5.789,12.82 5.91,13.198 6.291,13.198 5.979,13.432 6.104,13.81 
				5.789,13.577 5.479,13.81 5.596,13.432 5.288,13.198 5.672,13.198 			"/>
			<polygon clip-path="url(#SVGID_2_)" fill="#FFFFFF" points="5.789,14.491 5.91,14.872 6.291,14.872 5.979,15.104 6.104,15.482 
				5.789,15.248 5.479,15.482 5.596,15.104 5.288,14.872 5.672,14.872 			"/>
			<polygon clip-path="url(#SVGID_2_)" fill="#FFFFFF" points="6.912,8.686 7.031,9.064 7.415,9.064 7.105,9.298 7.222,9.676 
				6.912,9.443 6.604,9.676 6.72,9.298 6.41,9.064 6.793,9.064 			"/>
			<polygon clip-path="url(#SVGID_2_)" fill="#FFFFFF" points="6.912,10.357 7.031,10.734 7.415,10.734 7.105,10.969 7.222,11.346 
				6.912,11.116 6.604,11.346 6.72,10.969 6.41,10.734 6.793,10.734 			"/>
			<polygon clip-path="url(#SVGID_2_)" fill="#FFFFFF" points="6.912,12.029 7.031,12.408 7.415,12.408 7.105,12.642 7.222,13.019 
				6.912,12.786 6.604,13.019 6.72,12.642 6.41,12.408 6.793,12.408 			"/>
			<polygon clip-path="url(#SVGID_2_)" fill="#FFFFFF" points="6.912,13.703 7.031,14.079 7.415,14.079 7.105,14.313 7.222,14.69 
				6.912,14.457 6.604,14.69 6.72,14.313 6.41,14.079 6.793,14.079 			"/>
			<polygon clip-path="url(#SVGID_2_)" fill="#FFFFFF" points="8.049,7.803 8.168,8.185 8.551,8.185 8.241,8.418 8.361,8.796 
				8.049,8.563 7.739,8.796 7.856,8.418 7.548,8.185 7.93,8.185 			"/>
			<polygon clip-path="url(#SVGID_2_)" fill="#FFFFFF" points="8.049,9.476 8.168,9.854 8.551,9.854 8.241,10.088 8.361,10.467 
				8.049,10.233 7.739,10.467 7.856,10.088 7.548,9.854 7.93,9.854 			"/>
			<polygon clip-path="url(#SVGID_2_)" fill="#FFFFFF" points="8.049,11.15 8.168,11.526 8.551,11.526 8.241,11.76 8.361,12.14 
				8.049,11.905 7.739,12.14 7.856,11.76 7.548,11.526 7.93,11.526 			"/>
			<polygon clip-path="url(#SVGID_2_)" fill="#FFFFFF" points="8.049,12.82 8.168,13.198 8.551,13.198 8.241,13.432 8.361,13.81 
				8.049,13.577 7.739,13.81 7.856,13.432 7.548,13.198 7.93,13.198 			"/>
			<polygon clip-path="url(#SVGID_2_)" fill="#FFFFFF" points="8.049,14.491 8.168,14.872 8.551,14.872 8.241,15.104 8.361,15.482 
				8.049,15.248 7.739,15.482 7.856,15.104 7.548,14.872 7.93,14.872 			"/>
			<polygon clip-path="url(#SVGID_2_)" fill="#FFFFFF" points="9.172,8.686 9.291,9.064 9.677,9.064 9.365,9.298 9.484,9.676 
				9.172,9.443 8.862,9.676 8.982,9.298 8.671,9.064 9.057,9.064 			"/>
			<polygon clip-path="url(#SVGID_2_)" fill="#FFFFFF" points="9.172,10.357 9.291,10.734 9.677,10.734 9.365,10.969 9.484,11.346 
				9.172,11.116 8.862,11.346 8.982,10.969 8.671,10.734 9.057,10.734 			"/>
			<polygon clip-path="url(#SVGID_2_)" fill="#FFFFFF" points="9.172,12.029 9.291,12.408 9.677,12.408 9.365,12.642 9.484,13.019 
				9.172,12.786 8.862,13.019 8.982,12.642 8.671,12.408 9.057,12.408 			"/>
			<polygon clip-path="url(#SVGID_2_)" fill="#FFFFFF" points="9.172,13.703 9.291,14.079 9.677,14.079 9.365,14.313 9.484,14.69 
				9.172,14.457 8.862,14.69 8.982,14.313 8.671,14.079 9.057,14.079 			"/>
			<polygon clip-path="url(#SVGID_2_)" fill="#FFFFFF" points="10.312,7.803 10.43,8.185 10.814,8.185 10.504,8.418 10.62,8.796 
				10.312,8.563 10.002,8.796 10.119,8.418 9.809,8.185 10.191,8.185 			"/>
			<polygon clip-path="url(#SVGID_2_)" fill="#FFFFFF" points="10.312,9.476 10.43,9.854 10.814,9.854 10.504,10.088 10.62,10.467 
				10.312,10.233 10.002,10.467 10.119,10.088 9.809,9.854 10.191,9.854 			"/>
			<polygon clip-path="url(#SVGID_2_)" fill="#FFFFFF" points="10.312,11.15 10.43,11.526 10.814,11.526 10.504,11.76 10.62,12.14 
				10.312,11.905 10.002,12.14 10.119,11.76 9.809,11.526 10.191,11.526 			"/>
			<polygon clip-path="url(#SVGID_2_)" fill="#FFFFFF" points="10.312,12.82 10.43,13.198 10.814,13.198 10.504,13.432 10.62,13.81 
				10.312,13.577 10.002,13.81 10.119,13.432 9.809,13.198 10.191,13.198 			"/>
			<polygon clip-path="url(#SVGID_2_)" fill="#FFFFFF" points="10.312,14.491 10.43,14.872 10.814,14.872 10.504,15.104 
				10.62,15.482 10.312,15.248 10.002,15.482 10.119,15.104 9.809,14.872 10.191,14.872 			"/>
			<polygon clip-path="url(#SVGID_2_)" fill="#FFFFFF" points="11.434,8.686 11.551,9.064 11.935,9.064 11.627,9.298 11.742,9.676 
				11.434,9.443 11.121,9.676 11.24,9.298 10.934,9.064 11.314,9.064 			"/>
			<polygon clip-path="url(#SVGID_2_)" fill="#FFFFFF" points="11.434,10.357 11.551,10.734 11.935,10.734 11.627,10.969 
				11.742,11.346 11.434,11.116 11.121,11.346 11.24,10.969 10.934,10.734 11.314,10.734 			"/>
			<polygon clip-path="url(#SVGID_2_)" fill="#FFFFFF" points="11.434,12.029 11.551,12.408 11.935,12.408 11.627,12.642 
				11.742,13.019 11.434,12.786 11.121,13.019 11.24,12.642 10.934,12.408 11.314,12.408 			"/>
			<polygon clip-path="url(#SVGID_2_)" fill="#FFFFFF" points="11.434,13.703 11.551,14.079 11.935,14.079 11.627,14.313 
				11.742,14.69 11.434,14.457 11.121,14.69 11.24,14.313 10.934,14.079 11.314,14.079 			"/>
			<polygon clip-path="url(#SVGID_2_)" fill="#FFFFFF" points="12.569,7.803 12.691,8.185 13.072,8.185 12.763,8.418 12.883,8.796 
				12.569,8.563 12.261,8.796 12.377,8.418 12.068,8.185 12.451,8.185 			"/>
			<polygon clip-path="url(#SVGID_2_)" fill="#FFFFFF" points="12.569,9.476 12.691,9.854 13.072,9.854 12.763,10.088 
				12.883,10.467 12.569,10.233 12.261,10.467 12.377,10.088 12.068,9.854 12.451,9.854 			"/>
			<polygon clip-path="url(#SVGID_2_)" fill="#FFFFFF" points="12.569,11.15 12.691,11.526 13.072,11.526 12.763,11.76 
				12.883,12.14 12.569,11.905 12.261,12.14 12.377,11.76 12.068,11.526 12.451,11.526 			"/>
			<polygon clip-path="url(#SVGID_2_)" fill="#FFFFFF" points="12.569,12.82 12.691,13.198 13.072,13.198 12.763,13.432 
				12.883,13.81 12.569,13.577 12.261,13.81 12.377,13.432 12.068,13.198 12.451,13.198 			"/>
			<polygon clip-path="url(#SVGID_2_)" fill="#FFFFFF" points="12.569,14.491 12.691,14.872 13.072,14.872 12.763,15.104 
				12.883,15.482 12.569,15.248 12.261,15.482 12.377,15.104 12.068,14.872 12.451,14.872 			"/>
		</g>
	</g>
</g>
</svg>
