<svg xmlns="http://www.w3.org/2000/svg" width="128" height="28" viewBox="0 0 128 28">
    <g fill="none" fill-rule="nonzero">
        <path fill="#4A90E2" d="M36.3 1.93V9h-1.71V1.93h1.71zm5.02 1.43c.64 0 1.148.213 1.525.64.377.427.565 1.013.565 1.76V9H41.7V5.96c0-.373-.098-.665-.295-.875-.197-.21-.458-.315-.785-.315-.347 0-.622.11-.825.33-.203.22-.305.533-.305.94V9h-1.71V3.42h1.71v1.02a1.84 1.84 0 0 1 .715-.79c.317-.193.688-.29 1.115-.29zM48 7.53V9h-.77c-.653 0-1.162-.162-1.525-.485-.363-.323-.545-.858-.545-1.605V4.86h-.75V3.42h.75V2.05h1.71v1.37h1.12v1.44h-1.12v2.08c0 .22.045.373.135.46.09.087.242.13.455.13H48zm6.56-1.47c0 .14-.017.293-.05.46h-3.87c.02.42.127.722.32.905.193.183.44.275.74.275.253 0 .463-.063.63-.19a.887.887 0 0 0 .33-.49h1.81a2.365 2.365 0 0 1-.48 1.055c-.247.31-.56.553-.94.73-.38.177-.803.265-1.27.265-.547 0-1.032-.115-1.455-.345a2.465 2.465 0 0 1-.995-.995c-.24-.433-.36-.94-.36-1.52 0-.587.118-1.095.355-1.525.237-.43.568-.76.995-.99.427-.23.913-.345 1.46-.345.553 0 1.04.113 1.46.34.42.227.745.545.975.955.23.41.345.882.345 1.415zm-1.73-.26c.007-.367-.092-.642-.295-.825a1.086 1.086 0 0 0-.755-.275 1.12 1.12 0 0 0-.78.28c-.207.187-.323.46-.35.82h2.18zm4.63-1.33c.213-.34.488-.61.825-.81.337-.2.702-.3 1.095-.3v1.83h-.49c-.453 0-.805.097-1.055.29-.25.193-.375.52-.375.98V9h-1.71V3.42h1.71v1.05zm6.48-1.11c.64 0 1.148.213 1.525.64.377.427.565 1.013.565 1.76V9h-1.71V5.96c0-.373-.098-.665-.295-.875-.197-.21-.458-.315-.785-.315-.347 0-.622.11-.825.33-.203.22-.305.533-.305.94V9H60.4V3.42h1.71v1.02a1.84 1.84 0 0 1 .715-.79c.317-.193.688-.29 1.115-.29zm5.64-.01c.427 0 .793.097 1.1.29.307.193.533.457.68.79V3.42h1.7V9h-1.7V7.99a1.743 1.743 0 0 1-.68.79c-.307.193-.673.29-1.1.29a2.26 2.26 0 0 1-1.235-.345 2.36 2.36 0 0 1-.86-.995c-.21-.433-.315-.94-.315-1.52 0-.587.105-1.095.315-1.525.21-.43.497-.76.86-.99a2.26 2.26 0 0 1 1.235-.345zm.55 1.5c-.367 0-.662.12-.885.36-.223.24-.335.573-.335 1 0 .427.112.76.335 1 .223.24.518.36.885.36.36 0 .655-.123.885-.37.23-.247.345-.577.345-.99 0-.42-.115-.752-.345-.995a1.164 1.164 0 0 0-.885-.365zm7.57 2.68V9h-.77c-.653 0-1.162-.162-1.525-.485-.363-.323-.545-.858-.545-1.605V4.86h-.75V3.42h.75V2.05h1.71v1.37h1.12v1.44h-1.12v2.08c0 .22.045.373.135.46.09.087.242.13.455.13h.54zm1.1-5.68c0-.26.093-.475.28-.645.187-.17.433-.255.74-.255s.553.085.74.255c.187.17.28.385.28.645a.824.824 0 0 1-.28.635c-.187.17-.433.255-.74.255s-.553-.085-.74-.255a.824.824 0 0 1-.28-.635zm1.87 1.57V9h-1.71V3.42h1.71zm4.09-.07c.553 0 1.048.115 1.485.345.437.23.78.562 1.03.995.25.433.375.94.375 1.52 0 .58-.125 1.087-.375 1.52a2.53 2.53 0 0 1-1.03.995c-.437.23-.932.345-1.485.345s-1.05-.115-1.49-.345a2.521 2.521 0 0 1-1.035-.995c-.25-.433-.375-.94-.375-1.52 0-.58.125-1.087.375-1.52.25-.433.595-.765 1.035-.995.44-.23.937-.345 1.49-.345zm0 1.48a1.09 1.09 0 0 0-.825.355c-.223.237-.335.578-.335 1.025 0 .447.112.787.335 1.02.223.233.498.35.825.35.327 0 .6-.117.82-.35.22-.233.33-.573.33-1.02 0-.447-.11-.788-.33-1.025a1.074 1.074 0 0 0-.82-.355zm7.62-1.47c.64 0 1.148.213 1.525.64.377.427.565 1.013.565 1.76V9h-1.71V5.96c0-.373-.098-.665-.295-.875-.197-.21-.458-.315-.785-.315-.347 0-.622.11-.825.33-.203.22-.305.533-.305.94V9h-1.71V3.42h1.71v1.02a1.84 1.84 0 0 1 .715-.79c.317-.193.688-.29 1.115-.29zm5.64-.01c.427 0 .793.097 1.1.29.307.193.533.457.68.79V3.42h1.7V9h-1.7V7.99a1.743 1.743 0 0 1-.68.79c-.307.193-.673.29-1.1.29a2.26 2.26 0 0 1-1.235-.345 2.36 2.36 0 0 1-.86-.995c-.21-.433-.315-.94-.315-1.52 0-.587.105-1.095.315-1.525.21-.43.497-.76.86-.99a2.26 2.26 0 0 1 1.235-.345zm.55 1.5c-.367 0-.662.12-.885.36-.223.24-.335.573-.335 1 0 .427.112.76.335 1 .223.24.518.36.885.36.36 0 .655-.123.885-.37.23-.247.345-.577.345-.99 0-.42-.115-.752-.345-.995a1.164 1.164 0 0 0-.885-.365zm6.12-3.25V9h-1.71V1.6h1.71z"/>
        <path fill="#07659C" d="M122.734 16.36c1.672 0 2.969.472 3.89 1.433.923.945 1.376 2.302 1.376 4.07v.838h-7.267c.078.656.36 1.174.875 1.525.516.35 1.204.533 2.063.533.516 0 1.063-.076 1.641-.213a9.989 9.989 0 0 0 1.782-.625v2.47c-.579.197-1.188.35-1.813.457-.625.106-1.282.152-1.954.152-1.89 0-3.36-.488-4.422-1.463-1.063-.976-1.594-2.317-1.594-4.04 0-1.57.484-2.82 1.469-3.75.984-.93 2.297-1.387 3.954-1.387zm-71.622-.03c1.688 0 2.923.41 3.72 1.234.781.838 1.172 2.119 1.172 3.872v5.274h-3.079l-.078-1.57c-.422.58-.922 1.006-1.516 1.28-.594.275-1.313.412-2.141.412-1.047 0-1.89-.29-2.5-.869-.625-.579-.938-1.356-.938-2.332 0-1.113.453-1.951 1.36-2.485.906-.533 2.297-.808 4.172-.808h1.391v-.137c0-.549-.219-.975-.64-1.265-.438-.29-1.063-.442-1.892-.442-.406 0-.875.076-1.39.213-.516.138-1.079.35-1.673.61l-.062-2.287a8.887 8.887 0 0 1 1.875-.533c.672-.122 1.407-.168 2.22-.168zM39.72 13.112c1.687 0 2.953.29 3.813.884.844.594 1.281 1.479 1.281 2.637 0 .793-.218 1.433-.672 1.967-.453.518-1.094.899-1.938 1.128.954.167 1.688.533 2.204 1.097.516.564.766 1.28.766 2.15 0 1.28-.47 2.225-1.407 2.835-.937.61-2.375.93-4.329.93H34V13.113h5.72zm24.754 3.247c1.266 0 2.235.38 2.89 1.143.657.747.985 1.86.985 3.323v5.9h-3.516v-5.183c0-.793-.14-1.388-.437-1.769-.282-.38-.735-.579-1.313-.579-.61 0-1.11.244-1.485.732s-.547 1.143-.547 1.951v4.848h-3.547V16.634h3.22v1.814a4.357 4.357 0 0 1 1.578-1.555c.64-.35 1.36-.533 2.172-.533zm43.976.274v10.092h-3.548V16.634h3.548zM73.413 12v8.75l2.766-4.116h3.891l-3.485 4.39 3.829 5.686H76.21l-2.797-5.259v5.26h-3.548V12h3.548zm43.07 4.345c.187 0 .515.03 1 .106.03.03.047.03.062.03l-.187 2.973a1.498 1.498 0 0 0-.485-.122 3.732 3.732 0 0 0-.625-.045c-.844 0-1.485.259-1.907.792-.437.534-.64 1.311-.64 2.333v4.298h-3.548V16.62h3.173v1.92c.36-.746.797-1.295 1.312-1.661.516-.366 1.126-.533 1.844-.533zm-63.808 5.792h-.61c-1.047 0-1.797.107-2.25.336-.453.213-.687.579-.687 1.051 0 .351.125.64.375.854.25.213.562.335.984.335.64 0 1.172-.213 1.579-.64.406-.427.609-.975.609-1.646v-.29zM39.298 21.01H37.64v3.201h1.47c.765 0 1.343-.137 1.734-.411.39-.275.594-.686.594-1.22 0-.518-.172-.914-.532-1.174-.359-.259-.89-.396-1.61-.396zm83.482-2.53c-.562 0-1.031.198-1.406.579-.375.381-.594.915-.672 1.6h4.172c-.078-.67-.296-1.204-.672-1.6-.375-.381-.843-.58-1.422-.58zm-83.842-2.942h-1.297v3.048h1.125c.782 0 1.376-.137 1.766-.38.391-.245.579-.656.579-1.19 0-.472-.188-.838-.547-1.097-.36-.244-.907-.381-1.626-.381zM108.45 12v2.805h-3.548V12h3.548zm-9.455 12.62c.063-.7.11-1.187.125-1.446.031-.26.063-.473.094-.64l1.625-9.452h3.485l-3.016 13.613h-4.75l-1.814-9.71a7.317 7.317 0 0 1-.109-.823c-.047-.397-.078-.87-.125-1.418-.047.625-.078 1.128-.11 1.509-.03.366-.062.61-.077.732l-1.688 9.74h-4.673l-3.047-13.612h3.72l1.577 9.375c.032.29.063.625.11.99.047.367.078.748.125 1.16.016-.382.047-.748.078-1.114.031-.35.078-.686.14-1.006l1.626-9.42h4.688l1.735 9.375c.062.259.11.579.156.945.047.365.094.761.125 1.203z"/>
        <path fill="#02649B" d="M13.5 1c4.857 0 9.109 2.56 11.483 6.393l.93-3.538 1.087.28-1.428 5.679-5.679-1.49.28-1.102 4.065 1.087C22.097 4.6 18.093 2.102 13.5 2.102c-6.843 0-12.398 5.54-12.398 12.382 0 6.844 5.555 12.399 12.398 12.399a12.38 12.38 0 0 0 10.691-6.114l.978.528A13.476 13.476 0 0 1 13.5 28C6.052 28 0 21.948 0 14.5S6.052 1 13.5 1zm.727 6.404v.865c1.317.06 2.555.492 3.715 1.298l-1.16 1.592c-.786-.59-1.592-.885-2.535-1.022v3.34h.079c1.395.276 2.338.728 2.987 1.298.649.511.944 1.317.944 2.398 0 1.003-.354 1.887-1.081 2.536-.728.648-1.671 1.002-2.91 1.08v1.298h-1.1V20.79c-1.592-.158-3.066-.806-4.364-1.966l1.298-1.533c1.002.885 2.024 1.396 3.046 1.533v-3.38c-1.317-.295-2.339-.728-2.909-1.239-.648-.51-.943-1.317-.943-2.32 0-1.002.354-1.886 1.08-2.535.728-.648 1.691-1.002 2.772-1.08v-.866h1.081zm.099 8.354v3.204c.49-.079.943-.216 1.297-.511.373-.295.51-.59.51-1.022 0-.452-.137-.728-.353-1.022-.295-.217-.727-.433-1.454-.65zm-1.16-5.582c-.57.078-.944.216-1.297.51-.295.296-.433.59-.433 1.023 0 .373.138.727.354.943.216.217.649.433 1.376.649z"/>
    </g>
</svg>
