<svg xmlns="http://www.w3.org/2000/svg" width="114" height="25" viewBox="0 0 114 25">
    <g fill="none" fill-rule="nonzero">
        <path fill="#F7931A" d="M23.233 15.256C21.658 21.838 15.258 25.842 8.94 24.2 2.622 22.56-1.223 15.894.353 9.313 1.928 2.733 8.327-1.273 14.645.367c6.319 1.642 10.163 8.308 8.588 14.889z"/>
        <path fill="#FFF" d="M17.659 10.251c.246-1.652-1.003-2.54-2.711-3.132l.554-2.238-1.353-.34-.54 2.18c-.355-.09-.72-.174-1.083-.258l.543-2.192-1.352-.34-.554 2.237c-.294-.068-.584-.134-.863-.205v-.006l-1.865-.47-.36 1.455s1.003.232.983.246c.548.139.647.503.63.793l-.63 2.55c.037.01.086.023.14.046l-.143-.036-.884 3.572c-.068.168-.237.419-.62.324.014.02-.983-.247-.983-.247l-.671 1.56 1.76.441c.326.084.648.17.964.25l-.56 2.265 1.35.339.555-2.24c.37.1.727.195 1.078.281l-.552 2.23 1.352.34.56-2.26c2.305.44 4.04.262 4.77-1.839.588-1.692-.03-2.668-1.243-3.304.885-.207 1.55-.792 1.728-2.002zm-3.09 4.365c-.418 1.692-3.246.777-4.163.548l.742-3c.917.232 3.857.688 3.42 2.452zm.418-4.39c-.381 1.54-2.735.758-3.499.566l.674-2.72c.763.192 3.223.55 2.825 2.155z"/>
        <path fill="#4D4D4D" d="M34.825 7.432c.941 0 1.755.179 2.44.53a4.968 4.968 0 0 1 1.708 1.43c.448.603.782 1.308.998 2.115.215.81.322 1.68.322 2.612 0 1.432-.248 2.784-.748 4.06-.5 1.277-1.18 2.384-2.043 3.329a9.617 9.617 0 0 1-3.058 2.237c-1.174.55-2.449.824-3.819.824-.177 0-.488-.005-.928-.015a12.84 12.84 0 0 1-1.511-.139 17.065 17.065 0 0 1-1.809-.375 8.749 8.749 0 0 1-1.808-.684L29.655.747 34.209 0l-1.82 8.024c.39-.186.782-.33 1.174-.436.39-.102.811-.156 1.262-.156zm-3.821 13.315a3.82 3.82 0 0 0 1.94-.529 5.188 5.188 0 0 0 1.574-1.416 7.288 7.288 0 0 0 1.043-2.007 7.187 7.187 0 0 0 .382-2.334c0-.995-.157-1.77-.47-2.332-.314-.559-.893-.84-1.735-.84-.275 0-.631.055-1.072.155a2.63 2.63 0 0 0-1.192.655l-1.938 8.52c.116.022.22.044.308.063.087.021.182.036.278.046.1.012.215.018.355.018h.527zM45.78 23.586h-4.504l3.803-16.194h4.535l-3.833 16.194zm2.193-18.168a2.768 2.768 0 0 1-1.705-.568c-.51-.377-.762-.958-.762-1.74 0-.43.086-.835.257-1.216.174-.38.402-.707.686-.986.285-.276.614-.496.988-.663A2.995 2.995 0 0 1 48.641 0c.628 0 1.195.19 1.703.569.505.38.76.962.76 1.74 0 .432-.086.837-.26 1.217a3.18 3.18 0 0 1-.684.986 3.28 3.28 0 0 1-.988.66 2.897 2.897 0 0 1-1.2.246zM53.47 3.698l4.625-.75-1.136 4.837h4.955l-.894 3.806h-4.925l-1.312 5.74c-.12.48-.188.926-.208 1.342-.021.417.03.776.149 1.077.118.302.332.535.641.7.308.167.75.252 1.327.252.477 0 .941-.048 1.39-.141a9.66 9.66 0 0 0 1.357-.39l.329 3.558c-.597.229-1.243.427-1.94.591-.697.169-1.523.249-2.477.249-1.372 0-2.436-.212-3.194-.636-.757-.428-1.292-1.012-1.612-1.75-.316-.737-.457-1.585-.418-2.542.04-.958.18-1.966.418-3.027l2.924-12.916zM61.914 17.814c0-1.366.219-2.654.657-3.86a9.523 9.523 0 0 1 1.886-3.169 8.832 8.832 0 0 1 2.977-2.14c1.164-.52 2.466-.783 3.901-.783.899 0 1.7.086 2.407.257.709.173 1.35.397 1.93.678l-1.526 3.5a14.29 14.29 0 0 0-1.241-.437c-.428-.132-.951-.197-1.57-.197-1.477 0-2.645.513-3.514 1.537-.866 1.024-1.303 2.403-1.303 4.132 0 1.025.22 1.854.66 2.488.438.634 1.247.95 2.421.95.58 0 1.14-.06 1.675-.18a8.208 8.208 0 0 0 1.437-.453l.33 3.587c-.56.22-1.177.417-1.855.59-.678.167-1.486.255-2.424.255-1.235 0-2.283-.183-3.14-.542-.856-.365-1.565-.85-2.122-1.463a5.534 5.534 0 0 1-1.211-2.157 8.965 8.965 0 0 1-.375-2.593zM81.757 24.569c-1.035 0-1.932-.162-2.694-.484a4.984 4.984 0 0 1-1.885-1.357c-.499-.581-.872-1.271-1.127-2.065-.254-.794-.379-1.673-.379-2.636 0-1.208.189-2.416.57-3.62a10.37 10.37 0 0 1 1.683-3.256 9.083 9.083 0 0 1 2.72-2.37c1.07-.611 2.3-.919 3.683-.919 1.015 0 1.908.163 2.68.484a5.01 5.01 0 0 1 1.902 1.357c.495.585.871 1.271 1.124 2.066.255.793.38 1.674.38 2.638 0 1.205-.185 2.413-.554 3.62a10.564 10.564 0 0 1-1.638 3.256 8.674 8.674 0 0 1-2.706 2.366c-1.08.612-2.335.92-3.759.92zm2.163-12.906c-.642 0-1.209.191-1.696.57a4.909 4.909 0 0 0-1.227 1.448 7.303 7.303 0 0 0-.748 1.917 8.484 8.484 0 0 0-.247 1.974c0 1.006.158 1.79.467 2.355.313.56.878.842 1.697.842.644 0 1.21-.19 1.698-.573a4.912 4.912 0 0 0 1.227-1.447c.332-.582.582-1.22.749-1.915a8.62 8.62 0 0 0 .247-1.975c0-1.004-.156-1.79-.47-2.353-.31-.56-.878-.843-1.697-.843zM94.92 23.586h-4.506l3.802-16.194h4.536L94.92 23.586zm2.187-18.168a2.76 2.76 0 0 1-1.702-.568c-.507-.377-.762-.958-.762-1.74 0-.43.087-.835.259-1.216.172-.38.4-.707.685-.986.283-.276.615-.496.989-.663A2.966 2.966 0 0 1 97.775 0c.629 0 1.198.19 1.704.569.507.38.762.962.762 1.74 0 .432-.09.837-.26 1.217-.171.38-.399.708-.683.986a3.305 3.305 0 0 1-.987.66 2.918 2.918 0 0 1-1.204.246zM101.927 7.998c.34-.103.718-.225 1.13-.359.412-.133.873-.257 1.389-.369a16.01 16.01 0 0 1 1.717-.28c.632-.075 1.353-.11 2.153-.11 2.355 0 3.976.706 4.871 2.113.896 1.408 1.05 3.333.47 5.775l-2.053 8.818h-4.492l1.989-8.632c.12-.54.216-1.06.286-1.57.072-.504.068-.949-.016-1.334a1.606 1.606 0 0 0-.555-.933c-.295-.237-.74-.356-1.343-.356-.582 0-1.173.064-1.779.188l-2.925 12.636h-4.493l3.651-15.587z"/>
    </g>
</svg>
