<svg xmlns="http://www.w3.org/2000/svg" width="158" height="42" viewBox="0 0 158 42">
    <g fill="none" fill-rule="nonzero">
        <path fill="#3C3C3B" d="M45.009 23.639a.5.5 0 0 1-.5.493h-9.652c.24 2.378 2.035 4.547 4.56 4.547 1.724 0 3.005-.657 3.969-2.03.14-.19.348-.31.615-.196a.464.464 0 0 1 .272.348c.026.158-.019.247-.063.335-.97 1.689-2.904 2.517-4.8 2.517-3.247 0-5.561-2.896-5.561-5.995 0-3.1 2.314-5.996 5.56-5.996 3.247-.006 5.594 2.884 5.6 5.977zm-1.034-.468c-.209-2.378-2.035-4.547-4.559-4.547s-4.318 2.169-4.56 4.547h9.12zm12.746-5.275a.49.49 0 0 1 .482.48.47.47 0 0 1-.482.482h-2.587v10.125c0 .24-.21.48-.482.48a.49.49 0 0 1-.482-.48V18.858h-2.486a.47.47 0 0 1-.482-.481c0-.24.21-.48.482-.48h2.486V14.19c0-.234.159-.449.387-.487.323-.05.577.17.577.475v3.718h2.587zm15.783 4.895v6.135a.49.49 0 0 1-.482.48.47.47 0 0 1-.482-.48v-6.135c0-2.068-1.173-4.136-3.487-4.136-2.968 0-4.249 2.587-4.078 5.237 0 .07.032.38.032.41v4.605c0 .234-.159.45-.387.487-.323.05-.577-.17-.577-.474V8.77c0-.24.21-.48.482-.48a.49.49 0 0 1 .482.48v11.403c.83-1.48 2.314-2.48 4.04-2.48 2.834 0 4.457 2.48 4.457 5.098zm17.305.848a.5.5 0 0 1-.501.493H79.65c.241 2.378 2.036 4.547 4.56 4.547 1.724 0 3.005-.657 3.97-2.03.139-.19.348-.31.614-.196a.464.464 0 0 1 .273.348.485.485 0 0 1-.063.335c-.97 1.689-2.905 2.517-4.8 2.517-3.247 0-5.562-2.896-5.562-5.995 0-3.1 2.315-5.996 5.561-5.996 3.253-.006 5.6 2.884 5.606 5.977zm-1.04-.468c-.21-2.378-2.036-4.547-4.56-4.547-2.523 0-4.318 2.169-4.559 4.547h9.119zm12.885-4.826c0 .31-.171.481-.45.519-2.835.411-4.11 2.72-4.11 5.407v4.604c0 .234-.158.45-.386.487-.323.051-.577-.17-.577-.474V18.396c0-.234.158-.45.387-.487.323-.05.577.17.577.474v2.138c.792-1.34 2.384-2.618 4.039-2.618.241-.007.52.17.52.442zm15.853 5.294a.5.5 0 0 1-.501.493h-9.651c.24 2.378 2.035 4.547 4.559 4.547 1.725 0 3.006-.657 3.97-2.03.139-.19.348-.31.614-.196a.464.464 0 0 1 .273.348.485.485 0 0 1-.063.335c-.97 1.689-2.904 2.517-4.8 2.517-3.247 0-5.562-2.896-5.562-5.995 0-3.1 2.315-5.996 5.562-5.996 3.246-.006 5.592 2.884 5.599 5.977zm-1.034-.468c-.21-2.378-2.035-4.547-4.56-4.547-2.523 0-4.317 2.169-4.558 4.547h9.118zm16.614-4.706v10.518a.49.49 0 0 1-.482.48.47.47 0 0 1-.482-.48v-1.999c-.793 1.588-2.213 2.72-4.008 2.72-2.866 0-4.457-2.48-4.457-5.098V18.44c0-.24.209-.48.482-.48a.49.49 0 0 1 .481.48v6.166c0 2.069 1.174 4.137 3.488 4.137 3.247 0 4.008-3.03 4.008-6.375V18.44c0-.278.279-.563.621-.462.21.07.349.272.349.487zm24.413 4.288v6.167a.49.49 0 0 1-.482.48.47.47 0 0 1-.482-.48v-6.167c0-2.068-1.173-4.098-3.487-4.098-2.905 0-4.008 3.1-4.008 5.509v4.756a.49.49 0 0 1-.482.48.47.47 0 0 1-.482-.48v-6.167c0-2.068-1.173-4.098-3.487-4.098-2.936 0-4.148 2.309-4.04 5.376 0 .07.032.209 0 .24v4.636a.484.484 0 0 1-.393.487c-.323.05-.577-.17-.577-.474V18.396c0-.234.159-.45.387-.487.323-.05.577.17.577.474v1.758c.83-1.48 2.314-2.447 4.04-2.447 1.965 0 3.487 1.24 4.108 3.067.793-1.79 2.346-3.067 4.35-3.067 2.835 0 4.458 2.441 4.458 5.06z"/>
        <g fill="#010101">
            <path d="M12.78 15.247L.03 21.138l12.75 7.654 12.744-7.654z" opacity=".6"/>
            <path d="M.03 21.232l13.23 7.56V0z" opacity=".45"/>
            <path d="M13.23 0v28.98l12.6-7.61z" opacity=".8"/>
            <path d="M.03 23.399l13.23 17.916V30.912z" opacity=".45"/>
            <path d="M13.052 30.912v10.403l12.483-17.916z" opacity=".8"/>
        </g>
    </g>
</svg>
