<svg xmlns="http://www.w3.org/2000/svg" width="116" height="31" viewBox="0 0 116 31">
    <g fill="none" fill-rule="evenodd">
        <path fill="#626264" d="M36.4 4.48v21.84h-2.24V4.48h2.24zm43.097 9.193c-.47.488-.94.963-1.421 1.438-1.972-1.762-5.193-1.762-7.175-.034-2.373 2.04-2.224 6.271.252 8.161 1.983 1.577 5.054 1.484 6.923-.232l1.444 1.414c-2.682 2.458-7.279 2.563-9.972.128-2.9-2.574-3.14-7.559-.573-10.446 2.636-2.944 7.657-3.141 10.522-.429zm12.622-.698c1.593 1.008 2.647 2.756 2.968 4.608.309 1.934 0 4.019-1.112 5.65-1.283 1.958-3.609 3.127-5.923 3.08-1.96.082-3.953-.636-5.327-2.06-2.315-2.247-2.681-6.079-1.203-8.881.974-1.818 2.806-3.08 4.8-3.473l-.011.011c1.97-.37 4.124-.07 5.808 1.065zm-29.353.046c2.16 1.537 3.003 4.39 2.691 6.93H53.594c.196 1.318.832 2.6 1.94 3.385 2.172 1.617 5.695 1.213 7.232-1.074l.289-.289c.67.081 1.316.266 1.975.393-.647 1.479-1.883 2.68-3.361 3.326a7.768 7.768 0 0 1-5.742.15 6.688 6.688 0 0 1-3.835-3.765c-.82-2.079-.762-4.505.197-6.537.866-1.837 2.645-3.189 4.632-3.593v-.012c1.986-.403 4.181-.138 5.845 1.086zM48.082 6.72v5.17h2.878l-.045 1.827-2.833.023v12.02h-1.986V13.74l-2.405.011-.011-1.871h2.416V6.72h1.986zm62.04 5.04c.845-.011 1.678.147 2.377.487 1.374.611 2.162 1.777 2.546 3.124.225.78.315 1.618.315 2.433l-.034 7.956-1.937-.011v-7.832c.01-1.177-.225-2.433-1.06-3.316-.81-.826-2.072-1.03-3.165-.792-1.261.192-2.467.94-3.052 2.105-.372.713-.519 1.516-.519 2.308-.01 2.513 0 5.014 0 7.527H103.6v-13.74l1.993.034.023 2.162.011.011c.755-1.595 2.67-2.433 4.495-2.455zm-68.702 0l.02 14h-1.67l-.01-13.943 1.66-.057zm56.6 0l1.66.011V25.76H98l.02-14zm-11.503 2.165l-.012.011c-1.604.37-3.001 1.563-3.551 3.138-.803 2.177-.138 4.898 1.787 6.241 2.257 1.679 5.797 1.227 7.458-1.089 1.204-1.667 1.352-4.029.378-5.847-1.134-2.118-3.814-3.056-6.06-2.454zm-31.468 1.268v-.012c-.808.774-1.259 1.837-1.455 2.934 3.27.012 6.55.012 9.819 0-.162-1.79-1.363-3.5-3.096-4.066-1.78-.623-3.927-.207-5.268 1.144zM98.84 5.6a1.4 1.4 0 1 1 0 2.8 1.4 1.4 0 0 1 0-2.8zM40.6 5.04a1.4 1.4 0 1 1 0 2.8 1.4 1.4 0 0 1 0-2.8z"/>
        <path fill="#B8B9BB" d="M14.84 0c8.192 0 14.84 6.774 14.84 15.12s-6.648 15.12-14.84 15.12S0 23.466 0 15.12 6.648 0 14.84 0zm-2.587 6.75l-2.326 8.867-1.849.729-.67 2.52 1.873-.648-1.248 5.237 13.422.023.828-3.364h-8.18l1.055-4.046 2.2-.96.636-2.473-2.156.74 1.691-6.59-5.276-.023v-.011z"/>
    </g>
</svg>
