<svg xmlns="http://www.w3.org/2000/svg" width="156" height="28" viewBox="0 0 156 28">
    <g fill="none" fill-rule="nonzero">
        <path fill="#231F20" d="M67.877 18.582v-5.676c0-2.141-1.366-3.583-3.564-3.602a3.508 3.508 0 0 0-3.182 1.612 3.326 3.326 0 0 0-2.993-1.612 2.997 2.997 0 0 0-2.649 1.347V9.516h-1.971v9.066h1.99v-5.02c0-1.575.87-2.407 2.217-2.407s1.972.85 1.972 2.387v5.04h1.979v-5.02c0-1.575.908-2.407 2.217-2.407 1.31 0 1.99.85 1.99 2.387v5.04h1.994zm29.45-9.058h-3.22V6.777h-1.99v2.747h-1.84v1.8h1.84v4.129c0 2.104.813 3.356 3.144 3.356.87.003 1.724-.24 2.463-.7l-.568-1.687a3.64 3.64 0 0 1-1.744.51c-.984 0-1.31-.605-1.31-1.513v-4.094h3.22l.004-1.801zm16.81-.227a2.671 2.671 0 0 0-2.387 1.328V9.524h-1.952v9.058h1.971v-5.078c0-1.513.643-2.33 1.934-2.33.422-.007.841.07 1.233.227l.606-1.858a4.211 4.211 0 0 0-1.404-.246zm-25.415.946a6.773 6.773 0 0 0-3.697-.946c-2.293 0-3.783 1.1-3.783 2.898 0 1.48 1.097 2.388 3.125 2.671l.927.133c1.078.151 1.593.435 1.593.946 0 .7-.719 1.1-2.066 1.1a4.828 4.828 0 0 1-3.027-.945l-.897 1.532a6.535 6.535 0 0 0 3.924 1.177c2.615 0 4.132-1.233 4.132-2.955 0-1.593-1.196-2.425-3.163-2.71l-.927-.132c-.852-.113-1.537-.283-1.537-.889 0-.662.644-1.06 1.726-1.06a5.838 5.838 0 0 1 2.823.776l.847-1.596zm52.792-.946a2.671 2.671 0 0 0-2.388 1.328V9.524h-1.952v9.058h1.97v-5.078c0-1.513.644-2.33 1.934-2.33.422-.007.842.07 1.234.227l.605-1.858a4.211 4.211 0 0 0-1.403-.246zm-25.386 4.756c0 2.747 1.915 4.756 4.832 4.756a4.745 4.745 0 0 0 3.258-1.082l-.946-1.593a3.98 3.98 0 0 1-2.369.814c-1.574 0-2.728-1.158-2.728-2.899 0-1.74 1.158-2.88 2.728-2.898a3.98 3.98 0 0 1 2.369.813l.946-1.593a4.745 4.745 0 0 0-3.258-1.082c-2.917 0-4.832 2.01-4.832 4.756v.008zm18.457 0v-4.54h-1.97v1.1a3.436 3.436 0 0 0-2.861-1.328c-2.54 0-4.541 1.99-4.541 4.757 0 2.766 1.99 4.756 4.54 4.756a3.436 3.436 0 0 0 2.861-1.328v1.097h1.971v-4.514zm-7.333 0c0-1.593 1.041-2.898 2.747-2.898 1.631 0 2.729 1.252 2.729 2.898 0 1.646-1.098 2.898-2.729 2.898-1.706 0-2.747-1.309-2.747-2.898zm-23.784-4.756c-2.65 0-4.51 1.933-4.51 4.756 0 2.88 1.933 4.756 4.642 4.756a5.505 5.505 0 0 0 3.716-1.271l-.965-1.46a4.317 4.317 0 0 1-2.649.945c-1.271 0-2.425-.586-2.709-2.217h6.728c.018-.246.037-.492.037-.757 0-2.823-1.763-4.756-4.302-4.756l.012.004zm-.038 1.763c1.271 0 2.085.795 2.293 2.198h-4.696c.208-1.309 1.003-2.198 2.407-2.198h-.004zm49.435 2.993v-8.17h-1.971v4.738a3.436 3.436 0 0 0-2.861-1.328c-2.539 0-4.54 1.99-4.54 4.756s1.99 4.756 4.54 4.756a3.436 3.436 0 0 0 2.86-1.328v1.098h1.972v-4.522zm2.304 3.693a.579.579 0 0 1 .537.352.564.564 0 0 1-.124.628.568.568 0 0 1-.412.17.586.586 0 0 1-.546-.352.575.575 0 0 1 .31-.753.594.594 0 0 1 .243-.045h-.008zm0 1.022a.428.428 0 0 0 .314-.13.45.45 0 0 0-.14-.73.435.435 0 0 0-.174-.033.45.45 0 0 0-.322.764.45.45 0 0 0 .33.129h-.008zm.034-.72a.242.242 0 0 1 .16.046c.037.03.058.077.056.125a.144.144 0 0 1-.045.11.212.212 0 0 1-.125.053l.174.2h-.137l-.162-.2h-.053v.2h-.114v-.53l.246-.003zm-.132.099v.144h.132a.129.129 0 0 0 .072 0 .06.06 0 0 0 .027-.053.06.06 0 0 0-.027-.053.129.129 0 0 0-.072 0l-.132-.038zm-9.532-4.094c0-1.593 1.041-2.898 2.747-2.898 1.631 0 2.729 1.252 2.729 2.898 0 1.646-1.098 2.898-2.729 2.898-1.706 0-2.747-1.309-2.747-2.898zm-66.556 0v-4.54H77.01v1.1a3.436 3.436 0 0 0-2.849-1.316c-2.539 0-4.54 1.99-4.54 4.756s1.99 4.756 4.54 4.756a3.436 3.436 0 0 0 2.86-1.328v1.097h1.972l-.011-4.525zm-7.333 0c0-1.593 1.04-2.898 2.747-2.898 1.63 0 2.728 1.252 2.728 2.898 0 1.646-1.097 2.898-2.728 2.898-1.707 0-2.747-1.305-2.747-2.898z"/>
        <path fill="#FF5F00" d="M16.444 3.284h11.919v21.42H16.444z"/>
        <path fill="#EB001B" d="M17.201 14a13.599 13.599 0 0 1 5.203-10.708C16.819-1.098 8.799-.458 3.98 4.76c-4.82 5.218-4.82 13.264 0 18.482 4.819 5.219 12.839 5.858 18.424 1.469A13.599 13.599 0 0 1 17.2 14z"/>
        <path fill="#F79E1B" d="M44.444 14a13.621 13.621 0 0 1-22.04 10.708 13.622 13.622 0 0 0 0-21.42A13.622 13.622 0 0 1 44.444 14zM43.135 22.773v-.72h.178v-.142h-.443v.148h.178v.72l.087-.006zm.874 0v-.869h-.117l-.159.62-.159-.62h-.14v.87h.08v-.652l.147.564h.102l.148-.564v.657l.098-.006z"/>
    </g>
</svg>
