<svg xmlns="http://www.w3.org/2000/svg" width="61" height="38" viewBox="0 0 61 38">
    <g fill="none" fill-rule="evenodd">
        <path fill="#CF0A2C" fill-rule="nonzero" d="M11.86 0h15.108c2.105 0 3.417 1.726 2.93 3.85L22.86 34.161C22.362 36.274 20.245 38 18.14 38H3.032C.927 38-.385 36.274.102 34.161L7.14 3.85C7.638 1.726 9.743 0 11.86 0z"/>
        <path fill="#002856" fill-rule="nonzero" d="M26.03 0h17.643c2.137 0 1.172 1.726.666 3.85l-7.144 30.311C36.69 36.274 36.85 38 34.702 38h-17.63c-2.149 0-3.47-1.726-2.964-3.839L21.252 3.85C21.746 1.726 23.894 0 26.03 0z"/>
        <path fill="#007078" fill-rule="nonzero" d="M42.86 0h15.104c2.116 0 3.428 1.726 2.93 3.85l-7.037 30.311C53.36 36.274 51.244 38 49.14 38H34.036c-2.116 0-3.428-1.726-2.93-3.839L38.142 3.85C38.64 1.726 40.745 0 42.86 0z"/>
        <path fill="#FFF" d="M39.677 28.368h1.506l.43-1.372h-1.505l-.43 1.372zm1.196-3.786l-.514 1.62s.573-.271.872-.362c.31-.068.777-.125.777-.125l.37-1.133h-1.505zm.752-2.335l-.501 1.564s.561-.238.86-.317c.31-.08.777-.102.777-.102l.359-1.134h-1.495v-.011zm3.335 0l-1.948 6.11h.526l-.407 1.258h-.513l-.12.385h-1.853l.132-.385H37l.37-1.168h.383l1.972-6.2L40.12 21h1.888l-.203.635s.502-.34.98-.465S46 21.011 46 21.011l-.406 1.247h-.634v-.011z"/>
        <path fill="#FFF" fill-rule="nonzero" d="M46 21h2.176l.026.686c-.013.12.103.174.36.174H49l-.4 1.132h-1.17c-1.018.066-1.404-.304-1.378-.718L46 21z"/>
        <path fill="#FFF" fill-rule="nonzero" d="M45.962 26.362h-1.877l.326-1.105h2.146l.303-1.008h-2.11L45.11 23H51l-.362 1.249h-1.97l-.304 1.008h1.983l-.327 1.105h-2.169l-.385.468h.875l.21 1.393c.023.144.023.228.07.288.047.048.303.072.455.072h.268l-.396 1.357h-.665c-.105 0-.257-.012-.467-.012-.198-.024-.338-.144-.478-.204a.655.655 0 0 1-.35-.468l-.21-1.393-.98 1.369c-.302.432-.722.768-1.434.768H43l.362-1.213h.524c.152 0 .28-.06.385-.108a.61.61 0 0 0 .292-.252l1.4-2.065zM26.056 24H31l-.371 1.09h-1.973l-.314.939h2.02l-.372 1.133h-2.019l-.487 1.521c-.058.173.475.195.673.195l1.01-.13L28.76 30h-2.275c-.185 0-.324-.022-.522-.065a.518.518 0 0 1-.36-.248c-.08-.119-.208-.227-.127-.496l.65-2.008H25l.371-1.154h1.126l.302-.94h-1.126L26.056 24zM29.177 21.8H31l-.333 1.44h-2.49l-.27.298c-.115.15-.157.082-.303.19a1.462 1.462 0 0 1-.812.272H26l.323-1.385h.24c.197 0 .343-.027.406-.081.083-.068.166-.217.27-.448L27.699 21H29.5l-.323.8z"/>
        <path fill="#FFF" d="M33.55 23.626s.556-.498 1.495-.656c.22-.034 1.554-.023 1.554-.023l.21-.656h-2.854l-.406 1.335zm2.678.499h-2.83l-.173.554h2.447c.29-.034.348.012.37-.011l.186-.543zM32.564 21h1.728l-.256.85s.545-.431.928-.578c.383-.136 1.241-.26 1.241-.26L39 21l-.951 3.09c-.162.533-.348.872-.464 1.03a1.151 1.151 0 0 1-.475.42 1.826 1.826 0 0 1-.65.215c-.185.011-.464.022-.858.022h-2.69l-.754 2.446c-.07.237-.105.362-.058.43a.304.304 0 0 0 .255.124l1.183-.113L33.132 30H31.81c-.418 0-.73-.011-.94-.023-.208-.022-.417 0-.568-.102-.128-.101-.313-.249-.301-.384.011-.136.07-.351.15-.657L32.564 21z"/>
        <path fill="#FFF" fill-rule="nonzero" d="M37 26.011l-.161.75c-.07.239-.127.41-.3.557-.185.16-.404.318-.922.318l-.957.034-.012.841c-.011.239.058.216.093.25.046.046.08.057.126.08l.3-.023.91-.045-.38 1.227h-1.049c-.726 0-1.268-.023-1.452-.16-.173-.113-.196-.25-.196-.488l.07-3.284h1.66l-.024.67h.404c.138 0 .23-.01.288-.045a.323.323 0 0 0 .115-.17l.161-.523H37v.011zM13.86 10.011c-.056.267-1.11 5.011-1.11 5.011-.225.956-.384 1.645-.95 2.09-.317.255-.69.377-1.12.377-.691 0-1.088-.333-1.155-.978l-.012-.222L9.728 15s1.098-4.333 1.302-4.9c.012-.033.012-.044.012-.067-2.14.023-2.525 0-2.548-.033-.011.044-.068.311-.068.311l-1.132 4.9-.102.411L7 16.978c0 .4.08.733.238 1.01.51.879 1.97 1.012 2.796 1.012 1.064 0 2.06-.222 2.74-.622 1.166-.678 1.483-1.745 1.754-2.69l.125-.488s1.132-4.5 1.324-5.078c.012-.033.012-.044.023-.066-1.54.01-1.992-.012-2.14-.045zM20.119 18.969a25.23 25.23 0 0 0-1.944.031l-.035-.062c.08-.311.161-.612.242-.934l.115-.425c.16-.654.333-1.421.345-1.66.023-.135.069-.487-.38-.487-.184 0-.38.083-.586.166-.104.352-.322 1.338-.437 1.784a35.441 35.441 0 0 0-.334 1.525l-.07.062c-.793-.01-1.069-.01-1.989.031L15 18.927c.15-.56.3-1.13.449-1.69.38-1.525.471-2.106.575-2.884l.069-.042c.897-.114 1.115-.135 2.082-.311l.08.083-.15.488c.162-.094.323-.177.484-.25.46-.197.966-.259 1.242-.259.426 0 .886.104 1.081.55.184.394.058.882-.184 1.836l-.126.488c-.242 1.058-.288 1.255-.426 1.981l-.057.052zM23.022 18.969c-.45 0-.736-.011-1.011 0-.275 0-.55.02-.967.031l-.022-.031-.022-.042c.11-.41.176-.546.23-.693.056-.147.11-.294.21-.704.131-.535.208-.913.263-1.25.066-.325.1-.587.143-.902l.033-.021.033-.032c.44-.063.725-.094 1.011-.147.286-.031.582-.094 1.044-.178l.022.042.011.042c-.088.336-.176.672-.253 1.008-.077.336-.165.672-.242 1.008-.164.714-.23.976-.274 1.165-.044.179-.044.273-.11.64l-.044.032-.055.032zM27.721 16.412c-.037.176-.231.852-.475 1.143-.17.208-.378.343-.609.343-.073 0-.475 0-.475-.51 0-.249.06-.509.134-.79.22-.81.475-1.496 1.12-1.496.5-.01.536.499.305 1.31zm2.144.083c.292-1.07.06-1.57-.22-1.882-.426-.467-1.181-.613-1.96-.613-.476 0-1.584.042-2.46.728-.622.499-.914 1.164-1.097 1.808-.17.655-.378 1.84.889 2.277.39.145.962.187 1.328.187.937 0 1.888-.218 2.606-.873.573-.53.828-1.31.914-1.632zM48.903 18.968a21.34 21.34 0 0 0-1.851.032L47 18.937c.207-.809.424-1.618.61-2.437.249-1.06.3-1.513.373-2.132l.062-.053c.838-.115 1.065-.157 1.934-.315l.021.074c-.155.672-.31 1.334-.466 2.006-.32 1.397-.434 2.111-.558 2.846l-.073.042z"/>
        <path fill="#FFF" fill-rule="nonzero" d="M46.955 16.444c-.05.177-.235.852-.496 1.132-.173.197-.57.332-.806.332-.062 0-.471 0-.483-.508 0-.25.062-.51.136-.79.223-.799.484-1.474 1.14-1.474.51 0 .733.499.51 1.308zm1.997.083c.298-1.069-.88-.093-1.066-.446-.286-.55-.112-1.661-1.265-2.035-.447-.145-1.489.042-2.382.727-.632.488-.93 1.163-1.103 1.796-.186.644-.385 1.827.905 2.253.41.145.781.187 1.153.176 1.303-.062 2.282-1.702 3.014-2.346.558-.52.657.187.744-.125zM35.119 18.969c-.771-.01-1.036-.01-1.944.031l-.035-.062c.08-.311.161-.612.242-.934l.103-.425c.173-.654.334-1.421.345-1.66.023-.135.07-.487-.368-.487-.195 0-.39.083-.586.166a50.571 50.571 0 0 0-.437 1.784c-.219.944-.23 1.058-.334 1.525l-.07.062c-.793-.01-1.069-.01-1.989.031L30 18.927c.15-.56.3-1.13.449-1.69.38-1.525.471-2.106.575-2.884l.069-.042c.897-.114 1.115-.135 2.082-.311l.069.083-.138.488c.16-.094.322-.177.483-.25.448-.197.966-.259 1.242-.259.414 0 .886.104 1.081.55.184.394.058.882-.184 1.836l-.126.488c-.253 1.058-.288 1.255-.426 1.981l-.057.052zM41.57 10.011l-.662.011c-1.715.023-2.4.011-2.685-.022-.023.123-.07.323-.07.323l-.616 2.684S36.071 18.722 36 18.99c1.502-.022 2.117-.022 2.377.011.06-.267.402-1.86.414-1.86 0 0 .296-1.17.32-1.214 0 0 .094-.123.189-.167h.142c1.289 0 2.755 0 3.902-.791.78-.546 1.313-1.348 1.55-2.328a3.41 3.41 0 0 0 .106-.813c0-.379-.083-.747-.307-1.036-.615-.758-1.786-.78-3.123-.78zm.852 2.796c-.142.601-.556 1.103-1.076 1.337-.438.2-.97.222-1.514.222h-.355l.024-.133s.65-2.685.65-2.674l.024-.133.012-.1.26.022s1.348.111 1.383.111c.533.19.746.69.592 1.348zM56 13.08l-.066-.08c-.912.196-1.077.219-1.912.345l-.066.07c0 .01-.01.022-.01.045v-.011c-.627 1.508-.605 1.186-1.11 2.371 0-.057 0-.092-.012-.15l-.132-2.566-.077-.081c-.956.196-.978.219-1.857.345l-.066.07c-.01.034-.01.068-.01.103l.01.012c.11.587.088.46.198 1.392.055.46.121.921.176 1.37.088.76.132 1.128.242 2.28-.594 1.024-.737 1.415-1.308 2.324l.033.081c.857-.035 1.055-.035 1.692-.035l.143-.16C52.33 19.664 56 13.08 56 13.08zM23.644 14.586c.426-.452.473-1.064.123-1.4-.36-.32-.986-.218-1.412.234-.427.437-.474 1.064-.114 1.4.35.306.986.218 1.403-.234zM52 21l-.675 1.251c-.218.425-.612.749-1.245.749L49 22.978l.311-1.129h.208a.715.715 0 0 0 .25-.033.314.314 0 0 0 .134-.134l.405-.682H52z"/>
    </g>
</svg>
