<svg xmlns="http://www.w3.org/2000/svg" width="72" height="23" viewBox="0 0 72 23">
    <g fill="none" fill-rule="nonzero">
        <g fill="#0A67B2">
            <path d="M31.21 22.577h-5.874L29 .491h5.884zM20.395.491l-5.603 15.186-.663-3.273-1.978-9.927S11.91.49 9.369.49H.11L0 .865s2.832.58 6.146 2.526l5.1 19.186h6.126L26.712.491h-6.317zM66.597 22.577h5.393L67.29.491h-4.72c-2.178 0-2.71 1.642-2.71 1.642l-8.757 20.435h6.125l1.226-3.283h7.47l.673 3.292zm-6.466-7.814l3.082-8.266 1.738 8.266h-4.82zM51.555 5.8l.843-4.748s-2.59-.964-5.282-.964c-2.912 0-9.84 1.249-9.84 7.313 0 5.701 8.123 5.78 8.123 8.768 0 2.998-7.29 2.457-9.69.57l-.874 4.954s2.621 1.248 6.628 1.248c4.006 0 10.062-2.035 10.062-7.559 0-5.74-8.194-6.28-8.194-8.777-.01-2.477 5.703-2.162 8.224-.806z"/>
        </g>
        <path fill="#FAA634" d="M14.129 12.414L12.15 2.477S11.91.49 9.369.49H.11L0 .865s4.449.904 8.716 4.285c4.087 3.234 5.413 7.264 5.413 7.264z"/>
    </g>
</svg>
