<svg xmlns="http://www.w3.org/2000/svg" width="56.006" height="64" viewBox="0 0 56.006 64"><defs><style>.a{fill:none;stroke:#00cdff;stroke-linejoin:round;stroke-width:2px;}</style></defs><g transform="translate(-344 84)"><path class="a" d="M391-60V-79a4,4,0,0,0-4-4H353l-8,8v50a4,4,0,0,0,4,4h15"/><path class="a" d="M353-83l-8,8h6a2,2,0,0,0,2-2Z"/><path class="a" d="M380-34h0a2,2,0,0,0,2,2h2a2,2,0,0,0,2-2h0a2,2,0,0,0-2-2h-2a2,2,0,0,1-2-2h0a2,2,0,0,1,2-2h2a2,2,0,0,1,2,2h0"/><line class="a" y1="2" transform="translate(383 -42)"/><line class="a" y1="2" transform="translate(383 -32)"/><circle class="a" cx="10" cy="10" r="10" transform="translate(373 -46)"/><path class="a" d="M379-50a9.458,9.458,0,0,0-4-7h16a9.458,9.458,0,0,0-4,7"/><path class="a" d="M397-27.44V-36.6a14.26,14.26,0,0,0-13.323-14.379A14,14,0,0,0,369-37v9.56a4.261,4.261,0,0,1-1.4,3.012,2,2,0,0,0-.573,1.764A2.075,2.075,0,0,0,369.107-21h27.786a2.075,2.075,0,0,0,2.08-1.664,2,2,0,0,0-.573-1.764A4.261,4.261,0,0,1,397-27.44Z"/><path class="a" d="M387-60v-8a2,2,0,0,0-2-2H351a2,2,0,0,0-2,2v20a2,2,0,0,0,2,2h18"/><line class="a" x2="2" transform="translate(348 -42)"/><line class="a" x2="14" transform="translate(352 -42)"/><line class="a" x2="18" transform="translate(348 -38)"/><line class="a" x2="18" transform="translate(348 -34)"/><path class="a" d="M353-61v-5h5"/><line class="a" x2="2" y2="2" transform="translate(372 -53)"/><path class="a" d="M353-66l8,8,3-3,6,6"/></g></svg>