<svg xmlns="http://www.w3.org/2000/svg" width="42" height="42" viewBox="0 0 42 42">
    <g fill="none" fill-rule="evenodd">
        <path fill="#141414" d="M5.25 20h31.5c.726 0 1.313.578 1.313 1.294a1.3 1.3 0 0 1-1.179 1.288l-.134.006h-1.313v9.06h1.313c.68 0 1.239.507 1.306 1.16l.007.133v2.588h2.624c.68 0 1.24.509 1.306 1.162l.007.133v3.882a1.3 1.3 0 0 1-1.178 1.287l-.135.007H1.313c-.68 0-1.24-.508-1.306-1.162L0 40.706v-3.882a1.3 1.3 0 0 1 1.178-1.288l.135-.007h2.625v-2.588a1.3 1.3 0 0 1 1.178-1.287l.134-.007h1.313v-9.059H5.25a1.302 1.302 0 0 1-1.313-1.294 1.3 1.3 0 0 1 1.179-1.287L5.25 20h31.5zm34.125 18.118H2.625v1.294h36.75v-1.294zm-3.938-3.883H6.564v1.294h28.875v-1.294zM11.814 22.588H9.187v9.06h2.626v-9.06zm15.75 0H14.438v9.06h13.124v-9.06zm5.25 0h-2.626v9.06h2.625v-9.06zm-14.438 2.037c.68 0 1.238.515 1.306 1.178l.006.134v3.938a1.311 1.311 0 0 1-2.618.134l-.007-.134v-3.938c0-.726.587-1.312 1.313-1.312zm5.25 0c.726 0 1.312.586 1.312 1.312v3.938a1.311 1.311 0 1 1-2.625 0v-3.938c0-.726.587-1.312 1.313-1.312z"/>
        <path fill="#F25822" d="M23.5 13c0 1.379-1.121 2.5-2.5 2.5a2.503 2.503 0 0 1-2.5-2.5c0-1.379 1.121-2.5 2.5-2.5s2.5 1.121 2.5 2.5M16 13c0 2.758 2.242 5 5 5s5-2.242 5-5c0-2.759-2.242-5-5-5s-5 2.241-5 5"/>
        <path fill="#141414" d="M2.518 17.658L21 3.035l18.483 14.623c.288.229.652.342 1.017.342.405 0 .807-.14 1.102-.414.563-.522.524-1.336-.084-1.817L22.018.34c-.577-.453-1.46-.453-2.035 0L.483 15.77c-.61.48-.647 1.294-.085 1.816.561.522 1.512.553 2.12.072"/>
    </g>
</svg>
