<svg xmlns="http://www.w3.org/2000/svg" width="56" height="64" viewBox="0 0 56 64"><defs><style>.a{fill:none;stroke:#00cdff;stroke-linejoin:round;stroke-width:2px;}</style></defs><g transform="translate(76 168)"><path class="a" d="M-29-114v5a4,4,0,0,1-4,4H-67l-8-8v-50a4,4,0,0,1,4-4h38a4,4,0,0,1,4,4v27"/><path class="a" d="M-67-105l-8-8h6a2,2,0,0,1,2,2Z"/><path class="a" d="M2,0H8A0,0,0,0,1,8,0V16a0,0,0,0,1,0,0H2a2,2,0,0,1-2-2V2A2,2,0,0,1,2,0Z" transform="translate(-29 -133)"/><path class="a" d="M-50-124v-5l9-9,3,3"/><path class="a" d="M-29-131h-5l-1-1"/><path class="a" d="M-29-120h-5l-4,4h-6l-3-3"/><rect class="a" width="24.042" height="5.657" transform="translate(-53 -121) rotate(-45)"/><path class="a" d="M-53-121v4h4"/><line class="a" x1="16" transform="translate(-72 -117)"/><path class="a" d="M-70-121l6-6,4,4,4-4"/><path class="a" d="M-55-152h0a2,2,0,0,0,2,2h2a2,2,0,0,0,2-2h0a2,2,0,0,0-2-2h-2a2,2,0,0,1-2-2h0a2,2,0,0,1,2-2h2a2,2,0,0,1,2,2h0"/><line class="a" y1="2" transform="translate(-52 -160)"/><line class="a" y1="2" transform="translate(-52 -150)"/><circle class="a" cx="9" cy="9" r="9" transform="translate(-61 -163)"/><line class="a" x2="2" transform="translate(-63 -141)"/><line class="a" x2="18" transform="translate(-59 -141)"/><line class="a" x2="22" transform="translate(-70 -137)"/><line class="a" x2="20" transform="translate(-70 -133)"/></g></svg>