<svg xmlns="http://www.w3.org/2000/svg" width="80.662" height="68.033" viewBox="0 0 80.662 68.033"><defs><style>.a{fill:#01cdff;}</style></defs><g transform="translate(0 -40.081)"><g transform="translate(0 40.081)"><path class="a" d="M75.691,40.081H4.97A4.976,4.976,0,0,0,0,45.051V93.041a4.976,4.976,0,0,0,4.97,4.97H28.889l-.967,7.74H23.913a1.182,1.182,0,1,0,0,2.363H56.748a1.182,1.182,0,1,0,0-2.363H52.74l-.968-7.74H75.691a4.976,4.976,0,0,0,4.97-4.97V45.051A4.976,4.976,0,0,0,75.691,40.081ZM30.3,105.751l.968-7.74H35.62l.427,1.706a4.417,4.417,0,0,0,8.569,0l.427-1.706h4.349l.967,7.74Zm7.752-7.74h4.551l-.283,1.133a2.053,2.053,0,0,1-3.984,0ZM78.3,93.041h0a2.61,2.61,0,0,1-2.607,2.607H4.97a2.61,2.61,0,0,1-2.607-2.607V45.051A2.61,2.61,0,0,1,4.97,42.444H75.691A2.61,2.61,0,0,1,78.3,45.051V93.041Z" transform="translate(0 -40.081)"/></g><g transform="translate(5.051 45.133)"><path class="a" d="M93.864,72.146H33.246a1.181,1.181,0,0,0-1.182,1.182v45.464a1.181,1.181,0,0,0,1.182,1.182h2.526a1.182,1.182,0,0,0,0-2.363H34.427v-43.1H93.864a1.182,1.182,0,0,0,0-2.363Z" transform="translate(-32.064 -72.146)"/></g><g transform="translate(12.629 45.133)"><path class="a" d="M141.962,72.146h-2.526a1.182,1.182,0,0,0,0,2.363h1.344v43.1H81.344a1.182,1.182,0,0,0,0,2.363h60.618a1.181,1.181,0,0,0,1.182-1.182V73.328A1.181,1.181,0,0,0,141.962,72.146Z" transform="translate(-80.162 -72.146)"/></g><g transform="translate(21.469 52.71)"><path class="a" d="M171.223,125.746a1.181,1.181,0,0,0-.877-.452l-27.783-1.263H142.5a2.448,2.448,0,0,0-.982-1.322l-3.4-2.268a1.182,1.182,0,0,0-1.311,1.966l3.4,2.268a.082.082,0,0,1,.033.046l4.334,15.168a3.721,3.721,0,0,0,.643,1.265l-1.586,3.171a2.429,2.429,0,0,0,.107,2.378,2.454,2.454,0,0,0,.606.667,3.707,3.707,0,1,0,6.672.492h10.772a3.707,3.707,0,1,0,6.772-.307,1.18,1.18,0,0,0-.792-2.056H145.815a.081.081,0,0,1-.073-.118l1.461-2.921a3.709,3.709,0,0,0,.924.118,3.812,3.812,0,0,0,.442-.026l16.6-1.953a4.958,4.958,0,0,0,4.293-3.962l1.986-9.931A1.182,1.182,0,0,0,171.223,125.746Zm-5.982,22.116a1.344,1.344,0,1,1-1.344,1.344A1.346,1.346,0,0,1,165.241,147.862Zm-17.68,0a1.344,1.344,0,1,1-1.344,1.344A1.346,1.346,0,0,1,147.56,147.862Zm-2.9-16.255-1.481-5.182,4.724.215.819,4.968Zm3.63,8.6a1.338,1.338,0,0,1-1.45-.966l-1.505-5.268h3.777l.993,6.021Zm6.926-.815-2.762.325-.947-5.744h3.709Zm0-7.782h-4.1l-.8-4.858,4.9.223Zm5.984,7.078-3.621.426V133.97h4.047Zm.641-7.078h-4.261v-4.528l4.652.211Zm5.3,4.566a2.6,2.6,0,0,1-2.252,2.078l-1.295.152.4-4.433h3.586Zm.913-4.566h-3.844l.381-4.209,4.266.194Z" transform="translate(-136.276 -120.241)"/></g></g></svg>