<svg xmlns="http://www.w3.org/2000/svg" width="32" height="30" viewBox="0 0 32 30">
    <g fill="none" fill-rule="evenodd">
        <path fill="#333" d="M32 28v2H0v-2h32zm0-4v2H0v-2h32zm0-4v2H0v-2h32zm0-20v18H0V0h32zM2 14.172v1.827h1.828a3.016 3.016 0 0 0-1.827-1.827zM26.1 2H5.9A5.015 5.015 0 0 1 2 5.899v6.202a5.015 5.015 0 0 1 3.9 3.898h20.2A5.015 5.015 0 0 1 30 12.1V5.9A5.015 5.015 0 0 1 26.1 2zM30 14.17A3.016 3.016 0 0 0 28.172 16H30v-1.828zM27 8v2h-4V8h4zM9 8v2H5V8h4zM3.828 2H2v1.828a3.016 3.016 0 0 0 1.828-1.827zM30 2h-1.828c.302.852.977 1.527 1.828 1.829V2z"/>
        <path fill="#F25822" d="M16 7c-1.103 0-2 .897-2 2s.897 2 2 2c1.102 0 2-.897 2-2s-.898-2-2-2m0 6c-2.206 0-4-1.794-4-4s1.794-4 4-4 4 1.794 4 4-1.794 4-4 4"/>
    </g>
</svg>
