<svg xmlns="http://www.w3.org/2000/svg" width="64" height="64" viewBox="0 0 64 64"><defs><style>.a{fill:none;stroke:#00cdff;stroke-linejoin:round;stroke-width:2px;}</style></defs><g transform="translate(0 -84)"><path class="a" d="M51,101V89a4,4,0,0,0-4-4H17a4.009,4.009,0,0,0-2.28.72"/><path class="a" d="M13,130v13a4,4,0,0,0,4,4H47a4.009,4.009,0,0,0,2.28-.72"/><path class="a" d="M24,85v2a2,2,0,0,0,2,2H38a2,2,0,0,0,2-2V85"/><circle class="a" cx="15" cy="15" r="15" transform="translate(17 101)"/><ellipse class="a" cx="8" cy="15" rx="8" ry="15" transform="translate(24 101)"/><line class="a" x2="30" transform="translate(17 116)"/><line class="a" x2="26" transform="translate(19 124)"/><line class="a" x2="26" transform="translate(19 108)"/><line class="a" y2="30" transform="translate(32 101)"/><path class="a" d="M50,139h0a2,2,0,0,0,2,2h2a2,2,0,0,0,2-2h0a2,2,0,0,0-2-2H52a2,2,0,0,1-2-2h0a2,2,0,0,1,2-2h2a2,2,0,0,1,2,2h0"/><line class="a" y1="2" transform="translate(53 131)"/><line class="a" y1="2" transform="translate(53 141)"/><circle class="a" cx="10" cy="10" r="10" transform="translate(43 127)"/><circle class="a" cx="10" cy="10" r="10" transform="translate(1 85)"/><path class="a" d="M7,90l4,4,4-4"/><line class="a" y2="8" transform="translate(11 94)"/><line class="a" x2="6" transform="translate(8 95)"/><line class="a" x2="6" transform="translate(8 98)"/><path class="a" d="M32,95a21,21,0,0,1,21,21v7l-4-4"/><path class="a" d="M32,137a21,21,0,0,1-21-21v-7l4,4"/><line class="a" y1="4" x2="4" transform="translate(53 119)"/><line class="a" x1="4" y2="4" transform="translate(7 109)"/></g></svg>