<svg xmlns="http://www.w3.org/2000/svg" xmlns:xlink="http://www.w3.org/1999/xlink" width="42" height="42" viewBox="0 0 42 42">
    <defs>
        <path id="a" d="M0 .002h42v41.997H0z"/>
    </defs>
    <g fill="none" fill-rule="evenodd">
        <g>
            <mask id="b" fill="#fff">
                <use xlink:href="#a"/>
            </mask>
            <path fill="#141414" d="M28.496 37.756c1.839-2.449 3.268-5.846 4.058-9.945.017-.085-.001-.165-.001-.249h5.638c-1.756 4.556-5.276 8.214-9.695 10.194zM3.862 27.562H9.78c.784 4.277 2.311 7.904 4.327 10.458A18.464 18.464 0 0 1 3.862 27.562zm10.107-23.56c-1.979 2.582-3.456 6.209-4.21 10.435H3.843A18.486 18.486 0 0 1 13.97 4.001zM9.403 24.936H3.065a18.385 18.385 0 0 1-.44-3.959c0-1.344.16-2.65.436-3.916h6.321a38.203 38.203 0 0 0 .021 7.875zm10.285 2.625v11.54c-3.26-1.086-6.008-5.604-7.214-11.54h7.214zm10.236 0c-1.265 6.268-4.283 10.808-7.611 11.656V27.562h7.611zm10.85-6.58c-.73-.036-1.349.5-1.396 1.224a18.316 18.316 0 0 1-.41 2.731H22.313v-2.625a1.313 1.313 0 0 0-2.625 0v2.625h-7.634a34.141 34.141 0 0 1-.241-4.012c0-1.32.082-2.61.224-3.863h5.026a1.312 1.312 0 1 0 0-2.625h-4.624C13.677 8.184 16.627 3.4 20.158 2.592a1.312 1.312 0 0 0 .985-1.573 1.293 1.293 0 0 0-1.371-.992c-.06-.005-.117-.029-.179-.025C8.606.731 0 9.944 0 20.978 0 32.57 9.42 42 21 42c.04 0 .082-.005.122-.005.024 0 .046.005.07.005.176 0 .348-.022.52-.034 10.73-.363 19.577-8.824 20.286-19.587a1.312 1.312 0 0 0-1.225-1.396z" mask="url(#b)"/>
        </g>
        <path fill="#141414" d="M30.843 2.625c4.704 0 8.532 3.827 8.532 8.531 0 4.704-3.828 8.531-8.532 8.531-4.704 0-8.53-3.827-8.53-8.53 0-4.705 3.826-8.532 8.53-8.532m0 19.688C36.995 22.313 42 17.308 42 11.155 42 5.005 36.995 0 30.843 0c-6.151 0-11.156 5.005-11.156 11.156 0 6.152 5.005 11.156 11.156 11.156"/>
        <path fill="#F25822" d="M30.363 12.378c.42.165 1.793.762 1.793 1.508 0 .4-.21.673-.387.835-.679.616-2.016.349-2.322-.461a1.31 1.31 0 0 0-1.692-.764 1.311 1.311 0 0 0-.764 1.692c.571 1.513 2.088 2.53 3.776 2.53 1.02 0 2.028-.384 2.764-1.052a3.715 3.715 0 0 0 1.25-2.78c0-.967-.45-2.768-3.457-3.95-.42-.166-1.793-.763-1.793-1.51 0-.4.21-.672.387-.834.68-.616 2.016-.349 2.323.461a1.313 1.313 0 0 0 2.456-.928c-.573-1.513-2.09-2.532-3.776-2.532a4.155 4.155 0 0 0-2.766 1.054 3.715 3.715 0 0 0-1.25 2.779c0 .968.45 2.77 3.458 3.952"/>
    </g>
</svg>
