<svg xmlns="http://www.w3.org/2000/svg" width="40" height="44" viewBox="0 0 40 44">
    <g fill="none" fill-rule="evenodd">
        <path fill="#333" fill-rule="nonzero" d="M38.617 6.32L20.766.14a2.549 2.549 0 0 0-.769-.137c-.022 0-.044-.003-.067-.003-.023 0-.046.002-.068.003-.26.007-.52.052-.768.138L1.64 6.182A2.441 2.441 0 0 0 .035 8.898l4.052 23.64a2.53 2.53 0 0 0 1.048 1.652l13.375 9.363c.418.292.91.447 1.42.447a2.46 2.46 0 0 0 1.419-.447l13.58-9.507c.422-.295.714-.755.8-1.262l4.167-24.302a1.934 1.934 0 0 0-1.279-2.162zm-1.424 2.301l-4.016 23.43-13.247 9.272-13.247-9.272L2.666 8.62 19.93 2.645 37.193 8.62z"/>
        <path fill="#F25822" d="M24.24 31.771c.695-1.376.083-2.557-1.267-3.082-1.51-.588-2.026-2.927-1.38-4.055.978-1.71.154-3.647-1.53-3.992.841-.006 1.75.327 2.506.931a4.667 4.667 0 0 1 1.716 3.077l.022.241.176-.011a4.84 4.84 0 0 0-1.804-3.444c-.746-.596-1.606-.933-2.437-.968 7.027-1.1 9.592 7.796 3.998 11.303zm-4.542-10.74c.266.8.23 1.766-.11 2.672a4.667 4.667 0 0 1-2.397 2.583l-.223.096.065.163a4.84 4.84 0 0 0 2.718-2.78c.337-.893.392-1.816.168-2.617 3.217 6.344-4.45 11.532-9.514 7.296 1.523.236 2.457-.712 2.54-2.158.092-1.619 2.157-2.831 3.43-2.566 1.928.402 3.515-.98 3.323-2.688zm-4.24 4.676l.044.74-.647.363.719.186.144.728.399-.626.737.087-.472-.573.311-.674-.69.272-.545-.503zm8.343-.69l.045.74-.647.363.718.186.145.728.398-.627.737.088-.472-.572.311-.675-.69.273-.545-.505zM9.294 14.256c.246 1.522 1.436 2.118 2.836 1.75 1.569-.413 3.36 1.176 3.5 2.468.215 1.959 2.02 3.04 3.585 2.33-.677.5-1.608.765-2.575.72a4.662 4.662 0 0 1-3.357-1.663l-.135.113a4.84 4.84 0 0 0 3.484 1.725c.953.045 1.848-.188 2.54-.648-5.039 5.02-12.343-.67-9.878-6.795zm22.386 5.384c-1.094-1.086-2.406-.87-3.323.252-1.026 1.256-3.41 1.023-4.283.06-1.324-1.458-3.42-1.273-4.27.222.255-.802.852-1.564 1.66-2.096a4.667 4.667 0 0 1 3.441-.684l.253.056.043-.17a4.84 4.84 0 0 0-3.832.651c-.798.525-1.385 1.24-1.675 2.019 1.126-7.023 10.38-6.714 11.986-.31zM22.443 8.817c-1.372.705-1.57 2.02-.787 3.238.877 1.364-.081 3.559-1.267 4.092-1.796.809-2.268 2.86-1.109 4.129-.684-.49-1.223-1.293-1.48-2.227a4.667 4.667 0 0 1 .413-3.483l.132-.223-.15-.094a4.84 4.84 0 0 0-.564 3.847c.253.92.75 1.699 1.402 2.216-6.33-3.242-3.178-11.946 3.41-11.495zm-10.22 9.168l.045.741-.648.362.719.186.145.728.399-.626.737.088-.472-.573.31-.674-.69.272-.545-.504zm13.5-1.117l.045.741-.648.363.718.185.145.728.4-.625.736.087-.472-.573.311-.674-.69.272-.546-.504zm-7.156-4.346l.046.741-.649.363.72.186.144.728.399-.626.736.087-.471-.573.31-.674-.69.273-.545-.505z"/>
    </g>
</svg>
