<svg xmlns="http://www.w3.org/2000/svg" width="50" height="50" viewBox="0 0 50 50">
    <g fill="none" fill-rule="nonzero">
        <path fill="#333" d="M4.395 0h23.632a4.4 4.4 0 0 1 4.39 4.182l.005.213v1.532c.482-.044.97-.068 1.465-.068C42.772 5.86 50 13.088 50 21.973c0 8.884-7.228 16.113-16.113 16.113-.327 0-.653-.01-.978-.03l-.487-.037v7.586a4.4 4.4 0 0 1-4.182 4.39l-.213.005H4.395a4.4 4.4 0 0 1-4.39-4.182L0 45.605V4.395A4.4 4.4 0 0 1 4.182.005L4.395 0h23.632zm25.097 44.14H2.93v1.465c0 .76.582 1.387 1.324 1.459l.14.006h23.633c.76 0 1.387-.582 1.458-1.324l.007-.14V44.14zM24.633 8.789H2.93V41.21h26.562v-3.736a16.113 16.113 0 0 1-2.49-.93l-.477-.236-6.932 1.733a1.465 1.465 0 0 1-1.763-1.824l.048-.14 2.272-5.68a16.024 16.024 0 0 1-2.377-8.425c0-5.444 2.715-10.266 6.86-13.185zm9.254.001c-7.27 0-13.184 5.914-13.184 13.184 0 2.671.794 5.243 2.297 7.438.245.358.318.804.203 1.218l-.052.153-1.489 3.723 4.702-1.175c.362-.091.746-.04 1.073.144a13.186 13.186 0 0 0 6.45 1.682c7.269 0 13.183-5.914 13.183-13.183 0-7.27-5.914-13.184-13.183-13.184zm-20.508 8.79a1.465 1.465 0 1 1 0 2.929H7.324a1.465 1.465 0 1 1 0-2.93zm-6.055-5.86h6.055a1.465 1.465 0 0 1 .141 2.923l-.141.006H7.324a1.465 1.465 0 0 1-.14-2.923l.14-.006h6.055zm20.703-8.79H4.395c-.76 0-1.387.583-1.459 1.325l-.006.14V5.86h26.562V4.395c0-.808-.657-1.465-1.465-1.465z"/>
        <path fill="#F25822" d="M33.871 18.007c.808 0 1.465.657 1.465 1.465a1.465 1.465 0 1 0 2.93 0 4.402 4.402 0 0 0-2.914-4.137v-2.151a1.465 1.465 0 1 0-2.93 0v2.14a4.401 4.401 0 0 0-2.945 4.148 4.4 4.4 0 0 0 4.394 4.395c.808 0 1.465.657 1.465 1.464 0 .808-.657 1.465-1.465 1.465a1.466 1.466 0 0 1-1.465-1.465 1.465 1.465 0 0 0-2.93 0 4.401 4.401 0 0 0 2.946 4.148v1.283a1.465 1.465 0 1 0 2.93 0v-1.293a4.401 4.401 0 0 0 2.914-4.138 4.4 4.4 0 0 0-4.395-4.394 1.466 1.466 0 0 1-1.465-1.465c0-.808.657-1.465 1.465-1.465z"/>
    </g>
</svg>
