<svg xmlns="http://www.w3.org/2000/svg" width="56.224" height="61" viewBox="0 0 56.224 61"><defs><style>.a{fill:#03cdff;}</style></defs><g transform="translate(-20.042 0)"><g transform="translate(20.042 9.546)"><g transform="translate(0)"><path class="a" d="M33.353,80.121A13.311,13.311,0,1,0,46.664,93.432,13.326,13.326,0,0,0,33.353,80.121Zm0,24.832a11.52,11.52,0,1,1,11.52-11.52A11.534,11.534,0,0,1,33.353,104.953Z" transform="translate(-20.042 -80.121)"/></g></g><g transform="translate(28.805 12.411)"><path class="a" d="M102.128,112.647a.9.9,0,0,0,.9-.9V110.8a3.765,3.765,0,0,0-3.761-3.761H99.2v-1.97a.9.9,0,0,0-1.791,0v1.991a4.238,4.238,0,0,0,.418,8.455h.955a2.447,2.447,0,1,1,0,4.895H97.353a1.972,1.972,0,0,1-1.97-1.97.9.9,0,1,0-1.791,0,3.765,3.765,0,0,0,3.761,3.761h.06v1.97a.9.9,0,0,0,1.791,0v-1.991a4.238,4.238,0,0,0-.418-8.455H97.83a2.447,2.447,0,0,1,0-4.895h1.433a1.972,1.972,0,0,1,1.97,1.97v.955A.9.9,0,0,0,102.128,112.647Z" transform="translate(-93.592 -104.171)"/></g><g transform="translate(20.042 36.288)"><path class="a" d="M47.68,312.1a.9.9,0,0,0,.9-.9v-5.73a.9.9,0,0,0-.9-.9H22.848a.9.9,0,0,0-.9.9v4.835H20.938a.9.9,0,0,0-.9.9v5.73a.9.9,0,0,0,.9.9h1.015v3.94H20.938a.9.9,0,0,0-.9.9v5.73a.9.9,0,0,0,.9.9H45.77a.9.9,0,0,0,.9-.9v-4.835H47.68a.9.9,0,0,0,.9-.9v-5.73a.9.9,0,0,0-.9-.9H46.665V312.1Zm-25.846,3.94V312.1H44.874v3.94ZM44.874,327.5H21.834v-3.94H44.874Zm1.91-9.67v3.94H23.744v-3.94Zm-23.041-7.521v-3.94H46.785v3.94Z" transform="translate(-20.043 -304.579)"/></g><g transform="translate(47.744 0)"><g transform="translate(0 0)"><path class="a" d="M280.881,16.558,267.51.322a.9.9,0,0,0-1.382,0L252.757,16.558a.9.9,0,0,0,.691,1.465h5.79V45.779a.9.9,0,0,0,.9.9H273.5a.9.9,0,0,0,.9-.9V42.018a.9.9,0,0,0-1.791,0v2.865h-11.58V17.127a.9.9,0,0,0-.9-.9h-4.788L266.819,2.3l11.474,13.932H273.5a.9.9,0,0,0-.9.9V37.78a.9.9,0,0,0,1.791,0V18.022h5.79A.9.9,0,0,0,280.881,16.558Z" transform="translate(-252.558 0)"/></g></g><g transform="translate(54.424 49.659)"><path class="a" d="M322.9,416.807H309.524a.9.9,0,1,0,0,1.791H322.9a.9.9,0,0,0,0-1.791Z" transform="translate(-308.629 -416.807)"/></g><g transform="translate(54.424 54.434)"><path class="a" d="M322.9,456.888H309.524a.9.9,0,1,0,0,1.791H322.9a.9.9,0,0,0,0-1.791Z" transform="translate(-308.629 -456.888)"/></g><g transform="translate(54.424 59.209)"><path class="a" d="M322.9,496.97H309.524a.9.9,0,1,0,0,1.791H322.9a.9.9,0,0,0,0-1.791Z" transform="translate(-308.629 -496.97)"/></g></g></svg>