<svg xmlns="http://www.w3.org/2000/svg" width="68.977" height="68.971" viewBox="0 0 68.977 68.971"><defs><style>.a{fill:#03cdff;}</style></defs><g transform="translate(0 -0.023)"><g transform="translate(20.579 51.733)"><path class="a" d="M155.417,384.941a1.407,1.407,0,0,0-.077-.253,1.369,1.369,0,0,0-.124-.232,1.311,1.311,0,0,0-.372-.372,1.333,1.333,0,0,0-.233-.124,1.266,1.266,0,0,0-.252-.077,1.328,1.328,0,0,0-.525,0,1.305,1.305,0,0,0-.253.077,1.37,1.37,0,0,0-.232.124,1.346,1.346,0,0,0-.5.6,1.307,1.307,0,0,0-.077.253,1.295,1.295,0,0,0,0,.525,1.263,1.263,0,0,0,.077.252,1.249,1.249,0,0,0,.124.233,1.31,1.31,0,0,0,.372.372,1.36,1.36,0,0,0,.232.124,1.305,1.305,0,0,0,.253.077,1.294,1.294,0,0,0,.525,0,1.265,1.265,0,0,0,.252-.077,1.329,1.329,0,0,0,.233-.124,1.311,1.311,0,0,0,.372-.372,1.329,1.329,0,0,0,.124-.233,1.361,1.361,0,0,0,.077-.252,1.295,1.295,0,0,0,0-.525Z" transform="translate(-152.75 -383.857)"/></g><g transform="translate(0 41.773)"><path class="a" d="M61.97,321.381l-.016-.04c-1.24-2.9-4.148-3.974-7.59-2.8l-9.386,2.6a6.153,6.153,0,0,0-3.81-3.752l-.036-.013-10.317-3.5a10.641,10.641,0,0,0-8.585-3.95c-3.52,0-6.633,2.414-8.414,5.046H1.347A1.347,1.347,0,0,0,0,316.315V333.3a1.347,1.347,0,0,0,1.347,1.347h8.01A1.347,1.347,0,0,0,10.7,333.3v-1.163h3.756a1.347,1.347,0,0,0,1.347-1.347V330.4a9.551,9.551,0,0,1,4.921,1.766,81.539,81.539,0,0,0,8.094,4.132l.059.025a12.092,12.092,0,0,0,4.334.817,10.738,10.738,0,0,0,4.463-.956l20.746-7.428c.037-.013.073-.028.109-.044C60.517,327.8,63.471,325.232,61.97,321.381ZM8.01,331.953H2.694V317.663H8.01Zm5.1-2.51H10.7v-11.78h2.409Zm44.344-3.2-20.736,7.425-.061.023-.054.023a8.732,8.732,0,0,1-6.709.114,78.035,78.035,0,0,1-7.822-4,12.125,12.125,0,0,0-6.267-2.132V316.852c1.277-2.093,3.753-4.235,6.423-4.235a7.774,7.774,0,0,1,6.595,3.1,1.347,1.347,0,0,0,.715.57l10.707,3.634c1.71.642,2.614,2.106,2.2,3.567a2.625,2.625,0,0,1-3.225,1.812l-12.07-3.825a1.347,1.347,0,1,0-.814,2.569l12.091,3.832.039.012a5.287,5.287,0,0,0,4.044-.47,5.283,5.283,0,0,0,2.527-3.192q.046-.164.082-.327l10.115-2.8c1.461-.5,3.379-.679,4.233,1.288C60.352,324.689,58.055,325.959,57.458,326.244Z" transform="translate(0 -309.922)"/></g><g transform="translate(45.704 16.658)"><path class="a" d="M341.919,124.582a1.309,1.309,0,0,0-.078-.253,1.368,1.368,0,0,0-.291-.436,1.292,1.292,0,0,0-.2-.167,1.367,1.367,0,0,0-.232-.124,1.342,1.342,0,0,0-.779-.077,1.266,1.266,0,0,0-.252.077,1.331,1.331,0,0,0-.233.124,1.309,1.309,0,0,0-.372.372,1.366,1.366,0,0,0-.124.232,1.3,1.3,0,0,0-.077.253,1.293,1.293,0,0,0,0,.525,1.263,1.263,0,0,0,.077.252,1.329,1.329,0,0,0,.124.233,1.309,1.309,0,0,0,.372.372,1.329,1.329,0,0,0,.233.124,1.361,1.361,0,0,0,.252.077,1.327,1.327,0,0,0,.263.027,1.351,1.351,0,0,0,.264-.027,1.428,1.428,0,0,0,.252-.077,1.365,1.365,0,0,0,.232-.124,1.308,1.308,0,0,0,.372-.372,1.245,1.245,0,0,0,.124-.233,1.269,1.269,0,0,0,.078-.252,1.362,1.362,0,0,0,0-.525Z" transform="translate(-339.25 -123.498)"/></g><g transform="translate(4 0.023)"><g transform="translate(0 0)"><path class="a" d="M93.32,4.586H85.31a1.347,1.347,0,0,0-1.347,1.347V7.1H80.207a1.347,1.347,0,0,0-1.347,1.347v.388a9.552,9.552,0,0,1-4.921-1.766,81.52,81.52,0,0,0-8.094-4.132l-.059-.025a11.462,11.462,0,0,0-8.8.138L51.567,4.987,47,.418a1.347,1.347,0,0,0-1.905,0l-15,15a1.336,1.336,0,0,0,0,1.905L55.726,42.961a1.456,1.456,0,0,0,1.905,0l13.7-13.7c.356.031.726.047,1.109.047,3.52,0,6.633-2.414,8.414-5.046H93.32a1.347,1.347,0,0,0,1.347-1.347V5.933A1.347,1.347,0,0,0,93.32,4.586ZM46.045,3.276l3.071,3.071a5.874,5.874,0,0,1-6.141,0ZM36.019,19.443l-3.071-3.071L36.019,13.3a5.874,5.874,0,0,1,0,6.141ZM56.679,40.1l-3.07-3.07a5.866,5.866,0,0,1,6.14,0Zm5.011-5.011a8.561,8.561,0,0,0-10.022,0L37.96,21.384a8.561,8.561,0,0,0,0-10.023l3.074-3.074a8.561,8.561,0,0,0,10.023,0L53.97,11.2a5.34,5.34,0,0,0-4.009,2.937,7.678,7.678,0,1,0,8.829,9.505l4.549,1.544a8.6,8.6,0,0,0,1.427,6.828ZM53.5,21.847l.036.013,2.694.914a4.985,4.985,0,1,1-6.766-5.694A5.964,5.964,0,0,0,53.5,21.847Zm13.209,8.227a5.892,5.892,0,0,1-.861-2.8,10.475,10.475,0,0,0,2.376,1.286Zm12.152-7.693c-1.277,2.093-3.753,4.236-6.423,4.236a9.806,9.806,0,0,1-1.405-.1h-.005a7.716,7.716,0,0,1-4.99-2.731c-.027-.04-.145-.194-.162-.219a1.342,1.342,0,0,0-.742-.617L54.419,19.315c-1.709-.642-2.613-2.105-2.2-3.565v-.006a2.625,2.625,0,0,1,3.224-1.807l12.07,3.825a1.347,1.347,0,0,0,.814-2.569l-9.6-3.042-.084-.084,0,0-4.97-4.97,4.272-1.53.046-.018.014-.006.054-.023A8.731,8.731,0,0,1,64.77,5.4a78.039,78.039,0,0,1,7.822,4,12.124,12.124,0,0,0,6.267,2.132Zm5.1-.81H81.554V9.791h2.409Zm8.01,0H86.657V7.28h5.316Z" transform="translate(-29.691 -0.023)"/></g></g></g></svg>