<svg xmlns="http://www.w3.org/2000/svg" width="66.977" height="66.974" viewBox="0 0 66.977 66.974"><defs><style>.a{fill:#03cdff;}</style></defs><g transform="translate(-1 -0.012)"><g transform="translate(1 0.013)"><g transform="translate(0 0)"><path class="a" d="M45.527,124.709a31.925,31.925,0,0,1-3.7-5.908,2.392,2.392,0,0,1-.107-.219c0-.133.38-.476.607-.681a3.463,3.463,0,0,0,1.336-2.05,3.314,3.314,0,0,0-.244-1.553c-.155-.4-.336-.8-.517-1.193a9.729,9.729,0,0,1-.71-1.855l-.04-.173a23.9,23.9,0,0,0-.818-2.9,16.176,16.176,0,0,0-3.509-5.6,13.73,13.73,0,0,0-5.718-3.38,38,38,0,0,0-7.666-1.659v-.3a3.349,3.349,0,0,0-6.7,0v.334a20.392,20.392,0,0,0-8.7,3.148A18.607,18.607,0,0,0,1.11,114.055a17.7,17.7,0,0,0,.942,7.975,18.2,18.2,0,0,0,1.879,3.652,15.088,15.088,0,0,1,1.485,3.626c1.951,6.479,1.194,12.852-2.076,17.487a1.116,1.116,0,0,0,.911,1.759c.016,0,.03-.01.046-.011s.035.011.054.011l21.655.022h0a1.117,1.117,0,0,0,1.063-.777c.386-1.207,1.775-4.4,3.712-5.626,2.826.9,5.467,1.563,6.811,1.837a3.76,3.76,0,0,0,.753.077,3.478,3.478,0,0,0,3.281-2.475,5.078,5.078,0,0,0,.3-2.394c-.031-.233-.082-.467-.134-.7a2.111,2.111,0,0,1-.093-.871c.04-.155.19-.259.649-.518.209-.118.418-.238.617-.376a1.464,1.464,0,0,0,.614-1,2.19,2.19,0,0,0-.2-1.179c.235-.18.466-.359.6-.475,1-.815.341-1.957.024-2.506-.111-.193-.239-.413-.367-.676a1.115,1.115,0,0,1-.071-.619,3.368,3.368,0,0,1,.9-.55,6.611,6.611,0,0,0,1.022-.593,2.7,2.7,0,0,0,1.26-1.707,3.659,3.659,0,0,0-1.115-2.613ZM19.979,97.229a1.116,1.116,0,0,1,2.232,0v15.716a7.038,7.038,0,0,0-2.232,0V97.229Zm1.116,17.86a5.581,5.581,0,1,1-5.581,5.581A5.581,5.581,0,0,1,21.1,115.088ZM43.473,127.75c-.789.39-1.87.927-2.085,2.087a3.289,3.289,0,0,0,.247,2.071c.149.305.3.571.435.8l.022.039c-.4.3-.849.635-.851.637a1.116,1.116,0,0,0-.218,1.589,2.823,2.823,0,0,1,.167.243,2.985,2.985,0,0,0-1.651,1.861,3.891,3.891,0,0,0,.073,1.928c.038.168.077.336.1.516a2.891,2.891,0,0,1-.189,1.334,1.256,1.256,0,0,1-1.485.964c-.9-.185-3.795-.88-6.944-1.89a1.09,1.09,0,0,0-.192-.062,45.2,45.2,0,0,1-6.017-2.361,1.116,1.116,0,1,0-1,2,41.185,41.185,0,0,0,4.393,1.826,15.611,15.611,0,0,0-3.059,5.01l-18.974-.019c2.728-4.979,3.219-11.293,1.3-17.664a17.184,17.184,0,0,0-1.736-4.173,16.179,16.179,0,0,1-1.667-3.222,15.463,15.463,0,0,1-.819-6.97,16.344,16.344,0,0,1,6.955-11.727,18.062,18.062,0,0,1,7.462-2.758v13.812a7.8,7.8,0,1,0,6.866,14.016l3.382,4.835a1.116,1.116,0,0,0,.608.434l7.814,2.232a1.152,1.152,0,0,0,.307.043,1.116,1.116,0,0,0,.306-2.19L29.6,130.867l-3.157-4.513a7.789,7.789,0,0,0-2-12.733V99.777a36.009,36.009,0,0,1,6.975,1.537,11.534,11.534,0,0,1,4.807,2.812,13.965,13.965,0,0,1,3.023,4.832,21.874,21.874,0,0,1,.734,2.629l.039.165a11.546,11.546,0,0,0,.857,2.286c.161.35.323.7.449,1.024a2.187,2.187,0,0,1,.129.481c-.023.159-.37.473-.624.7a3.189,3.189,0,0,0-1.34,2.279,2.546,2.546,0,0,0,.359,1.307,33.756,33.756,0,0,0,3.945,6.286l.095.119a7.566,7.566,0,0,1,.618.845A3.661,3.661,0,0,1,43.473,127.75Z" transform="translate(-1 -81.601)"/><path class="a" d="M282.908,29.963a1.118,1.118,0,0,0-.7-.916l-6.791-2.716a26.564,26.564,0,0,0-2.5-6l2.892-6.739a1.115,1.115,0,0,0-.159-1.144c-.705-.87-1.5-1.753-2.371-2.635-.873-.863-1.757-1.658-2.626-2.362a1.116,1.116,0,0,0-1.143-.158l-6.739,2.893a26.481,26.481,0,0,0-6-2.5L254.059.893a1.116,1.116,0,0,0-.916-.7,32.661,32.661,0,0,0-3.537-.185,1.116,1.116,0,0,0-1.116,1.116V13.407a1.116,1.116,0,0,0,1.116,1.116,18.967,18.967,0,0,1,13.863,31.921,1.117,1.117,0,0,0-.014,1.51l8.249,9.153a1.12,1.12,0,0,0,.8.368h.025a1.118,1.118,0,0,0,.8-.333c.857-.87,1.64-1.742,2.328-2.593a1.117,1.117,0,0,0,.157-1.142l-2.892-6.739a26.559,26.559,0,0,0,2.5-6l6.791-2.716a1.118,1.118,0,0,0,.695-.916A33.826,33.826,0,0,0,282.908,29.963Zm-2.155,6.168L274.072,38.8a1.119,1.119,0,0,0-.667.761,24.276,24.276,0,0,1-2.69,6.458,1.118,1.118,0,0,0-.067,1.013l2.846,6.629q-.445.525-.937,1.057L265.783,47.2a21.2,21.2,0,0,0-15.06-34.882V2.264c.515.017,1.021.048,1.516.089l2.672,6.68a1.113,1.113,0,0,0,.761.667,24.308,24.308,0,0,1,6.456,2.69,1.116,1.116,0,0,0,1.013.068l6.628-2.845c.646.547,1.3,1.145,1.938,1.777.639.649,1.239,1.3,1.788,1.948l-2.845,6.628a1.117,1.117,0,0,0,.067,1.013,24.285,24.285,0,0,1,2.69,6.458,1.119,1.119,0,0,0,.667.761l6.68,2.672c.071.847.108,1.729.108,2.631S280.824,35.284,280.753,36.131Z" transform="translate(-216.116 -0.013)"/></g></g></g></svg>