<svg xmlns="http://www.w3.org/2000/svg" width="76.075" height="76.074" viewBox="0 0 76.075 76.074"><defs><style>.a{fill:#01cdff;}</style></defs><g transform="translate(0 -0.501)"><path class="a" d="M238.722,254.644a1.486,1.486,0,1,0,2.1,0A1.484,1.484,0,0,0,238.722,254.644Zm0,0" transform="translate(-202.882 -216.011)"/><path class="a" d="M59.466,4.848c-2.55,1.974-3.244,2.991-12.287,11.941l-5.421-.883,2.488-2.488a4.458,4.458,0,0,0-6.3-6.3l-7.026,7.026-24.573-4A5.013,5.013,0,0,0,2.6,19.148L27.085,36.882,22.5,41.467a37.283,37.283,0,0,0-4.924,6.43L6.157,44.539A4.8,4.8,0,0,0,2.069,53.1l9.362,6.481c-1.63,3.6-2.621,6.2-2.666,6.318a1.486,1.486,0,0,0,1.916,1.916c.12-.045,2.721-1.037,6.318-2.666l6.481,9.362a4.8,4.8,0,0,0,8.556-4.088L28.678,59a37.308,37.308,0,0,0,6.43-4.924l4.585-4.585L57.426,73.977a5.014,5.014,0,0,0,9.009-3.746l-4-24.571,7.026-7.026a4.458,4.458,0,1,0-6.3-6.3l-2.488,2.488L59.787,29.4c8.958-9.052,9.96-9.73,11.935-12.28l.008-.01C76.312,11.167,77.385,5.168,74.4,2.179S65.408.263,59.467,4.848ZM40.043,9.216a1.486,1.486,0,0,1,2.1,2.1l-4,4-3.614-.589ZM4.34,16.741a2.042,2.042,0,0,1,1.526-3.668l38.724,6.3L29.214,34.753ZM3.507,47.853a1.831,1.831,0,0,1,1.811-.463L16,50.531c-1.092,1.913-2.194,4.026-3.294,6.314L3.761,50.652a1.831,1.831,0,0,1-.254-2.8ZM28.723,73.068a1.832,1.832,0,0,1-2.8-.253L19.73,63.869c2.289-1.1,4.4-2.2,6.314-3.293l3.141,10.681a1.831,1.831,0,0,1-.461,1.811ZM65.259,34.43a1.486,1.486,0,0,1,2.1,2.1l-5.513,5.513-.588-3.614ZM63.5,70.708a2.042,2.042,0,0,1-3.668,1.527L41.821,47.362,57.2,31.985ZM33.007,51.973a37.419,37.419,0,0,1-7.112,5.249,110.1,110.1,0,0,1-13.034,6.493A108.685,108.685,0,0,1,19.5,50.442a36.784,36.784,0,0,1,5.1-6.874C60.9,7.36,58.747,9.228,60.949,7.466a7.716,7.716,0,0,1,6.092,2.067,7.717,7.717,0,0,1,2.067,6.092c-1.766,2.208.08.078-36.1,36.348ZM71.652,11.721a9.806,9.806,0,0,0-6.8-6.8c2.15-1.091,5.772-2.312,7.44-.644,1.318,1.318.99,4.22-.644,7.441Zm0,0" transform="translate(0)"/><path class="a" d="M271.215,198.076l-4.2,4.2a1.486,1.486,0,1,0,2.1,2.1l4.2-4.2a1.486,1.486,0,0,0-2.1-2.1Zm0,0" transform="translate(-226.969 -167.848)"/><path class="a" d="M327.778,141.506l-4.2,4.2a1.486,1.486,0,1,0,2.1,2.1l4.2-4.2a1.486,1.486,0,1,0-2.1-2.1Zm0,0" transform="translate(-275.127 -119.683)"/></g></svg>