<svg xmlns="http://www.w3.org/2000/svg" width="62.591" height="74.997" viewBox="0 0 62.591 74.997"><defs><style>.a{fill:#00c4f5;}</style></defs><g transform="translate(-42.348)"><g transform="translate(69.106 31.44)"><path class="a" d="M229.874,214.648a4.454,4.454,0,0,0-3.374,1.2,4.7,4.7,0,0,0-1.477,3.423v5.089a1.589,1.589,0,0,0,1.587,1.587h5.938a1.56,1.56,0,0,0,1.559-1.559v-5.212A4.555,4.555,0,0,0,229.874,214.648Zm2.035,9.1H227.22v-4.478a2.491,2.491,0,0,1,.78-1.818,2.278,2.278,0,0,1,1.725-.616,2.351,2.351,0,0,1,2.185,2.339Z" transform="translate(-225.023 -214.638)"/></g><g transform="translate(81.678 31.44)"><path class="a" d="M315.7,214.647a4.448,4.448,0,0,0-3.374,1.2,4.7,4.7,0,0,0-1.477,3.423v5.062a1.616,1.616,0,0,0,1.614,1.614H318.4a1.539,1.539,0,0,0,1.537-1.537v-5.233A4.555,4.555,0,0,0,315.7,214.647Zm2.035,9.1h-4.689v-4.478h0a2.492,2.492,0,0,1,.78-1.818,2.28,2.28,0,0,1,1.724-.616,2.351,2.351,0,0,1,2.185,2.339Z" transform="translate(-310.849 -214.636)"/></g><g transform="translate(56.481 31.44)"><g transform="translate(0)"><path class="a" d="M146.438,215.85a4.449,4.449,0,0,0-3.374-1.2h0a4.555,4.555,0,0,0-4.233,4.531v5.252a1.521,1.521,0,0,0,1.519,1.519H146.4a1.522,1.522,0,0,0,1.52-1.52v-5.155A4.7,4.7,0,0,0,146.438,215.85Zm-.72,7.9h-4.689v-4.573a2.351,2.351,0,0,1,2.185-2.339h0a2.276,2.276,0,0,1,1.724.616,2.491,2.491,0,0,1,.78,1.818Z" transform="translate(-138.832 -214.637)"/></g></g><g transform="translate(81.678 56.099)"><path class="a" d="M315.7,382.99h0a4.581,4.581,0,0,0-4.851,4.626v5.062a1.616,1.616,0,0,0,1.614,1.614H318.4a1.539,1.539,0,0,0,1.537-1.537v-5.233A4.554,4.554,0,0,0,315.7,382.99Zm2.036,9.1h-4.689v-4.478a2.491,2.491,0,0,1,.78-1.817,2.332,2.332,0,0,1,3.909,1.723Z" transform="translate(-310.849 -382.979)"/></g><g transform="translate(69.838 61.721)"><path class="a" d="M231.118,421.363a1.1,1.1,0,0,0-1.1,1.1v1.5a1.1,1.1,0,1,0,2.2,0v-1.5A1.1,1.1,0,0,0,231.118,421.363Z" transform="translate(-230.019 -421.363)"/></g><g transform="translate(62.636 61.721)"><g transform="translate(0)"><path class="a" d="M181.948,421.363a1.1,1.1,0,0,0-1.1,1.1v1.5a1.1,1.1,0,1,0,2.2,0v-1.5A1.1,1.1,0,0,0,181.948,421.363Z" transform="translate(-180.849 -421.363)"/></g></g><g transform="translate(42.348)"><g transform="translate(0)"><path class="a" d="M101.863,68.844H97.476V50.623a3.074,3.074,0,0,0,0-5.938V25.549a3.075,3.075,0,0,0,2.278-3.043,1.406,1.406,0,0,0-.01-.173c-.007-.092-.018-.18-.035-.276a3.078,3.078,0,0,0-2.821-2.544L93.825,11.55a2.644,2.644,0,0,0-2.393-1.863H88.784a1.1,1.1,0,0,0,0,2.2h2.648c.045,0,.216.126.343.454L94.531,19.5H52.51c2.385-5.947,2.739-7.581,3.1-7.62h1.647V16.6a1.1,1.1,0,0,0,1.1,1.1h9.261a1.1,1.1,0,0,0,1.1-1.1V11.884H83.656a1.1,1.1,0,1,0,0-2.2H68.714V6.042A3.075,3.075,0,0,0,67.906,0H58.229a3.075,3.075,0,0,0-.974,5.992V9.687H55.608a2.644,2.644,0,0,0-2.393,1.863l-3.074,7.992a3.073,3.073,0,0,0-.33,6.008v9.384a1.1,1.1,0,1,0,2.2,0V29.1h43.27V44.578H52.009V40.06a1.1,1.1,0,1,0-2.2,0v4.624a3.074,3.074,0,0,0,0,5.938V68.844H45.424a3.076,3.076,0,0,0,0,6.153H83.656a1.1,1.1,0,0,0,0-2.2H45.424a.879.879,0,0,1,0-1.758h56.438a.879.879,0,0,1,0,1.758H88.783a1.1,1.1,0,0,0,0,2.2h13.079a3.076,3.076,0,1,0,0-6.153ZM66.517,15.5H59.452V6.153h7.064ZM57.373,2.882a.89.89,0,0,1,.856-.685h9.678a.879.879,0,0,1,0,1.758H58.229A.878.878,0,0,1,57.373,2.882ZM50.607,23.46a.877.877,0,0,1-.854-1.08.889.889,0,0,1,.854-.679H96.68a.879.879,0,0,1,0,1.758H50.607Zm1.4,3.444V25.657h43.27V26.9ZM66.237,68.844H58.678V58.3h7.558Zm9.756,0H68.434V58.3h7.558Zm19.286,0H78.19V57.87A1.774,1.774,0,0,0,76.418,56.1h-18.1a1.838,1.838,0,0,0-1.836,1.836v10.91H52.008V54.175h43.27v14.67Zm0-16.867H52.009V50.731h43.27v1.247Zm1.4-3.444H50.607a.876.876,0,0,1-.875-.945c.07-.95,1.134-.8,1.178-.813H96.377c.107.027,1.122-.162,1.181.9A.88.88,0,0,1,96.68,48.533Z" transform="translate(-42.348)"/></g></g></g></svg>