<svg xmlns="http://www.w3.org/2000/svg" width="68.977" height="67.932" viewBox="0 0 68.977 67.932"><defs><style>.a{fill:#03cdff;}</style></defs><g transform="translate(-0.001 -0.5)"><path class="a" d="M67.348,225.645a6.248,6.248,0,0,0-3.854-1.615,5.516,5.516,0,0,0-4.238,1.613l-7.67,7.589a5.092,5.092,0,0,0-.519-.74,4.972,4.972,0,0,0-3.885-1.737H36.446a22.021,22.021,0,0,1-5.87-.78A14.443,14.443,0,0,0,17.1,232.827a19.6,19.6,0,0,0-3.509,3.766l-1.925-1.868a1.368,1.368,0,0,0-.949-.385h-.009a1.371,1.371,0,0,0-.973.418L.38,244.472A1.358,1.358,0,0,0,.422,246.4L16.25,261.467a1.356,1.356,0,0,0,1.908-.035l9.271-9.512a1.364,1.364,0,0,0-.027-1.931l-.807-.783L28.442,249a29.361,29.361,0,0,1,3.38-.2H48.157a12.264,12.264,0,0,0,6.7-1.726l.044-.029a9.043,9.043,0,0,0,1.731-1.571l11.008-12.951a4.74,4.74,0,0,0-.294-6.881Zm-50.2,32.932L3.282,245.372l7.471-7.756L24.541,251Zm48.424-27.809L54.566,243.719a6.343,6.343,0,0,1-1.191,1.086,9.65,9.65,0,0,1-5.217,1.285H31.821a32.038,32.038,0,0,0-3.687.214l-4.062.456-8.5-8.253a16.924,16.924,0,0,1,3.252-3.577,11.68,11.68,0,0,1,11.033-2.338,24.731,24.731,0,0,0,6.593.878H47.183a2.451,2.451,0,0,1,2.443,2.657,2.939,2.939,0,0,1-.635,1.883,2.306,2.306,0,0,1-1.85.776H37.794a1.357,1.357,0,0,0,0,2.714H47.14a5.032,5.032,0,0,0,3.918-1.733,5.573,5.573,0,0,0,1.278-3.457l8.833-8.741a3.177,3.177,0,0,1,4.338.072,2.044,2.044,0,0,1,.066,3.128Zm0,0" transform="translate(0 -193.41)"/><path class="a" d="M231.916,334.269a1.357,1.357,0,1,0-2.642.619l.013.055a1.358,1.358,0,0,0,1.32,1.047,1.374,1.374,0,0,0,.311-.036,1.357,1.357,0,0,0,1.011-1.631Zm0,0" transform="translate(-198.354 -287.897)"/><path class="a" d="M46.976,29.128H60.2a3.265,3.265,0,0,0,1.928-.628,3.265,3.265,0,0,0,1.928.628H77.276A3.265,3.265,0,0,0,79.2,28.5a3.265,3.265,0,0,0,1.928.628H94.354a3.289,3.289,0,0,0,3.285-3.285V19.677a7.115,7.115,0,0,0-3.87-6.361,7.827,7.827,0,1,0-12.052,0A7.108,7.108,0,0,0,79.2,15.47a7.094,7.094,0,0,0-2.513-2.154,7.827,7.827,0,1,0-12.052,0,7.094,7.094,0,0,0-2.513,2.154,7.1,7.1,0,0,0-2.513-2.155,7.826,7.826,0,1,0-12.052,0,7.116,7.116,0,0,0-3.87,6.361v6.165a3.289,3.289,0,0,0,3.285,3.285ZM87.744,3.214a5.113,5.113,0,1,1-5.113,5.113A5.119,5.119,0,0,1,87.744,3.214Zm-3.525,12.1a7.8,7.8,0,0,0,7.05,0,4.409,4.409,0,0,1,3.657,4.365v6.166a.572.572,0,0,1-.572.572H81.133a.572.572,0,0,1-.571-.572V19.677A4.409,4.409,0,0,1,84.219,15.312ZM70.666,3.214a5.113,5.113,0,1,1-5.113,5.113A5.119,5.119,0,0,1,70.666,3.214Zm-3.525,12.1a7.8,7.8,0,0,0,7.05,0,4.409,4.409,0,0,1,3.657,4.365v6.166a.572.572,0,0,1-.572.572H64.055a.572.572,0,0,1-.572-.572V19.677A4.41,4.41,0,0,1,67.141,15.312ZM53.587,3.214a5.113,5.113,0,1,1-5.113,5.113A5.119,5.119,0,0,1,53.587,3.214ZM46.4,19.677a4.41,4.41,0,0,1,3.657-4.365,7.8,7.8,0,0,0,7.05,0,4.409,4.409,0,0,1,3.657,4.365v6.166a.572.572,0,0,1-.572.572H46.976a.572.572,0,0,1-.572-.572Zm0,0" transform="translate(-37.804)"/></g></svg>