<svg xmlns="http://www.w3.org/2000/svg" width="32" height="32" viewBox="0 0 32 32">
    <g fill="none" fill-rule="evenodd">
        <path fill="#333" d="M10.414 17L13 19.587v3.827l-2 2.02 5.002 3L21 25.414l-2-2v-3.827L21.586 17h4.828L29 19.587v3.827l-2 2.02 5 3V32H0v-3.566l5-3.02-2-2v-3.827L5.585 17h4.828zm15.173 2h-3.172L21 20.416v2.17l2 2v1.982l-5 3V30h12v-.434l-5-3v-1.981l2-2v-2.171L25.587 19zm-16 0H6.413L5 20.416v2.17l2 2v1.982l-5 3V30h12v-.434l-5-3v-1.981l2-2v-2.171L9.585 19zM17 21v2h-2v-2h2zM8.293 3.293l1.414 1.414L6 8.414V15H4V7.586l4.293-4.293zm15.414 0L28 7.586V15h-2V8.414l-3.707-3.707 1.414-1.414z"/>
        <path fill="#F25822" d="M13.585 0L11 2.587v3.827l2 2-4.998 3.02V15h16v-3.566l-5.002-3 2-2.02V2.587L18.416 0h-4.83zM10 12.567l5.002-3V7.586l-2.002-2V3.415L14.415 2h3.173L19 3.415v2.17l-2 2v1.982l5 3V13H10v-.434z"/>
    </g>
</svg>
