<svg xmlns="http://www.w3.org/2000/svg" width="32" height="32" viewBox="0 0 32 32">
    <g fill="none" fill-rule="evenodd">
        <path fill="#F25822" d="M24 16c4.411 0 8 3.589 8 8s-3.589 8-8 8-8-3.589-8-8 3.589-8 8-8zm0 2c-3.309 0-6 2.691-6 6s2.691 6 6 6 6-2.691 6-6-2.691-6-6-6zm2.293 3.293l1.414 1.414L23 27.414l-2.707-2.707 1.414-1.414L23 24.586l3.293-3.293z"/>
        <path fill="#333" d="M16 32H0v-1c0-3.194 3.446-4.618 6.486-5.874C8.706 24.21 11 23.262 11 22c0-.59-.374-1.176-.893-1.987C9.474 19.02 8.703 17.815 8.21 16H8c-1.554 0-2.367-2.073-2.367-4.122 0-1.574.509-2.736 1.355-3.234C7.177 3.846 11.146 0 16 0c4.853 0 8.824 3.846 9.012 8.645.277.161.522.393.721.689.857 1.268.762 3.604.183 5.04l-1.855-.748c.514-1.276.286-3.058-.054-3.252h-1.048l.051-1.196c.004-.059.009-.118.009-.178 0-3.86-3.149-7-7.019-7S8.981 5.14 8.981 9c0 .06.005.119.009.178l.058 1.198H8c-.061.029-.293.329-.354 1.136-.085 1.142.248 2.204.483 2.488h1.687l.163.8c.391 1.91 1.147 3.093 1.814 4.136C12.414 19.908 13 20.826 13 22c0 2.599-2.923 3.807-5.75 4.975-2.08.86-4.218 1.743-4.969 3.025H16v2z"/>
    </g>
</svg>
