<svg xmlns="http://www.w3.org/2000/svg" width="50" height="50" viewBox="0 0 50 50">
    <g fill="none" fill-rule="evenodd">
        <path fill="#333" fill-rule="nonzero" d="M24.902 0C35.108 0 44.128 6.272 48.01 15.37A24.651 24.651 0 0 1 50 25.097C50 38.962 38.564 50 24.902 50 11.138 50 0 38.861 0 25.098 0 11.45 11.022 0 24.902 0zm1.465 14.673v8.96h5.563a5.257 5.257 0 0 0 .056 2.93h-5.619v5.367a5.257 5.257 0 0 0-2.93.056v-5.424h-8.765c.086 2.731.412 5.364.958 7.799 1.636.367 3.38.642 5.2.808l-.724-.073a5.237 5.237 0 0 0-.258 2.92 44.26 44.26 0 0 1-3.346-.486c1.148 3.47 3.457 8.125 6.936 9.292v-4.808a5.257 5.257 0 0 0 2.93.057v4.76c3.507-1.14 5.906-5.828 7.09-9.327a44.374 44.374 0 0 1-3.302.49A5.32 5.32 0 0 0 30.25 37c0-.68-.129-1.328-.364-1.924a40.22 40.22 0 0 0 4.467-.747c.376-1.64.65-3.371.815-5.159l-.074.723a5.237 5.237 0 0 0 2.92.26 42.721 42.721 0 0 1-.487 3.295c3.453-1.148 8.135-3.483 9.294-6.905H42.02a5.257 5.257 0 0 0 .05-2.91h4.751c-1.167-3.466-5.823-5.841-9.32-7.036.202 1.058.367 2.143.491 3.247a5.278 5.278 0 0 0-2.92.271 38.683 38.683 0 0 0-.763-4.427c-2.485-.58-5.168-.925-7.942-1.015zM4.23 32.545a22.084 22.084 0 0 0 13.228 13.226c-1.787-2.272-3.248-5.357-4.25-8.996-3.153-.87-6.426-2.227-8.978-4.23zm41.549-.057c-2.568 2.011-5.878 3.38-9.022 4.254-.887 3.15-2.282 6.448-4.34 9.028 6.207-2.224 11.135-7.12 13.362-13.282zM11.74 26.563H3.169c.914 2.802 4.392 5.314 9.29 6.928-.4-2.178-.647-4.501-.718-6.928zM23.438 3.177c-1.967.657-3.858 2.609-5.382 5.555a5.214 5.214 0 0 0-2.791-.975c.658-1.33 1.387-2.503 2.174-3.51C11.333 6.48 6.478 11.367 4.253 17.52c1.633-1.313 3.694-2.462 6.108-3.375l-.444.174a5.248 5.248 0 0 0 1.532 2.548c-4.403 1.655-7.437 4.153-8.28 6.766h8.572c.068-2.287.29-4.587.649-6.681l-.09.551a5.226 5.226 0 0 0 2.85.745 46.544 46.544 0 0 0-.478 5.385h8.765v-8.96c-1.2.039-2.388.123-3.554.254a5.275 5.275 0 0 0 .264-2.97 46.21 46.21 0 0 1 3.29-.214zm8.92 1.044c2.048 2.573 3.462 5.889 4.363 9.067 3.175.902 6.49 2.318 9.056 4.35A22.28 22.28 0 0 0 32.36 4.22zm-5.99-1.048v8.57c2.422.074 4.787.332 7.033.761-1.663-4.884-4.226-8.404-7.034-9.331z"/>
        <path fill="#F25822" d="M25 34a3 3 0 1 1 0 6 3 3 0 0 1 0-6zm12-12a3 3 0 1 1 0 6 3 3 0 0 1 0-6zM15 10a3 3 0 1 1 0 6 3 3 0 0 1 0-6z"/>
    </g>
</svg>
