<svg xmlns="http://www.w3.org/2000/svg" width="50" height="50" viewBox="0 0 50 50">
    <g fill="none" fill-rule="nonzero">
        <path fill="#333" d="M44.613 0c2.898 0 5.269 2.3 5.383 5.17l.004.217v39.226c0 2.898-2.3 5.269-5.171 5.383l-.216.004H5.387C2.49 50 .118 47.7.004 44.829L0 44.613V5.387C0 2.49 2.3.118 5.171.004L5.387 0h39.226zm2.457 15.482H2.93v29.13a2.46 2.46 0 0 0 2.296 2.453l.161.005h39.226a2.46 2.46 0 0 0 2.452-2.296l.005-.161V15.482zM44.613 2.93H5.387a2.46 2.46 0 0 0-2.452 2.296l-.005.161v7.165h44.14V5.387a2.46 2.46 0 0 0-2.457-2.457zM40.69 6.276a1.472 1.472 0 0 1 1.465 1.465 1.471 1.471 0 0 1-1.465 1.465c-.386 0-.764-.156-1.037-.43a1.475 1.475 0 0 1-.428-1.035c0-.386.156-.764.428-1.036.273-.272.65-.429 1.037-.429zm-7.846 0c.386 0 .763.157 1.036.43.272.271.428.65.428 1.035 0 .386-.156.763-.428 1.035-.273.274-.65.43-1.036.43a1.47 1.47 0 0 1-1.465-1.465c0-.386.157-.764.43-1.036.272-.272.649-.429 1.035-.429zm-7.845 0c.386 0 .763.157 1.036.43.272.271.429.65.429 1.035 0 .385-.157.763-.429 1.035-.273.274-.65.43-1.036.43s-.763-.156-1.036-.43a1.476 1.476 0 0 1-.429-1.035c0-.386.157-.764.429-1.036.273-.272.65-.429 1.036-.429zm-7.845 0a1.465 1.465 0 0 1 0 2.93H9.31a1.465 1.465 0 0 1 0-2.93z"/>
        <path fill="#F25822" d="M34.596 22.28H16.919v-1.464c0-.81-.656-1.465-1.465-1.465h-2.929a1.465 1.465 0 0 0 0 2.93h1.465v9.518c0 1.491.64 2.836 1.66 3.773a4.585 4.585 0 0 0-1.138 3.026 4.608 4.608 0 0 0 4.603 4.603 4.608 4.608 0 0 0 4.603-4.603c0-.59-.113-1.154-.316-1.673h3.979a4.577 4.577 0 0 0-.316 1.673 4.608 4.608 0 0 0 4.602 4.603 4.608 4.608 0 0 0 4.603-4.603 4.58 4.58 0 0 0-1.026-2.893c1.159-.846 2.05-2.065 2.393-3.441l1.153-4.612c.343-1.373.083-2.745-.715-3.766-.797-1.02-2.065-1.606-3.48-1.606zM20.788 38.598c0 .923-.75 1.673-1.673 1.673s-1.673-.75-1.673-1.673.75-1.673 1.673-1.673 1.673.75 1.673 1.673zm12.552 0c0 .923-.75 1.673-1.673 1.673-.922 0-1.673-.75-1.673-1.673s.75-1.673 1.673-1.673 1.673.75 1.673 1.673zm2.608-11.657l-1.153 4.612c-.325 1.301-1.787 2.442-3.128 2.442H19.115A2.199 2.199 0 0 1 16.92 31.8v-6.59h17.677c.513 0 .928.171 1.17.48.242.31.306.754.182 1.252z"/>
    </g>
</svg>
