<svg xmlns="http://www.w3.org/2000/svg" width="32" height="32" viewBox="0 0 32 32">
    <g fill="none" fill-rule="evenodd">
        <path fill="#333" d="M0 32v-2h2V16h2v14h3V16h11v2H9v12h23v2H0zM32 6v2H20v2c0 2.206-1.794 4-4 4a3.992 3.992 0 0 1-3-1.358 3.992 3.992 0 0 1-6 0A3.985 3.985 0 0 1 4 14c-2.206 0-4-1.794-4-4V6h32zM6 8H2v2c0 1.103.897 2 2 2 1.102 0 2-.897 2-2V8zm6 0H8v2c0 1.103.897 2 2 2 1.102 0 2-.897 2-2V8zm6 0h-4v2c0 1.103.897 2 2 2 1.102 0 2-.897 2-2V8zm12-8v4h-2V2H4v2H2V0h28z"/>
        <path fill="#F25822" d="M26 10c3.309 0 6 2.691 6 6 0 2.987-4.648 9.801-5.177 10.568L26 27.76l-.823-1.192C24.647 25.801 20 18.987 20 16c0-3.309 2.691-6 6-6zm0 2c-2.206 0-4 1.794-4 4 0 1.537 2.199 5.427 4 8.201 1.801-2.774 4-6.664 4-8.201 0-2.206-1.794-4-4-4zm0 3a1 1 0 1 1 0 2 1 1 0 0 1 0-2z"/>
    </g>
</svg>
