<svg xmlns="http://www.w3.org/2000/svg" width="65.983" height="63.783" viewBox="0 0 65.983 63.783"><defs><style>.a{fill:#03cdff;}</style></defs><g transform="translate(0 -7.982)"><g transform="translate(0 28.931)"><path class="a" d="M56.064,160.017H.945A.944.944,0,0,0,0,160.96v26.459a.944.944,0,0,0,.943.945H38.425a.945.945,0,1,0,0-1.889H1.889V161.906H55.117v2.362a.944.944,0,0,0,.943.945h0a.944.944,0,0,0,.945-.943v-3.309A.944.944,0,0,0,56.064,160.017Z" transform="translate(0 -160.017)"/></g><g transform="translate(2.204 14.601)"><g transform="translate(0 0)"><path class="a" d="M63.446,65.963,19.352,56.042a.945.945,0,0,0-1.13.717l-2.2,9.921a.945.945,0,0,0,1.845.41l2-9,43.17,9.713a.891.891,0,0,0,.208.023.945.945,0,0,0,.206-1.866Z" transform="translate(-15.995 -56.019)"/></g></g><g transform="translate(14.313 7.982)"><g transform="translate(0 0)"><path class="a" d="M133.863,19.079,107.406,8.055a.948.948,0,0,0-1.213.451l-2.2,4.409a.948.948,0,1,0,1.668.9q.015-.027.028-.055v0l1.809-3.62,25.64,10.683a.947.947,0,1,0,.73-1.748Z" transform="translate(-103.875 -7.982)"/></g></g><g transform="translate(35.275 33.341)"><g transform="translate(0 0)"><path class="a" d="M265.694,192.017h-8.749a.945.945,0,1,0,0,1.889h8.749a.945.945,0,0,0,0-1.889Z" transform="translate(-256 -192.017)"/></g></g><g transform="translate(17.7 33.404)"><path class="a" d="M138.157,192.473a9.7,9.7,0,1,0,9.7,9.7A9.7,9.7,0,0,0,138.157,192.473Zm0,17.638a7.937,7.937,0,1,1,7.937-7.937A7.937,7.937,0,0,1,138.157,210.111Z" transform="translate(-128.456 -192.473)"/></g><g transform="translate(41.732 36.49)"><g transform="translate(0 0)"><path class="a" d="M314.982,214.873c-5.842,0-12.126,1.38-12.126,4.409v26.456c0,3.029,6.283,4.409,12.126,4.409s12.126-1.38,12.126-4.409V219.282C327.108,216.253,320.824,214.873,314.982,214.873Zm9.921,30.849c-.166.612-3.472,2.221-9.921,2.221s-9.755-1.609-9.921-2.2v-1.733c2.346,1.182,6.221,1.733,9.921,1.733s7.576-.557,9.921-1.734Zm0-4.409c-.166.612-3.472,2.221-9.921,2.221s-9.755-1.609-9.921-2.2V239.6c2.346,1.182,6.221,1.733,9.921,1.733s7.576-.557,9.921-1.734Zm0-4.409c-.166.612-3.472,2.221-9.921,2.221s-9.755-1.609-9.921-2.2v-1.733c2.346,1.182,6.221,1.733,9.921,1.733s7.576-.557,9.921-1.734Zm0-4.409c-.166.612-3.472,2.221-9.921,2.221s-9.755-1.609-9.921-2.2v-1.733c2.346,1.182,6.221,1.733,9.921,1.733s7.576-.557,9.921-1.734Zm0-4.409c-.166.612-3.472,2.221-9.921,2.221s-9.755-1.609-9.921-2.2v-1.733c2.346,1.176,6.221,1.733,9.921,1.733s7.576-.557,9.921-1.734Zm0-4.409c-.166.612-3.472,2.221-9.921,2.221s-9.755-1.609-9.921-2.2v-1.733c2.346,1.176,6.221,1.733,9.921,1.733s7.576-.557,9.921-1.734Zm-9.921-2.188c-6.439,0-9.744-1.605-9.921-2.185V219.3c.177-.614,3.482-2.218,9.921-2.218,6.394,0,9.7,1.581,9.921,2.2C324.682,219.906,321.375,221.487,314.982,221.487Z" transform="translate(-302.856 -214.873)"/></g></g><g transform="translate(4.408 33.341)"><path class="a" d="M46.166,209.653H37.833l-3.951-4.321v-7.165l4.363-4.261h7.92a.945.945,0,0,0,0-1.889h-8.3a.946.946,0,0,0-.661.268l-4.924,4.8a1.184,1.184,0,0,0-.284.772v7.84a.945.945,0,0,0,.247.637l4.479,4.9a.945.945,0,0,0,.7.308h8.75a.945.945,0,0,0,0-1.889Z" transform="translate(-31.992 -192.017)"/></g><g transform="translate(24.094 38.144)"><path class="a" d="M178.714,230.731h-1.1c-.343,0-.551-.192-.551-.276s.208-.276.551-.276h2.756a1.1,1.1,0,0,0,0-2.2h-1.1a1.1,1.1,0,0,0-2.2,0v.05a2.566,2.566,0,0,0-2.2,2.425,2.632,2.632,0,0,0,2.756,2.486h1.1c.343,0,.551.192.551.276s-.208.276-.551.276h-2.756a1.1,1.1,0,0,0,0,2.2h1.1a1.1,1.1,0,0,0,2.2,0v-.05a2.566,2.566,0,0,0,2.2-2.425A2.632,2.632,0,0,0,178.714,230.731Z" transform="translate(-174.856 -226.873)"/></g></g></svg>