<svg xmlns="http://www.w3.org/2000/svg" width="130" height="126" viewBox="0 0 130 126">
    <g fill="none" fill-rule="evenodd">
        <path fill="#D5D6DB" fill-rule="nonzero" d="M126.653 118H3.347C1.5 118 0 119.23 0 120.747v2.506C0 124.77 1.499 126 3.347 126h123.306c1.848 0 3.347-1.23 3.347-2.747v-2.506c0-1.517-1.499-2.747-3.347-2.747z"/>
        <path fill="#E1E6E9" fill-rule="nonzero" d="M116.999 96l.001 11h.306c1.616 0 2.896 1.364 2.668 2.873l-.03.157-.02.09c-.26 1.067-1.27 1.803-2.4 1.874l-.18.006h5.773c.985 0 1.794.583 1.876 1.326l.007.125v3.098c0 .76-.757 1.382-1.72 1.446l-.163.005H6.883c-.985 0-1.794-.583-1.876-1.326L5 116.55v-3.098c0-.76.757-1.382 1.72-1.446l.163-.005h5.773c-1.202 0-2.307-.757-2.58-1.88a4.712 4.712 0 0 1-.02-.09c-.334-1.518.88-2.933 2.472-3.025l.166-.005H13l-.001-11h14L27 107h.306c1.616 0 2.896 1.364 2.668 2.873l-.03.157-.02.09c-.26 1.067-1.27 1.803-2.4 1.874l-.18.006h15.312c-1.202 0-2.307-.757-2.58-1.88a4.712 4.712 0 0 1-.02-.09c-.334-1.518.88-2.933 2.472-3.025l.166-.005H43l-.001-11h14L57 107h.306c1.616 0 2.896 1.364 2.668 2.873l-.03.157-.02.09c-.26 1.067-1.27 1.803-2.4 1.874l-.18.006h15.312c-1.202 0-2.307-.757-2.58-1.88a4.712 4.712 0 0 1-.02-.09c-.334-1.518.88-2.933 2.472-3.025l.166-.005H73l-.001-11h14L87 107h.306c1.616 0 2.896 1.364 2.668 2.873l-.03.157-.02.09c-.26 1.067-1.27 1.803-2.4 1.874l-.18.006h15.312c-1.202 0-2.307-.757-2.58-1.88a4.726 4.726 0 0 1-.02-.09c-.334-1.518.88-2.933 2.472-3.025l.166-.005H103l-.001-11h14zM27.306 50c1.672 0 2.983 1.46 2.639 3.03a5.42 5.42 0 0 1-.021.09c-.26 1.067-1.27 1.803-2.4 1.874l-.18.006H27l-.001 9h-14L13 55h-.344c-1.142 0-2.196-.683-2.533-1.715l-.047-.166a4.712 4.712 0 0 1-.02-.09c-.334-1.517.88-2.932 2.472-3.024l.166-.005h14.612zm30 0c1.672 0 2.983 1.46 2.639 3.03a5.42 5.42 0 0 1-.021.09c-.26 1.067-1.27 1.803-2.4 1.874l-.18.006H57l-.001 9h-14L43 55h-.344c-1.142 0-2.196-.683-2.533-1.715l-.047-.166a4.712 4.712 0 0 1-.02-.09c-.334-1.517.88-2.932 2.472-3.024l.166-.005h14.612zm30 0c1.672 0 2.983 1.46 2.639 3.03a5.42 5.42 0 0 1-.021.09c-.26 1.067-1.27 1.803-2.4 1.874l-.18.006H87l-.001 9h-14L73 55h-.344c-1.142 0-2.196-.683-2.533-1.715l-.047-.166a4.712 4.712 0 0 1-.02-.09c-.334-1.517.88-2.932 2.472-3.024l.166-.005h14.612zm30 0c1.672 0 2.983 1.46 2.639 3.03l-.021.09c-.26 1.067-1.27 1.803-2.4 1.874l-.18.006H117l-.001 9h-14l.001-9h-.344c-1.142 0-2.196-.683-2.533-1.715l-.047-.166a4.726 4.726 0 0 1-.02-.09c-.334-1.517.88-2.932 2.472-3.024l.166-.005h14.612z"/>
        <path fill="#D5D6DB" fill-rule="nonzero" d="M129.535 47.808L65.728.255a1.167 1.167 0 0 0-1.456 0L.465 47.808C-.434 48.521.057 50 1.194 50h127.612c1.137 0 1.628-1.479.729-2.192z"/>
        <path fill="#E4E5E9" fill-rule="nonzero" d="M17 44L65 8l48 36z"/>
        <path fill="#F8D24D" fill-rule="nonzero" d="M65.05 38.911v-2.123c-1.062-.134-1.926-.371-2.59-.714-.666-.342-1.24-.894-1.724-1.657-.485-.763-.766-1.695-.845-2.796l2.137-.4c.166 1.14.457 1.977.874 2.512.598.755 1.314 1.176 2.149 1.262v-6.76c-.874-.164-1.767-.502-2.68-1.014a3.924 3.924 0 0 1-1.565-1.569c-.366-.668-.549-1.427-.549-2.276 0-1.51.536-2.733 1.606-3.669.716-.629 1.779-1.014 3.188-1.156v-1.014h1.251v1.014c1.236.118 2.216.48 2.94 1.085.929.771 1.488 1.829 1.677 3.174l-2.196.33c-.126-.834-.388-1.473-.786-1.917-.397-.444-.942-.737-1.635-.879v6.122c1.07.268 1.78.476 2.125.626.662.29 1.2.644 1.618 1.061.417.417.738.913.962 1.487.224.574.337 1.195.337 1.863 0 1.471-.469 2.698-1.405 3.68-.937.984-2.15 1.51-3.637 1.582v2.146h-1.251zm0-18.59c-.826.125-1.477.456-1.953.99a2.762 2.762 0 0 0-.714 1.9c0 .723.202 1.329.608 1.816.405.488 1.092.877 2.06 1.168v-5.874zm1.252 14.674a3.151 3.151 0 0 0 2.049-1.073c.539-.614.808-1.373.808-2.277 0-.77-.19-1.39-.572-1.858-.382-.468-1.143-.887-2.285-1.256v6.464z"/>
        <path fill="#F25822" d="M25.303 70c1.97 0 3.743.476 5.321 1.424l-1.677 3.952c-1.412-.78-2.612-1.172-3.601-1.172-.527 0-.934.126-1.222.374-.282.248-.427.61-.427 1.09 0 .436.14.842.416 1.22.276.377.802.881 1.577 1.511.97.773 1.694 1.585 2.164 2.438.476.848.713 1.822.713 2.923 0 1.973-.609 3.504-1.823 4.604C25.532 89.459 23.838 90 21.67 90c-.91 0-1.766-.107-2.576-.321-.81-.227-1.508-.536-2.093-.953v-4.658c.692.471 1.488.864 2.384 1.185.896.316 1.709.48 2.433.48.613 0 1.074-.143 1.389-.413.313-.272.471-.667.471-1.172 0-.23-.05-.464-.149-.672-.1-.21-.238-.418-.421-.627-.183-.212-.67-.67-1.459-1.376-.968-.839-1.67-1.683-2.106-2.554-.438-.87-.656-1.822-.656-2.862 0-1.164.269-2.21.81-3.137a5.523 5.523 0 0 1 2.292-2.155c.985-.512 2.09-.765 3.315-.765zm36.658 0c2.167 0 4.135.58 5.903 1.744l-1.815 4.053c-.759-.486-1.46-.852-2.099-1.096a5.242 5.242 0 0 0-1.986-.377c-.884 0-1.684.344-2.393 1.038-.712.692-1.269 1.645-1.677 2.859-.405 1.218-.607 2.53-.607 3.953 0 1.188.227 2.072.685 2.66.458.582 1.116.873 1.978.873.675 0 1.368-.087 2.06-.266.697-.183 1.514-.497 2.456-.924v4.295c-1.663.8-3.465 1.188-5.405 1.188-2.127 0-3.767-.658-4.916-1.966-1.15-1.314-1.722-3.177-1.722-5.59 0-2.358.412-4.522 1.247-6.49.827-1.966 1.961-3.45 3.385-4.452 1.429-1 3.062-1.502 4.906-1.502zm-16.804 0l-.88 4.219h-3.952L37.38 89.09h-4.856l2.94-14.872h-3.931L32.387 70h12.77zm7.266 0L48.45 89.09H43.34L47.313 70h5.11zm22.667 0c2.062 0 3.646.495 4.741 1.483 1.112.987 1.658 2.402 1.658 4.236 0 2.194-.676 3.918-2.045 5.163-1.365 1.253-3.234 1.875-5.602 1.875h-1.027l-1.194 6.334h-4.665L70.639 70h4.451zm20.292 0l1.547 19.09h-4.797l-.124-3.575h-5.644l-1.579 3.576h-5.113L89.044 70h6.338zm9.29 0l1.116 7.077L109.672 70h5.423l-7.61 11.683-1.506 7.408h-4.872l1.495-7.408L99.654 70h5.018zm-13.007 3.067c-.2.747-.455 1.472-.768 2.168l-2.733 6.205h3.692l-.22-5.537-.021-1.124c0-.653.015-1.224.05-1.712zm-16.446 1.098h-.705l-.857 4.416h.754c.722 0 1.309-.255 1.754-.764.445-.511.666-1.157.666-1.94 0-.513-.144-.926-.428-1.242-.287-.313-.677-.47-1.184-.47z"/>
    </g>
</svg>
