<svg xmlns="http://www.w3.org/2000/svg" width="101" height="100" viewBox="0 0 101 100">
    <g fill="none" fill-rule="evenodd">
        <path fill="#EBF0F3" d="M13.245 43h74.51a9 9 0 0 1 8.965 8.214l3.422 39A9 9 0 0 1 91.176 100H9.824a9 9 0 0 1-8.966-9.786l3.422-39A9 9 0 0 1 13.245 43z"/>
        <path fill="#D5D6DB" fill-rule="nonzero" d="M35.812 92.623H33.13L32.644 94h-1.098l2.34-6.255h1.179L37.396 94h-1.098l-.486-1.377zm-.288-.792l-1.053-2.97-1.053 2.97h2.106zm4.842-2.853c.642 0 1.173.17 1.593.508.42.34.681.8.783 1.382h-1.089a1.164 1.164 0 0 0-.436-.734c-.232-.177-.521-.265-.869-.265-.396 0-.726.14-.99.418-.264.28-.396.689-.396 1.229 0 .54.132.951.396 1.233a1.3 1.3 0 0 0 .99.423c.348 0 .637-.09.869-.27.23-.18.376-.426.436-.738h1.089c-.102.582-.363 1.044-.783 1.386-.42.342-.951.513-1.593.513-.48 0-.904-.102-1.273-.306a2.176 2.176 0 0 1-.869-.882c-.21-.384-.315-.837-.315-1.359 0-.516.105-.966.315-1.35.21-.384.5-.678.869-.882a2.589 2.589 0 0 1 1.273-.306zm5.571 0c.642 0 1.173.17 1.593.508.42.34.681.8.783 1.382h-1.089a1.164 1.164 0 0 0-.436-.734c-.232-.177-.521-.265-.869-.265-.396 0-.726.14-.99.418-.264.28-.396.689-.396 1.229 0 .54.132.951.396 1.233a1.3 1.3 0 0 0 .99.423c.348 0 .637-.09.869-.27.23-.18.376-.426.436-.738h1.089c-.102.582-.363 1.044-.783 1.386-.42.342-.951.513-1.593.513-.48 0-.904-.102-1.273-.306a2.176 2.176 0 0 1-.869-.882c-.21-.384-.315-.837-.315-1.359 0-.516.105-.966.315-1.35.21-.384.5-.678.868-.882a2.589 2.589 0 0 1 1.274-.306zm5.634 0c.48 0 .912.102 1.296.306.384.204.684.498.9.882.216.384.324.834.324 1.35 0 .522-.108.975-.324 1.359a2.196 2.196 0 0 1-.9.882 2.719 2.719 0 0 1-1.296.306c-.48 0-.91-.102-1.291-.306a2.225 2.225 0 0 1-.9-.887c-.22-.387-.329-.838-.329-1.354 0-.516.11-.966.328-1.35.22-.384.52-.678.9-.882a2.693 2.693 0 0 1 1.292-.306zm0 .891c-.264 0-.507.06-.729.18-.222.12-.4.304-.535.553-.136.25-.203.554-.203.914 0 .366.067.672.203.918.135.246.313.429.535.549.222.12.465.18.729.18.264 0 .507-.06.729-.18.222-.12.4-.303.536-.549.135-.246.202-.552.202-.918 0-.36-.067-.664-.202-.914a1.326 1.326 0 0 0-.536-.553 1.508 1.508 0 0 0-.729-.18zm8.082-.828V94h-1.035v-1.08c-.126.366-.345.65-.657.85a1.966 1.966 0 0 1-1.089.302c-.576 0-1.038-.186-1.386-.558-.348-.372-.522-.903-.522-1.593v-2.88h1.026v2.772c0 .45.114.796.342 1.04.228.243.54.364.936.364.408 0 .735-.132.981-.396s.369-.648.369-1.152v-2.628h1.035zm4.005-.081c.576 0 1.038.186 1.386.558.348.372.522.903.522 1.593V94H64.54v-2.781c0-.444-.114-.787-.342-1.03-.228-.244-.54-.365-.936-.365-.408 0-.735.13-.981.391-.246.262-.369.644-.369 1.148V94h-1.026v-4.959h1.026v1.089c.132-.372.354-.66.666-.864a1.929 1.929 0 0 1 1.08-.306zm5.598 4.149V94h-.63c-.528 0-.928-.127-1.202-.383-.273-.255-.409-.679-.409-1.273v-2.43h-.711v-.873h.711v-1.233h1.035v1.233h1.197v.873H68.05v2.448c0 .282.052.477.157.585.106.108.29.162.554.162h.495z"/>
        <path fill="#D5D6DB" d="M82 73v3H67v-3h15zm-51 0v3H16v-3h15zm47-8v3H63v-3h15zm-43 0v3H20v-3h15z"/>
        <path fill="#F8D24D" d="M50 75a1.67 1.67 0 0 1-1.666-1.668H45c0 2.17 1.399 4.005 3.334 4.695V80h3.332v-1.973C53.6 77.337 55 75.502 55 73.332c0-.442-.175-.865-.487-1.177L48.44 66.08A1.671 1.671 0 0 1 50 65c.92 0 1.666.748 1.666 1.668H55c0-2.173-1.399-4.003-3.334-4.695V60h-3.332v1.973C46.4 62.665 45 64.495 45 66.668c0 .442.175.865.49 1.177l6.073 6.074A1.677 1.677 0 0 1 50 75"/>
        <g>
            <path fill="#E1E8ED" d="M4 50V9a9 9 0 0 1 9-9h75a9 9 0 0 1 9 9v41H4z"/>
            <path fill="#6E6E6E" fill-rule="nonzero" d="M14.658 18.54V27h-1.092v-8.46h1.092zm5.22 1.764c.768 0 1.388.246 1.86.738.472.492.708 1.202.708 2.13V27h-1.092v-3.732c0-.656-.168-1.16-.504-1.512-.336-.352-.792-.528-1.368-.528-.6 0-1.08.194-1.44.582-.36.388-.54.954-.54 1.698V27H16.41v-6.588h1.092v1.56c.168-.536.466-.948.894-1.236a2.592 2.592 0 0 1 1.482-.432zm7.392 5.736V27h-.816c-.672 0-1.174-.16-1.506-.48-.332-.32-.498-.856-.498-1.608V21.36h-.984v-.948h.984v-1.644h1.104v1.644h1.704v.948h-1.704v3.576c0 .424.078.714.234.87.156.156.426.234.81.234h.672zm7.392-2.7c0 .232-.016.432-.048.6h-5.268c.024.752.238 1.316.642 1.692.404.376.898.564 1.482.564.528 0 .97-.134 1.326-.402.356-.268.574-.626.654-1.074h1.164c-.08.456-.258.864-.534 1.224a2.77 2.77 0 0 1-1.074.84c-.44.2-.936.3-1.488.3-.632 0-1.192-.136-1.68-.408a2.883 2.883 0 0 1-1.146-1.17c-.276-.508-.414-1.106-.414-1.794s.138-1.288.414-1.8a2.874 2.874 0 0 1 1.146-1.176c.488-.272 1.048-.408 1.68-.408.64 0 1.198.136 1.674.408.476.272.84.636 1.092 1.092.252.456.378.96.378 1.512zm-1.104.072c.024-.488-.056-.896-.24-1.224a1.755 1.755 0 0 0-.756-.732c-.32-.16-.668-.24-1.044-.24-.6 0-1.104.186-1.512.558-.408.372-.628.918-.66 1.638h4.212zm3.624-1.668c.216-.456.532-.81.948-1.062.416-.252.912-.378 1.488-.378v1.188h-.336c-.616 0-1.12.158-1.512.474-.392.316-.588.838-.588 1.566V27H36.09v-6.588h1.092v1.332zm6.984-1.44c.768 0 1.388.246 1.86.738.472.492.708 1.202.708 2.13V27h-1.092v-3.732c0-.656-.168-1.16-.504-1.512-.336-.352-.792-.528-1.368-.528-.6 0-1.08.194-1.44.582-.36.388-.54.954-.54 1.698V27h-1.092v-6.588h1.092v1.56c.168-.536.466-.948.894-1.236a2.592 2.592 0 0 1 1.482-.432zm6.948.024c.64 0 1.182.16 1.626.48.444.32.754.748.93 1.284v-1.68h1.092V27H53.67v-1.68a2.502 2.502 0 0 1-.93 1.284c-.444.32-.986.48-1.626.48a2.986 2.986 0 0 1-1.56-.408 2.822 2.822 0 0 1-1.074-1.17c-.26-.508-.39-1.106-.39-1.794s.13-1.288.39-1.8.618-.904 1.074-1.176a2.986 2.986 0 0 1 1.56-.408zm.312.972c-.672 0-1.21.214-1.614.642-.404.428-.606 1.018-.606 1.77s.202 1.342.606 1.77c.404.428.942.642 1.614.642.432 0 .818-.1 1.158-.3.34-.2.606-.482.798-.846.192-.364.288-.786.288-1.266s-.096-.904-.288-1.272a2.04 2.04 0 0 0-.798-.846 2.276 2.276 0 0 0-1.158-.294zm8.22 4.74V27h-.816c-.672 0-1.174-.16-1.506-.48-.332-.32-.498-.856-.498-1.608V21.36h-.984v-.948h.984v-1.644h1.104v1.644h1.704v.948H57.93v3.576c0 .424.078.714.234.87.156.156.426.234.81.234h.672zm1.14-7.56c0-.2.068-.362.204-.486.136-.124.316-.186.54-.186.224 0 .404.062.54.186a.627.627 0 0 1 .204.486c0 .2-.068.362-.204.486-.136.124-.316.186-.54.186-.224 0-.404-.062-.54-.186a.627.627 0 0 1-.204-.486zm1.284 1.932V27h-1.092v-6.588h1.092zm4.74-.084c.632 0 1.198.136 1.698.408.5.272.892.664 1.176 1.176.284.512.426 1.112.426 1.8s-.142 1.286-.426 1.794a2.93 2.93 0 0 1-1.176 1.17c-.5.272-1.066.408-1.698.408-.632 0-1.198-.136-1.698-.408a2.969 2.969 0 0 1-1.182-1.17c-.288-.508-.432-1.106-.432-1.794s.144-1.288.432-1.8a2.959 2.959 0 0 1 1.182-1.176c.5-.272 1.066-.408 1.698-.408zm0 .96c-.392 0-.754.088-1.086.264-.332.176-.6.446-.804.81-.204.364-.306.814-.306 1.35 0 .528.102.974.306 1.338.204.364.472.634.804.81.332.176.694.264 1.086.264.392 0 .754-.088 1.086-.264.332-.176.6-.446.804-.81.204-.364.306-.81.306-1.338 0-.536-.102-.986-.306-1.35a1.985 1.985 0 0 0-.804-.81 2.283 2.283 0 0 0-1.086-.264zm8.196-.984c.768 0 1.388.246 1.86.738.472.492.708 1.202.708 2.13V27h-1.092v-3.732c0-.656-.168-1.16-.504-1.512-.336-.352-.792-.528-1.368-.528-.6 0-1.08.194-1.44.582-.36.388-.54.954-.54 1.698V27h-1.092v-6.588h1.092v1.56c.168-.536.466-.948.894-1.236a2.592 2.592 0 0 1 1.482-.432zm6.948.024c.64 0 1.182.16 1.626.48.444.32.754.748.93 1.284v-1.68h1.092V27H84.51v-1.68a2.502 2.502 0 0 1-.93 1.284c-.444.32-.986.48-1.626.48a2.986 2.986 0 0 1-1.56-.408 2.822 2.822 0 0 1-1.074-1.17c-.26-.508-.39-1.106-.39-1.794s.13-1.288.39-1.8.618-.904 1.074-1.176a2.986 2.986 0 0 1 1.56-.408zm.312.972c-.672 0-1.21.214-1.614.642-.404.428-.606 1.018-.606 1.77s.202 1.342.606 1.77c.404.428.942.642 1.614.642.432 0 .818-.1 1.158-.3.34-.2.606-.482.798-.846.192-.364.288-.786.288-1.266s-.096-.904-.288-1.272a2.04 2.04 0 0 0-.798-.846 2.276 2.276 0 0 0-1.158-.294zm6.168-3.18V27h-1.092v-8.88h1.092zm-46.926 17.5c.52.112.942.36 1.266.744.324.384.486.836.486 1.356 0 .688-.234 1.24-.702 1.656-.468.416-1.146.624-2.034.624H37.38v-8.46h3.096c.848 0 1.492.188 1.932.564.44.376.66.892.66 1.548 0 .544-.146.984-.438 1.32a1.985 1.985 0 0 1-1.122.648zm-3.036-.372h1.824c.536 0 .946-.124 1.23-.372.284-.248.426-.596.426-1.044 0-.432-.14-.772-.42-1.02-.28-.248-.708-.372-1.284-.372h-1.776v2.808zm1.848 3.84c.576 0 1.022-.132 1.338-.396.316-.264.474-.636.474-1.116 0-.472-.162-.842-.486-1.11-.324-.268-.774-.402-1.35-.402h-1.824v3.024h1.848zm7.008-5.76c.64 0 1.182.16 1.626.48.444.32.754.748.93 1.284v-1.68h1.092V40h-1.092v-1.68a2.502 2.502 0 0 1-.93 1.284c-.444.32-.986.48-1.626.48a2.986 2.986 0 0 1-1.56-.408 2.822 2.822 0 0 1-1.074-1.17c-.26-.508-.39-1.106-.39-1.794s.13-1.288.39-1.8.618-.904 1.074-1.176a2.986 2.986 0 0 1 1.56-.408zm.312.972c-.672 0-1.21.214-1.614.642-.404.428-.606 1.018-.606 1.77s.202 1.342.606 1.77c.404.428.942.642 1.614.642.432 0 .818-.1 1.158-.3.34-.2.606-.482.798-.846.192-.364.288-.786.288-1.266s-.096-.904-.288-1.272a2.04 2.04 0 0 0-.798-.846 2.276 2.276 0 0 0-1.158-.294zm8.544-.996c.768 0 1.388.246 1.86.738.472.492.708 1.202.708 2.13V40H57.66v-3.732c0-.656-.168-1.16-.504-1.512-.336-.352-.792-.528-1.368-.528-.6 0-1.08.194-1.44.582-.36.388-.54.954-.54 1.698V40h-1.092v-6.588h1.092v1.56c.168-.536.466-.948.894-1.236a2.592 2.592 0 0 1 1.482-.432zM64.044 40l-2.52-2.964V40h-1.092v-8.88h1.092v5.16l2.484-2.868h1.332l-2.952 3.276L65.412 40h-1.368z"/>
        </g>
    </g>
</svg>
