<svg xmlns="http://www.w3.org/2000/svg" width="179" height="176" viewBox="0 0 179 176">
    <g fill="none" fill-rule="evenodd">
        <path fill="#40596B" d="M144.046 58.447l-4.168-15.859 2.15-13.988-2.15 2.545-10.217 4.149-5.243 24.76 2.017 4.952 6.587 3.48-2.958 18.738 2.017 1.07 8.47 66.251 3.227 2.81 5.78-2.274-1.345-43.097 3.092 20.076 2.017 27.838h7.528l2.285-70.935 2.286-.535-2.689-25.296 13.982-.4 1.747-4.686-10.216-25.429-11.697-3.347-2.418-2.543z"/>
        <path fill="#223644" d="M153.321 159.899l-.94 11.822 2.6 3.3h3.764l4.032-3.837-1.927-11.285zM150.32 159.497l-.762-4.417-5.78 2.276-3.227-2.812-4.751 5.845-4.57 4.194 2.33 1.963 7.977-1.16 4.571-4.105 2.15.09z"/>
        <path fill="#FFF" d="M146.87 31.345l6.251-4.618h1.008l-10.082 31.72-4.168-15.86 2.15-13.986z"/>
        <path fill="#F25822" d="M148.751 36.9l2.15-2.744-4.032-2.81-2.823 2.475 1.814 3.48-2.218 5.622-1.26 9.195 1.664 6.33 5.843-18.384z"/>
        <path fill="#E4E5E1" d="M139.14 56.842l-1.244-2.61v-2.945h7.83l.442.484.159 1.658-.833 2.074h1.51l.335.803h-2.168l-.252.624h2.085l1.159.715-3.244 1.464h-7.023l-.303-1.13-2.89-1.07z"/>
        <path fill="#E2AE9C" d="M153.322 21.04l2.488-4.417-1.245-1.473-1.848 2.945-.806-2.945-2.219-5.085-5.445 1.07-3.561-.402-.807 7.295.873 4.818 2.152 3.881-.2 2.257 4.165 2.36 6.252-4.617z"/>
        <path fill="#191919" d="M154.129 11.001l-2.15-3.814-4.135-1.405-5.076.87-3.227 3.747-.402 5.42.74 2.208.807-7.293 3.561.401 5.445-1.07 2.219 5.086.806 2.944 1.848-2.944z"/>
        <path fill="#E2AE9C" d="M158.297 52.492h-1.95l-3.697-2.209-4.638-.4-1.844 1.889.474 4.935s3.588 2.208 3.79 2.343c.202.134 4.772 0 4.772 0l4.235-.603-1.142-5.955zM139.14 56.842l-3.16-1.874-2.756.636-1.478 3.505V63.6l2.082 1.473 4.235-1.004 5.984-4.96h-6.151l-.303-1.13-2.89-1.07z"/>
        <path fill="#40596B" d="M3.465 30.848l10.245-3.75 1.958-2.699 6.177 7.95 9.793 23.247.753-15.6L26.968 27.4l3.013 2.848 6.628 3.6 7.384 47.697-3.365-.701-2.463 2.2-.953-4.3v6.6l-.854.798-1.255 17.45-5.423 34.498-2.863 6.298.905 5.1-5.726 2.7h-1.658l-1.657 6.9-8.286 1.5-1.808-34.048 2.11-19.348-1.959-19.649-2.712-.3L.001 61.446l1.657-27.897z"/>
        <path fill="#223644" d="M22.9 156.986l-3.614-.413 1.052-4.386h1.658l5.725-2.7 5.95 3.75 7.835 2.85-1.054 1.725-7.082 1.125-8.813-3zM26.139 170.26l-7.458-11.173-8.286 1.499v4.5l3.843 5.925 8.738 2.4 3.163-1.201z"/>
        <path fill="#E2AE9C" d="M39.849 86.793l-1.185-4.194 1.964-1.756 3.365.701 1.053 3.524-1.053 3.9-2.139 1.2-3.19-1.5v-1.95zM15.97 85.068l1.807 2.625 1.205 5.924-2.183 1.5-1.28 1.425-4.822-1.8-1.96-7.2z"/>
        <path fill="#FFF" d="M16.497 23.236l-.572 1.493 5.92 7.619 9.793 23.248.754-15.599L26.967 27.4l-.659-1.2-.395 2.362s-1.488 1.461-1.581 1.461c-.096 0-6.573-5.005-6.573-5.005l-1.262-1.78zM15.556 84.13l.413.939-7.23 2.474-.263-.75z"/>
        <path fill="#3075EE" d="M23.013 30.81h2.523l1.394 1.8-.302 2.363 5.35 15.936-.34 4.686-8.343-19.805.547-1.492-1.658-2.512z"/>
        <path fill="#E2AE9C" d="M26.328 24.755l-.02 1.444-.395 2.362-1.581 1.462-6.574-5.006-1.261-1.78.13-1.389-.602-2.792-1.222-1.913-.793-2.288.754-.974 1.92.881.453 1.387 2.335-8.811 5.349.337 3.05-.188 1.62 3.563.283 3.037v4.068l-.904 4.2z"/>
        <path fill="#191919" d="M15.611 7.637l3.843-3.018 4.406-.6 4.03 2.456 1.77 3.47.114 4.141-.283-3.036-1.62-3.563-3.05.188-5.35-.337-2.333 8.811-.453-1.387-1.92-.881.244-4.65z"/>
        <path fill="#40596B" d="M71.955 21.083l-2.347 2.337-10.528 3.466-2.185 9.19 2.025 11.286 1.862 4.917 3.643 2.418-2.51 25.877 3.563.806-1.053 28.617-2.753 41.998 5.264 3.788 3.886-2.579 5.993-44.256 3.237-12.01 1.377 25.714 1.052 30.633 5.426 1.29 3.158-2.822 1.052-6.368.728-29.181 1.702-35.147 2.347-.967-3.077-22.491-.243-6.61 6.883.322 2.916-3.062.727-5.643-7.853-15.639-10.364-1.935-2.268-2.821-2.43 18.702-1.052-.08-1.781-9.432-3.967-6.932z"/>
        <path fill="#223644" d="M96.976 165.457l-7.854-1.532-1.944-2.337-.648-1.612-4.13-1.935.082-4.756 5.425 1.29 3.157-2.822 1.863 4.595 4.939 6.61zM63.453 167.794h3.24l3.237-3.305v-10.693l-2.995 1.988-3.482-2.507-3.561 9.52z"/>
        <path fill="#FFF" d="M82.09 63.618l2.125 7.363-4.729.438zM79.62 26.403l-6.287-5.32h-1.378l2.43 3.385 3.753 6.559 1.995 9.806 1.053.08 2.369-18.234z"/>
        <path fill="#E2AE9C" d="M83.555 20.196v2.483l-3.935 3.724-6.288-5.32-.405-5.402h-.972l-1.537-5.24h1.537l.972 2.178 1.215-5.724 1.052-2.499 5.304.806 4.09-.16 1.052 3.707v4.433l.971-1.772.404 1.209-1.861 4.997z"/>
        <path fill="#191919" d="M71.955 4.88v5.562l.973 2.177 1.214-5.725 1.052-2.498 5.304.807 4.089-.162 1.052 3.708v4.434l.972-1.773.404-4.272-1.62-4.112L81.35.204h-3.595L73.737 2.3z"/>
        <path fill="#E2AE9C" d="M69.527 44.218l7.773-2.27v3.882zM87.015 48.754l-.404 3.618h4.94l2.487-1.36z"/>
        <path fill="#8F8F8F" d="M78.717 26.727h1.781l.65.761-.65 1.192 1.592 5.27-.905 6.963-1.052-.08-1.548-7.61.697-4.647-1.233-1.088z"/>
    </g>
</svg>
