<svg xmlns="http://www.w3.org/2000/svg" width="130" height="126" viewBox="0 0 130 126">
    <g fill="none" fill-rule="evenodd">
        <path fill="#D5D6DB" fill-rule="nonzero" d="M126.653 118H3.347C1.5 118 0 119.23 0 120.747v2.506C0 124.77 1.499 126 3.347 126h123.306c1.848 0 3.347-1.23 3.347-2.747v-2.506c0-1.517-1.499-2.747-3.347-2.747z"/>
        <path fill="#E1E6E9" fill-rule="nonzero" d="M116.999 96l.001 11h.306c1.616 0 2.896 1.364 2.668 2.873l-.03.157-.02.09c-.26 1.067-1.27 1.803-2.4 1.874l-.18.006h5.773c.985 0 1.794.583 1.876 1.326l.007.125v3.098c0 .76-.757 1.382-1.72 1.446l-.163.005H6.883c-.985 0-1.794-.583-1.876-1.326L5 116.55v-3.098c0-.76.757-1.382 1.72-1.446l.163-.005h5.773c-1.202 0-2.307-.757-2.58-1.88a4.712 4.712 0 0 1-.02-.09c-.334-1.518.88-2.933 2.472-3.025l.166-.005H13l-.001-11h14L27 107h.306c1.616 0 2.896 1.364 2.668 2.873l-.03.157-.02.09c-.26 1.067-1.27 1.803-2.4 1.874l-.18.006h15.312c-1.202 0-2.307-.757-2.58-1.88a4.712 4.712 0 0 1-.02-.09c-.334-1.518.88-2.933 2.472-3.025l.166-.005H43l-.001-11h14L57 107h.306c1.616 0 2.896 1.364 2.668 2.873l-.03.157-.02.09c-.26 1.067-1.27 1.803-2.4 1.874l-.18.006h15.312c-1.202 0-2.307-.757-2.58-1.88a4.712 4.712 0 0 1-.02-.09c-.334-1.518.88-2.933 2.472-3.025l.166-.005H73l-.001-11h14L87 107h.306c1.616 0 2.896 1.364 2.668 2.873l-.03.157-.02.09c-.26 1.067-1.27 1.803-2.4 1.874l-.18.006h15.312c-1.202 0-2.307-.757-2.58-1.88a4.726 4.726 0 0 1-.02-.09c-.334-1.518.88-2.933 2.472-3.025l.166-.005H103l-.001-11h14zM27.306 50c1.672 0 2.983 1.46 2.639 3.03a5.42 5.42 0 0 1-.021.09c-.26 1.067-1.27 1.803-2.4 1.874l-.18.006H27l-.001 9h-14L13 55h-.344c-1.142 0-2.196-.683-2.533-1.715l-.047-.166a4.712 4.712 0 0 1-.02-.09c-.334-1.517.88-2.932 2.472-3.024l.166-.005h14.612zm30 0c1.672 0 2.983 1.46 2.639 3.03a5.42 5.42 0 0 1-.021.09c-.26 1.067-1.27 1.803-2.4 1.874l-.18.006H57l-.001 9h-14L43 55h-.344c-1.142 0-2.196-.683-2.533-1.715l-.047-.166a4.712 4.712 0 0 1-.02-.09c-.334-1.517.88-2.932 2.472-3.024l.166-.005h14.612zm30 0c1.672 0 2.983 1.46 2.639 3.03a5.42 5.42 0 0 1-.021.09c-.26 1.067-1.27 1.803-2.4 1.874l-.18.006H87l-.001 9h-14L73 55h-.344c-1.142 0-2.196-.683-2.533-1.715l-.047-.166a4.712 4.712 0 0 1-.02-.09c-.334-1.517.88-2.932 2.472-3.024l.166-.005h14.612zm30 0c1.672 0 2.983 1.46 2.639 3.03l-.021.09c-.26 1.067-1.27 1.803-2.4 1.874l-.18.006H117l-.001 9h-14l.001-9h-.344c-1.142 0-2.196-.683-2.533-1.715l-.047-.166a4.726 4.726 0 0 1-.02-.09c-.334-1.517.88-2.932 2.472-3.024l.166-.005h14.612z"/>
        <path fill="#D5D6DB" fill-rule="nonzero" d="M129.535 47.808L65.728.255a1.167 1.167 0 0 0-1.456 0L.465 47.808C-.434 48.521.057 50 1.194 50h127.612c1.137 0 1.628-1.479.729-2.192z"/>
        <path fill="#E4E5E9" fill-rule="nonzero" d="M17 44L65 8l48 36z"/>
        <path fill="#F8D24D" d="M65 33a1.67 1.67 0 0 1-1.666-1.668H60c0 2.17 1.399 4.005 3.334 4.695V38h3.332v-1.973C68.6 35.337 70 33.502 70 31.332c0-.442-.175-.865-.487-1.177L63.44 24.08A1.671 1.671 0 0 1 65 23c.92 0 1.666.748 1.666 1.668H70c0-2.173-1.399-4.003-3.334-4.695V18h-3.332v1.973C61.4 20.665 60 22.495 60 24.668c0 .442.175.865.49 1.177l6.073 6.074A1.677 1.677 0 0 1 65 33"/>
        <path fill="gray" fill-rule="nonzero" d="M30.668 83.754h3.416V85h-5.012v-9.884h1.596v8.638zm8.19-6.566c.747 0 1.419.159 2.016.476a3.417 3.417 0 0 1 1.4 1.372c.336.597.504 1.297.504 2.1 0 .812-.168 1.517-.504 2.114a3.417 3.417 0 0 1-1.4 1.372c-.597.317-1.27.476-2.016.476-.747 0-1.416-.159-2.009-.476a3.462 3.462 0 0 1-1.4-1.379c-.34-.602-.511-1.304-.511-2.107 0-.803.17-1.503.511-2.1a3.474 3.474 0 0 1 1.4-1.372c.593-.317 1.262-.476 2.009-.476zm0 1.386c-.41 0-.789.093-1.134.28a2.063 2.063 0 0 0-.833.861c-.21.387-.315.861-.315 1.421 0 .57.105 1.045.315 1.428.21.383.488.667.833.854.345.187.723.28 1.134.28.41 0 .789-.093 1.134-.28.345-.187.623-.471.833-.854.21-.383.315-.859.315-1.428 0-.56-.105-1.034-.315-1.421a2.063 2.063 0 0 0-.833-.861 2.346 2.346 0 0 0-1.134-.28zm8.89-1.386c.999 0 1.825.264 2.478.791.653.527 1.06 1.244 1.218 2.149H49.75c-.093-.485-.32-.866-.679-1.141-.36-.275-.81-.413-1.351-.413-.616 0-1.13.217-1.54.651-.41.434-.616 1.071-.616 1.911 0 .84.205 1.48.616 1.918.41.439.924.658 1.54.658.541 0 .992-.14 1.351-.42.36-.28.586-.663.679-1.148h1.694c-.159.905-.565 1.624-1.218 2.156s-1.48.798-2.478.798c-.747 0-1.407-.159-1.981-.476a3.386 3.386 0 0 1-1.351-1.372c-.327-.597-.49-1.302-.49-2.114 0-.803.163-1.503.49-2.1a3.386 3.386 0 0 1 1.351-1.372c.574-.317 1.234-.476 1.981-.476zm8.33 0c.7 0 1.297.173 1.792.518.495.345.845.803 1.05 1.372v-1.792h1.596V85H58.92v-1.792a2.788 2.788 0 0 1-1.05 1.372c-.495.345-1.092.518-1.792.518-.672 0-1.272-.159-1.799-.476-.527-.317-.94-.775-1.239-1.372-.299-.597-.448-1.302-.448-2.114 0-.803.15-1.503.448-2.1.299-.597.712-1.055 1.239-1.372.527-.317 1.127-.476 1.799-.476zm.49 1.4c-.71 0-1.276.226-1.701.679-.425.453-.637 1.076-.637 1.869 0 .793.212 1.416.637 1.869.425.453.992.679 1.701.679.448 0 .85-.105 1.204-.315.355-.21.635-.506.84-.889.205-.383.308-.83.308-1.344 0-.504-.103-.95-.308-1.337a2.227 2.227 0 0 0-.84-.896 2.318 2.318 0 0 0-1.204-.315zm7.462-3.948V85h-1.596V74.64h1.596zm10.36 5.264a2.446 2.446 0 0 1 2.002 2.422c0 .821-.275 1.472-.826 1.953-.55.48-1.349.721-2.394.721h-3.934v-9.884h3.864c.99 0 1.748.222 2.275.665.527.443.791 1.052.791 1.827 0 .625-.163 1.132-.49 1.519-.327.387-.756.646-1.288.777zm-3.556-.532h1.974c.56 0 .987-.13 1.281-.392.294-.261.441-.625.441-1.092 0-.457-.147-.817-.441-1.078-.294-.261-.74-.392-1.337-.392h-1.918v2.954zm2.016 4.312c.607 0 1.076-.138 1.407-.413.331-.275.497-.66.497-1.155s-.168-.882-.504-1.162c-.336-.28-.807-.42-1.414-.42h-2.002v3.15h2.016zm8.134-6.496c.7 0 1.297.173 1.792.518.495.345.845.803 1.05 1.372v-1.792h1.596V85h-1.596v-1.792a2.788 2.788 0 0 1-1.05 1.372c-.495.345-1.092.518-1.792.518-.672 0-1.272-.159-1.799-.476-.527-.317-.94-.775-1.239-1.372-.299-.597-.448-1.302-.448-2.114 0-.803.15-1.503.448-2.1.299-.597.712-1.055 1.239-1.372.527-.317 1.127-.476 1.799-.476zm.49 1.4c-.71 0-1.276.226-1.701.679-.425.453-.637 1.076-.637 1.869 0 .793.212 1.416.637 1.869.425.453.992.679 1.701.679.448 0 .85-.105 1.204-.315.355-.21.635-.506.84-.889.205-.383.308-.83.308-1.344 0-.504-.103-.95-.308-1.337a2.227 2.227 0 0 0-.84-.896 2.318 2.318 0 0 0-1.204-.315zm10.178-1.428c.896 0 1.615.29 2.156.868.541.579.812 1.405.812 2.478V85h-1.596v-4.326c0-.69-.177-1.225-.532-1.603-.355-.378-.84-.567-1.456-.567-.635 0-1.143.203-1.526.609-.383.406-.574 1.001-.574 1.785V85H87.34v-7.714h1.596v1.694a2.588 2.588 0 0 1 1.036-1.344c.485-.317 1.045-.476 1.68-.476zM100.85 85l-2.772-3.43V85h-1.596V74.64h1.596v5.936l2.744-3.29h1.918l-3.36 3.836L102.824 85h-1.974z"/>
    </g>
</svg>
