<svg xmlns="http://www.w3.org/2000/svg" width="148" height="100" viewBox="0 0 148 100">
    <g fill="none" fill-rule="evenodd">
        <path fill="#EBF0F3" d="M13.245 43h74.51a9 9 0 0 1 8.965 8.214l3.422 39A9 9 0 0 1 91.176 100H9.824a9 9 0 0 1-8.966-9.786l3.422-39A9 9 0 0 1 13.245 43z"/>
        <path fill="#D5D6DB" fill-rule="nonzero" d="M35.812 90.623H33.13L32.644 92h-1.098l2.34-6.255h1.179L37.396 92h-1.098l-.486-1.377zm-.288-.792l-1.053-2.97-1.053 2.97h2.106zm4.842-2.853c.642 0 1.173.17 1.593.508.42.34.681.8.783 1.382h-1.089a1.164 1.164 0 0 0-.436-.734c-.232-.177-.521-.265-.869-.265-.396 0-.726.14-.99.418-.264.28-.396.689-.396 1.229 0 .54.132.951.396 1.233a1.3 1.3 0 0 0 .99.423c.348 0 .637-.09.869-.27.23-.18.376-.426.436-.738h1.089c-.102.582-.363 1.044-.783 1.386-.42.342-.951.513-1.593.513-.48 0-.904-.102-1.273-.306a2.176 2.176 0 0 1-.869-.882c-.21-.384-.315-.837-.315-1.359 0-.516.105-.966.315-1.35.21-.384.5-.678.869-.882a2.589 2.589 0 0 1 1.273-.306zm5.571 0c.642 0 1.173.17 1.593.508.42.34.681.8.783 1.382h-1.089a1.164 1.164 0 0 0-.436-.734c-.232-.177-.521-.265-.869-.265-.396 0-.726.14-.99.418-.264.28-.396.689-.396 1.229 0 .54.132.951.396 1.233a1.3 1.3 0 0 0 .99.423c.348 0 .637-.09.869-.27.23-.18.376-.426.436-.738h1.089c-.102.582-.363 1.044-.783 1.386-.42.342-.951.513-1.593.513-.48 0-.904-.102-1.273-.306a2.176 2.176 0 0 1-.869-.882c-.21-.384-.315-.837-.315-1.359 0-.516.105-.966.315-1.35.21-.384.5-.678.868-.882a2.589 2.589 0 0 1 1.274-.306zm5.634 0c.48 0 .912.102 1.296.306.384.204.684.498.9.882.216.384.324.834.324 1.35 0 .522-.108.975-.324 1.359a2.196 2.196 0 0 1-.9.882 2.719 2.719 0 0 1-1.296.306c-.48 0-.91-.102-1.291-.306a2.225 2.225 0 0 1-.9-.887c-.22-.387-.329-.838-.329-1.354 0-.516.11-.966.328-1.35.22-.384.52-.678.9-.882a2.693 2.693 0 0 1 1.292-.306zm0 .891c-.264 0-.507.06-.729.18-.222.12-.4.304-.535.553-.136.25-.203.554-.203.914 0 .366.067.672.203.918.135.246.313.429.535.549.222.12.465.18.729.18.264 0 .507-.06.729-.18.222-.12.4-.303.536-.549.135-.246.202-.552.202-.918 0-.36-.067-.664-.202-.914a1.326 1.326 0 0 0-.536-.553 1.508 1.508 0 0 0-.729-.18zm8.082-.828V92h-1.035v-1.08c-.126.366-.345.65-.657.85a1.966 1.966 0 0 1-1.089.302c-.576 0-1.038-.186-1.386-.558-.348-.372-.522-.903-.522-1.593v-2.88h1.026v2.772c0 .45.114.796.342 1.04.228.243.54.364.936.364.408 0 .735-.132.981-.396s.369-.648.369-1.152v-2.628h1.035zm4.005-.081c.576 0 1.038.186 1.386.558.348.372.522.903.522 1.593V92H64.54v-2.781c0-.444-.114-.787-.342-1.03-.228-.244-.54-.365-.936-.365-.408 0-.735.13-.981.391-.246.262-.369.644-.369 1.148V92h-1.026v-4.959h1.026v1.089c.132-.372.354-.66.666-.864a1.929 1.929 0 0 1 1.08-.306zm5.598 4.149V92h-.63c-.528 0-.928-.127-1.202-.383-.273-.255-.409-.679-.409-1.273v-2.43h-.711v-.873h.711v-1.233h1.035v1.233h1.197v.873H68.05v2.448c0 .282.052.477.157.585.106.108.29.162.554.162h.495z"/>
        <path fill="#D5D6DB" d="M82 73v3H67v-3h15zm-51 0v3H16v-3h15zm47-8v3H63v-3h15zm-43 0v3H20v-3h15z"/>
        <path fill="#F8D24D" d="M50 75a1.67 1.67 0 0 1-1.666-1.668H45c0 2.17 1.399 4.005 3.334 4.695V80h3.332v-1.973C53.6 77.337 55 75.502 55 73.332c0-.442-.175-.865-.487-1.177L48.44 66.08A1.671 1.671 0 0 1 50 65c.92 0 1.666.748 1.666 1.668H55c0-2.173-1.399-4.003-3.334-4.695V60h-3.332v1.973C46.4 62.665 45 64.495 45 66.668c0 .442.175.865.49 1.177l6.073 6.074A1.677 1.677 0 0 1 50 75"/>
        <g>
            <path fill="#E1E8ED" d="M4 50V9a9 9 0 0 1 9-9h75a9 9 0 0 1 9 9v41H4z"/>
            <path fill="gray" fill-rule="nonzero" d="M21.336 30.148h3V31h-4.092v-8.46h1.092v7.608zm7.104-5.82c.632 0 1.198.136 1.698.408.5.272.892.664 1.176 1.176.284.512.426 1.112.426 1.8s-.142 1.286-.426 1.794a2.93 2.93 0 0 1-1.176 1.17c-.5.272-1.066.408-1.698.408-.632 0-1.198-.136-1.698-.408a2.969 2.969 0 0 1-1.182-1.17c-.288-.508-.432-1.106-.432-1.794s.144-1.288.432-1.8a2.959 2.959 0 0 1 1.182-1.176c.5-.272 1.066-.408 1.698-.408zm0 .96c-.392 0-.754.088-1.086.264-.332.176-.6.446-.804.81-.204.364-.306.814-.306 1.35 0 .528.102.974.306 1.338.204.364.472.634.804.81.332.176.694.264 1.086.264.392 0 .754-.088 1.086-.264.332-.176.6-.446.804-.81.204-.364.306-.81.306-1.338 0-.536-.102-.986-.306-1.35a1.985 1.985 0 0 0-.804-.81 2.283 2.283 0 0 0-1.086-.264zm7.644-.96c.84 0 1.536.224 2.088.672.552.448.892 1.048 1.02 1.8H38.04c-.08-.472-.298-.842-.654-1.11-.356-.268-.798-.402-1.326-.402-.384 0-.734.088-1.05.264a1.92 1.92 0 0 0-.762.81c-.192.364-.288.814-.288 1.35 0 .536.096.986.288 1.35.192.364.446.634.762.81.316.176.666.264 1.05.264.528 0 .97-.136 1.326-.408.356-.272.574-.644.654-1.116h1.152c-.128.76-.468 1.362-1.02 1.806-.552.444-1.248.666-2.088.666-.632 0-1.192-.136-1.68-.408a2.883 2.883 0 0 1-1.146-1.17c-.276-.508-.414-1.106-.414-1.794s.138-1.288.414-1.8a2.874 2.874 0 0 1 1.146-1.176c.488-.272 1.048-.408 1.68-.408zm7.236 0c.64 0 1.182.16 1.626.48.444.32.754.748.93 1.284v-1.68h1.092V31h-1.092v-1.68a2.502 2.502 0 0 1-.93 1.284c-.444.32-.986.48-1.626.48a2.986 2.986 0 0 1-1.56-.408 2.822 2.822 0 0 1-1.074-1.17c-.26-.508-.39-1.106-.39-1.794s.13-1.288.39-1.8.618-.904 1.074-1.176a2.986 2.986 0 0 1 1.56-.408zm.312.972c-.672 0-1.21.214-1.614.642-.404.428-.606 1.018-.606 1.77s.202 1.342.606 1.77c.404.428.942.642 1.614.642.432 0 .818-.1 1.158-.3.34-.2.606-.482.798-.846.192-.364.288-.786.288-1.266s-.096-.904-.288-1.272a2.04 2.04 0 0 0-.798-.846 2.276 2.276 0 0 0-1.158-.294zm6.168-3.18V31h-1.092v-8.88H49.8zm8.844 4.5c.52.112.942.36 1.266.744.324.384.486.836.486 1.356 0 .688-.234 1.24-.702 1.656-.468.416-1.146.624-2.034.624h-3.144v-8.46h3.096c.848 0 1.492.188 1.932.564.44.376.66.892.66 1.548 0 .544-.146.984-.438 1.32a1.985 1.985 0 0 1-1.122.648zm-3.036-.372h1.824c.536 0 .946-.124 1.23-.372.284-.248.426-.596.426-1.044 0-.432-.14-.772-.42-1.02-.28-.248-.708-.372-1.284-.372h-1.776v2.808zm1.848 3.84c.576 0 1.022-.132 1.338-.396.316-.264.474-.636.474-1.116 0-.472-.162-.842-.486-1.11-.324-.268-.774-.402-1.35-.402h-1.824v3.024h1.848zm7.008-5.76c.64 0 1.182.16 1.626.48.444.32.754.748.93 1.284v-1.68h1.092V31H67.02v-1.68a2.502 2.502 0 0 1-.93 1.284c-.444.32-.986.48-1.626.48a2.986 2.986 0 0 1-1.56-.408 2.822 2.822 0 0 1-1.074-1.17c-.26-.508-.39-1.106-.39-1.794s.13-1.288.39-1.8.618-.904 1.074-1.176a2.986 2.986 0 0 1 1.56-.408zm.312.972c-.672 0-1.21.214-1.614.642-.404.428-.606 1.018-.606 1.77s.202 1.342.606 1.77c.404.428.942.642 1.614.642.432 0 .818-.1 1.158-.3.34-.2.606-.482.798-.846.192-.364.288-.786.288-1.266s-.096-.904-.288-1.272a2.04 2.04 0 0 0-.798-.846 2.276 2.276 0 0 0-1.158-.294zm8.544-.996c.768 0 1.388.246 1.86.738.472.492.708 1.202.708 2.13V31h-1.092v-3.732c0-.656-.168-1.16-.504-1.512-.336-.352-.792-.528-1.368-.528-.6 0-1.08.194-1.44.582-.36.388-.54.954-.54 1.698V31h-1.092v-6.588h1.092v1.56c.168-.536.466-.948.894-1.236a2.592 2.592 0 0 1 1.482-.432zM81.18 31l-2.52-2.964V31h-1.092v-8.88h1.092v5.16l2.484-2.868h1.332l-2.952 3.276L82.548 31H81.18z"/>
        </g>
        <path fill="#ECB658" d="M114.218 94c.98 0 1.782.76 1.782 1.69v2.62c0 .93-.802 1.69-1.782 1.69H93.78c-.98 0-1.781-.76-1.781-1.69v-2.62c0-.93.801-1.69 1.781-1.69h20.437zm27.814 0c1.083 0 1.968.84 1.968 1.867v2.265c0 1.027-.885 1.868-1.968 1.868h-20.064c-1.082 0-1.968-.841-1.968-1.868v-2.265c0-1.027.886-1.867 1.968-1.867h20.064zm4.02-7c1.071 0 1.948.833 1.948 1.849v2.302c0 1.017-.877 1.849-1.949 1.849H125.95c-1.072 0-1.949-.832-1.949-1.849V88.85c0-1.016.877-1.849 1.949-1.849h20.102zm-35.92 0c1.028 0 1.868.797 1.868 1.772v2.456c0 .975-.84 1.772-1.867 1.772H89.867C88.841 93 88 92.203 88 91.228v-2.456c0-.975.841-1.772 1.867-1.772h20.266zm31.955-7c1.052 0 1.913.816 1.913 1.814v2.371c0 .999-.861 1.815-1.913 1.815h-20.175c-1.051 0-1.912-.816-1.912-1.815v-2.371c0-.998.86-1.814 1.912-1.814h20.175zm-26.916 0c1.006 0 1.829.78 1.829 1.735v2.53c0 .954-.823 1.735-1.83 1.735H94.829C93.822 86 93 85.22 93 84.265v-2.53c0-.955.822-1.735 1.828-1.735h20.343zm-.06-7c1.039 0 1.889.806 1.889 1.79v2.418c0 .986-.85 1.792-1.889 1.792H94.89C93.85 79 93 78.194 93 77.208v-2.417c0-.985.85-1.791 1.889-1.791h20.222zm-4.933-7c1.002 0 1.822.778 1.822 1.728v2.544c0 .95-.82 1.728-1.822 1.728H89.822C88.82 72 88 71.222 88 70.272v-2.544c0-.95.82-1.728 1.822-1.728h20.356z"/>
    </g>
</svg>
