<?xml version="1.0" encoding="utf-8"?>
<!-- Generator: Adobe Illustrator 16.0.0, SVG Export Plug-In . SVG Version: 6.00 Build 0)  -->
<!DOCTYPE svg PUBLIC "-//W3C//DTD SVG 1.1//EN" "http://www.w3.org/Graphics/SVG/1.1/DTD/svg11.dtd">
<svg version="1.1" id="Layer_1" xmlns="http://www.w3.org/2000/svg" xmlns:xlink="http://www.w3.org/1999/xlink" x="0px" y="0px"
	 width="136px" height="135px" viewBox="0 -25.5 136 135" enable-background="new 0 -25.5 136 135" xml:space="preserve">
<filter  width="113.3%" height="118.2%" id="b" filterUnits="objectBoundingBox" y="-4.5%" x="-3.3%">
	<feOffset  result="shadowOffsetOuter1" in="SourceAlpha" dy="1" dx="1"></feOffset>
	<feGaussianBlur  stdDeviation=".5" result="shadowBlurOuter1" in="shadowOffsetOuter1"></feGaussianBlur>
	<feColorMatrix  values="0 0 0 0 1 0 0 0 0 1 0 0 0 0 1 0 0 0 1 0" in="shadowBlurOuter1"></feColorMatrix>
</filter>
<g>
	<path fill="#FFFFFF" stroke="#DDDDDD" d="M8.5,0.5h119c4.418,0,8,3.582,8,8v67c0,4.418-3.582,8-8,8H8.5c-4.418,0-8-3.582-8-8v-67
		C0.5,4.082,4.082,0.5,8.5,0.5z"/>
	<g>
		<path fill="#F15822" d="M67.314,59.63c0,1.235-0.385,2.194-1.153,2.884c-0.766,0.686-1.838,1.024-3.208,1.024
			c-0.55,0.003-1.098-0.064-1.63-0.202c-0.512-0.143-0.954-0.334-1.323-0.596v-2.918c0.437,0.296,0.94,0.541,1.507,0.742
			c0.566,0.197,1.08,0.301,1.538,0.301c0.388,0,0.68-0.09,0.88-0.258c0.197-0.17,0.296-0.418,0.296-0.734
			c0-0.145-0.031-0.291-0.092-0.422c-0.071-0.143-0.161-0.274-0.268-0.393c-0.115-0.133-0.423-0.42-0.922-0.861
			c-0.612-0.525-1.056-1.055-1.332-1.6c-0.279-0.557-0.421-1.171-0.415-1.793c0-0.729,0.17-1.384,0.512-1.964
			c0.342-0.581,0.846-1.05,1.45-1.35c0.623-0.321,1.321-0.479,2.096-0.479c1.246,0,2.368,0.297,3.365,0.891l-1.06,2.477
			c-0.893-0.488-1.652-0.734-2.278-0.734c-0.333,0-0.591,0.078-0.772,0.234c-0.18,0.156-0.27,0.383-0.27,0.684
			c0,0.272,0.088,0.526,0.263,0.763c0.174,0.235,0.507,0.553,0.997,0.946c0.614,0.484,1.072,0.994,1.369,1.527
			C67.164,58.33,67.314,58.939,67.314,59.63 M72.557,63.373h-3.062l1.853-9.494H68.87l0.539-2.693h8.048l-0.555,2.693h-2.49
			L72.557,63.373z M77.247,63.373l2.417-12.188h3.109l-2.418,12.188H77.247z M89.246,53.712c-0.564,0-1.074,0.215-1.527,0.649
			s-0.81,1.033-1.07,1.793c-0.264,0.8-0.395,1.637-0.387,2.479c0,0.745,0.146,1.301,0.438,1.669
			c0.292,0.364,0.711,0.548,1.262,0.548c0.43,0,0.873-0.056,1.314-0.168c0.443-0.115,0.966-0.312,1.565-0.58v2.693
			c-1.06,0.502-2.21,0.745-3.446,0.745c-1.357,0-2.404-0.412-3.136-1.233c-0.735-0.822-1.1-1.992-1.1-3.505
			c0-1.478,0.263-2.835,0.796-4.067c0.527-1.233,1.25-2.164,2.16-2.793C87.025,51.314,88.068,51,89.244,51
			c1.382,0,2.637,0.363,3.766,1.093l-1.158,2.542c-0.422-0.272-0.871-0.503-1.34-0.687C90.109,53.789,89.68,53.709,89.246,53.712
			 M97.413,56.664h0.494c0.474,0,0.858-0.163,1.149-0.488c0.293-0.326,0.438-0.738,0.438-1.238c0-0.328-0.095-0.59-0.28-0.793
			c-0.189-0.199-0.445-0.299-0.777-0.299h-0.463L97.413,56.664L97.413,56.664z M102.553,54.837c0,1.399-0.445,2.5-1.342,3.296
			c-0.898,0.801-2.124,1.197-3.678,1.197h-0.674l-0.783,4.043h-3.061l2.416-12.188h2.922c1.353,0,2.393,0.316,3.11,0.946
			C102.193,52.762,102.552,53.666,102.553,54.837L102.553,54.837z M106.669,58.488h2.293l-0.136-3.534l-0.014-0.718
			c0-0.418,0.01-0.781,0.031-1.094c-0.123,0.478-0.283,0.94-0.478,1.385L106.669,58.488L106.669,58.488z M109.057,61.09h-3.507
			l-0.981,2.283h-3.176l5.822-12.188h3.938l0.961,12.188h-2.979L109.057,61.09L109.057,61.09z M117.57,55.704l2.441-4.519h3.413
			l-4.788,7.459l-0.947,4.729h-3.065l0.94-4.729l-1.854-7.459h3.156L117.57,55.704z"/>
		<path fill="#F15822" d="M62.492,67.831v0.456h-0.966v3.044h-0.564v-3.044H60v-0.456H62.492z M65.205,68.555
			c0.314,0,0.566,0.104,0.755,0.307c0.19,0.205,0.285,0.498,0.285,0.879v1.591h-0.56v-1.532c0-0.244-0.061-0.433-0.186-0.566
			c-0.124-0.135-0.294-0.201-0.51-0.201c-0.222,0-0.4,0.072-0.535,0.216c-0.134,0.144-0.2,0.354-0.2,0.632v1.452h-0.56v-3.668h0.56
			V69.2c0.064-0.194,0.191-0.362,0.362-0.476C64.786,68.611,64.983,68.555,65.205,68.555z M70.195,69.834
			c0,0.093-0.008,0.174-0.021,0.243h-2.08c0.01,0.28,0.086,0.489,0.23,0.624c0.144,0.136,0.337,0.209,0.534,0.203
			c0.17,0.006,0.336-0.045,0.474-0.143c0.126-0.092,0.212-0.229,0.237-0.383h0.6c-0.068,0.381-0.319,0.702-0.672,0.859
			c-0.193,0.088-0.402,0.131-0.614,0.128c-0.241,0.005-0.481-0.054-0.694-0.169c-0.201-0.113-0.366-0.281-0.473-0.486
			c-0.119-0.23-0.178-0.488-0.172-0.748c0-0.283,0.057-0.531,0.172-0.744c0.114-0.211,0.272-0.373,0.473-0.484
			c0.213-0.115,0.453-0.174,0.694-0.17c0.265,0,0.497,0.056,0.694,0.166s0.35,0.264,0.457,0.457
			C70.141,69.38,70.195,69.598,70.195,69.834z M69.63,69.818c0.012-0.154-0.02-0.309-0.09-0.447
			c-0.062-0.115-0.157-0.209-0.274-0.268c-0.119-0.059-0.249-0.089-0.381-0.088c-0.203-0.006-0.4,0.066-0.55,0.203
			c-0.147,0.137-0.227,0.336-0.24,0.6H69.63z M75.036,67.802c0.412,0,0.756,0.103,1.03,0.308s0.457,0.483,0.545,0.838h-0.59
			c-0.072-0.186-0.201-0.344-0.369-0.451c-0.183-0.115-0.396-0.174-0.611-0.169c-0.216,0-0.41,0.051-0.581,0.153
			c-0.173,0.104-0.313,0.256-0.403,0.437c-0.096,0.188-0.144,0.41-0.144,0.664c0,0.269,0.049,0.498,0.147,0.69
			c0.098,0.189,0.235,0.336,0.414,0.438c0.178,0.1,0.385,0.15,0.621,0.15c0.287,0,0.534-0.09,0.739-0.27
			c0.207-0.18,0.331-0.427,0.374-0.74h-1.271v-0.418h1.742v0.541c-0.039,0.258-0.13,0.491-0.272,0.701
			c-0.142,0.21-0.33,0.379-0.564,0.504c-0.247,0.129-0.522,0.193-0.802,0.188c-0.337,0-0.634-0.076-0.893-0.228
			c-0.256-0.15-0.463-0.369-0.599-0.633c-0.141-0.27-0.211-0.578-0.211-0.925s0.07-0.655,0.21-0.924
			c0.141-0.271,0.34-0.48,0.598-0.63C74.417,67.873,74.725,67.795,75.036,67.802L75.036,67.802z M78.588,67.662v3.669h-0.561v-3.668
			L78.588,67.662L78.588,67.662z M81.286,68.564c0.262,0,0.497,0.057,0.706,0.17c0.21,0.111,0.373,0.273,0.49,0.484
			c0.119,0.213,0.178,0.461,0.178,0.744c0,0.287-0.061,0.537-0.178,0.748c-0.111,0.207-0.282,0.375-0.489,0.486
			c-0.218,0.114-0.461,0.172-0.707,0.169c-0.263,0-0.496-0.056-0.704-0.169c-0.207-0.112-0.377-0.281-0.49-0.488
			c-0.123-0.229-0.186-0.486-0.18-0.746c0-0.283,0.061-0.531,0.18-0.744c0.119-0.211,0.282-0.373,0.49-0.484
			C80.79,68.621,81.023,68.564,81.286,68.564z M81.286,69.055c-0.139,0-0.275,0.033-0.397,0.1c-0.125,0.071-0.227,0.178-0.291,0.306
			c-0.074,0.138-0.111,0.306-0.111,0.503c0,0.201,0.037,0.37,0.111,0.506c0.064,0.127,0.166,0.232,0.291,0.303
			c0.12,0.065,0.254,0.099,0.397,0.099c0.139,0.001,0.275-0.034,0.397-0.101c0.124-0.069,0.226-0.174,0.291-0.301
			c0.078-0.156,0.117-0.33,0.11-0.506c0-0.197-0.036-0.365-0.11-0.503c-0.064-0.128-0.166-0.234-0.291-0.306
			C81.562,69.088,81.425,69.055,81.286,69.055z M85.534,68.564c0.235,0,0.446,0.057,0.63,0.17c0.186,0.111,0.33,0.273,0.436,0.484
			c0.104,0.213,0.156,0.461,0.156,0.744c0,0.287-0.052,0.537-0.156,0.748c-0.105,0.212-0.25,0.374-0.435,0.486
			c-0.19,0.113-0.408,0.172-0.63,0.169c-0.246,0-0.455-0.062-0.629-0.185c-0.17-0.117-0.298-0.288-0.363-0.484v0.634h-0.559v-3.668
			h0.56v1.571c0.065-0.197,0.192-0.367,0.362-0.486C85.08,68.626,85.289,68.564,85.534,68.564z M85.363,69.061
			c-0.301-0.006-0.58,0.161-0.717,0.43c-0.074,0.146-0.111,0.309-0.107,0.473c-0.004,0.165,0.033,0.328,0.107,0.477
			c0.138,0.267,0.416,0.432,0.717,0.426c0.248,0,0.447-0.08,0.598-0.24s0.227-0.381,0.227-0.662c0-0.277-0.076-0.497-0.227-0.66
			C85.807,69.14,85.588,69.051,85.363,69.061z M89.165,68.564c0.245,0,0.454,0.062,0.628,0.184c0.171,0.119,0.3,0.289,0.368,0.486
			V68.6h0.56v2.731H90.16v-0.634c-0.068,0.195-0.197,0.365-0.367,0.484c-0.185,0.127-0.404,0.191-0.628,0.185
			c-0.235,0-0.446-0.056-0.63-0.169c-0.189-0.117-0.34-0.285-0.436-0.486c-0.109-0.234-0.162-0.49-0.156-0.748
			c0-0.283,0.052-0.531,0.156-0.744c0.105-0.211,0.25-0.373,0.435-0.484C88.719,68.621,88.93,68.564,89.165,68.564L89.165,68.564z
			 M89.336,69.061c-0.248,0-0.447,0.08-0.596,0.24s-0.223,0.381-0.223,0.662c0,0.28,0.074,0.501,0.223,0.662
			c0.15,0.16,0.348,0.24,0.596,0.24c0.301,0.006,0.578-0.16,0.716-0.426c0.075-0.147,0.112-0.311,0.109-0.477
			c0-0.179-0.036-0.336-0.108-0.473C89.916,69.221,89.638,69.054,89.336,69.061L89.336,69.061z M92.736,67.663v3.668h-0.561v-3.668
			H92.736z M96.689,68.287v1.061h1.276v0.437h-1.276v1.086h1.424v0.461H96.13v-3.5h1.981v0.456H96.689L96.689,68.287z
			 M101.08,69.299v0.477h-2.02v-0.477H101.08z M107.096,67.831l-0.863,3.5h-0.688l-0.73-2.706l-0.731,2.706h-0.687l-0.863-3.5h0.613
			l0.599,2.846l0.76-2.846h0.618l0.76,2.846l0.6-2.846H107.096z M109.465,68.564c0.245,0,0.454,0.062,0.628,0.184
			c0.171,0.119,0.3,0.289,0.368,0.486V68.6h0.559v2.731h-0.56v-0.634c-0.068,0.195-0.196,0.365-0.367,0.484
			c-0.185,0.127-0.404,0.191-0.628,0.185c-0.236,0-0.445-0.056-0.63-0.169c-0.188-0.117-0.34-0.285-0.435-0.486
			c-0.109-0.234-0.164-0.49-0.157-0.748c0-0.283,0.052-0.531,0.157-0.744c0.104-0.211,0.25-0.373,0.434-0.484
			C109.02,68.621,109.229,68.564,109.465,68.564L109.465,68.564z M109.637,69.061c-0.248,0-0.447,0.08-0.597,0.24
			s-0.224,0.381-0.224,0.662c0,0.28,0.074,0.501,0.224,0.662c0.149,0.16,0.349,0.24,0.597,0.24c0.3,0.006,0.577-0.16,0.715-0.426
			c0.076-0.147,0.113-0.311,0.109-0.477c0-0.179-0.036-0.336-0.107-0.473C110.217,69.221,109.938,69.054,109.637,69.061
			L109.637,69.061z M113.036,67.663v3.668h-0.56v-3.668H113.036z M115.057,67.663v3.668h-0.56v-3.668H115.057z M119.031,69.834
			c0,0.093-0.008,0.174-0.02,0.243h-2.08c0.01,0.28,0.086,0.489,0.229,0.624c0.144,0.136,0.337,0.209,0.534,0.203
			c0.17,0.006,0.337-0.045,0.475-0.143c0.127-0.092,0.212-0.229,0.238-0.383h0.598c-0.068,0.381-0.319,0.702-0.672,0.859
			c-0.192,0.088-0.402,0.131-0.613,0.128c-0.242,0.005-0.48-0.054-0.693-0.169c-0.202-0.113-0.367-0.281-0.475-0.486
			c-0.119-0.23-0.178-0.488-0.171-0.748c0-0.283,0.058-0.531,0.171-0.744c0.115-0.211,0.273-0.373,0.475-0.484
			c0.213-0.115,0.451-0.174,0.693-0.17c0.266,0,0.496,0.056,0.694,0.166s0.351,0.264,0.456,0.457
			C118.979,69.38,119.031,69.598,119.031,69.834L119.031,69.834z M118.467,69.818c0.012-0.154-0.02-0.309-0.091-0.447
			c-0.062-0.115-0.157-0.209-0.274-0.268c-0.119-0.059-0.249-0.089-0.381-0.088c-0.203-0.006-0.4,0.066-0.55,0.203
			c-0.147,0.137-0.228,0.336-0.239,0.6H118.467z M121.714,70.84v0.491h-0.343c-0.288,0-0.506-0.069-0.655-0.21
			s-0.223-0.375-0.223-0.702V69.08h-0.388V68.6h0.388v-0.68h0.563v0.68h0.652v0.48h-0.652v1.35c0,0.154,0.029,0.262,0.086,0.321
			c0.058,0.06,0.158,0.09,0.301,0.09L121.714,70.84L121.714,70.84z"/>
	</g>
	<g transform="translate(12 14)">
		
			<linearGradient id="SVGID_1_" gradientUnits="userSpaceOnUse" x1="-81.1899" y1="16.7944" x2="-80.6459" y2="17.098" gradientTransform="matrix(29.2 0 0 -21.2 2378.1375 370.1344)">
			<stop  offset="0" style="stop-color:#EEEEEE"/>
			<stop  offset="1" style="stop-color:#CCCCCC"/>
		</linearGradient>
		<path fill="url(#SVGID_1_)" stroke="#979797" stroke-width="0.8" d="M3.4,0.4h23.2c1.657,0,3,1.343,3,3v15.2c0,1.657-1.343,3-3,3
			H3.4c-1.657,0-3-1.343-3-3V3.4C0.4,1.743,1.743,0.4,3.4,0.4z"/>
		<g filter="url(#b)">
			<path id="c_2_" d="M9,0L8.999,7.333H9v0.734L8.999,8.066v5.867H9v0.734l-0.001-0.001L9,22H8.25l-0.001-7.334H0v-0.733h8.249
				V8.066H0V7.333h8.249L8.25,0H9z M30,7.333v0.734H19.5V22h-0.75V7.333H30z"/>
		</g>
		<g>
			<path id="c_1_" fill="#8F8F8F" d="M9,0L8.999,7.333H9v0.734L8.999,8.066v5.867H9v0.734l-0.001-0.001L9,22H8.25l-0.001-7.334H0
				v-0.733h8.249V8.066H0V7.333h8.249L8.25,0H9z M30,7.333v0.734H19.5V22h-0.75V7.333H30z"/>
		</g>
	</g>
</g>
</svg>
