<svg xmlns="http://www.w3.org/2000/svg" width="180" height="152" viewBox="0 0 180 152">
    <g fill="none" fill-rule="evenodd">
        <path fill="#D5D6DB" d="M55.758 126.596h68.945v20.345H145.8v4.897H35.038v-4.898h20.72v-20.344z"/>
        <path fill="#40596B" d="M172.5 0c4.125 0 7.5 3.382 7.5 7.515v111.97c0 4.133-3.375 7.515-7.5 7.515H7.5c-4.125 0-7.5-3.382-7.5-7.515V7.515C0 3.382 3.375 0 7.5 0zM169 11H11v104h158V11z"/>
        <path fill="#ACB3BA" d="M122 87l4.254 15 3.806-3.75 3.582 3.75L137 98.691l-3.582-3.75 3.582-3.75z"/>
        <path fill="#F36D3E" d="M47.47 14H18.837l8.028-14h23.996z"/>
        <path fill="#CDD6E0" d="M76.102 14H47.47l3.39-14h26.373z"/>
        <path fill="#F36D3E" d="M104.736 14H76.102l1.131-14h26.372z"/>
        <path fill="#CDD6E0" d="M133.368 14h-28.632l-1.131-14h26.373z"/>
        <path fill="#F36D3E" d="M162 14h-28.632l-3.39-14h23.995z"/>
        <path fill="#ACB3BA" d="M47 20.405c0 7.911 6.405 14.316 14.316 14.316 7.912 0 14.317-6.405 14.317-14.316V14H47v6.405zM105 14v6.405c0 7.911 6.405 14.316 14.316 14.316 7.912 0 14.316-6.405 14.316-14.316V14H105z"/>
        <path fill="#F25822" d="M19 20.405c0 7.911 6.405 14.316 14.316 14.316 7.912 0 14.317-6.405 14.317-14.316V14H19v6.405zM76 20.405c0 7.911 6.405 14.316 14.316 14.316 7.912 0 14.317-6.405 14.317-14.316V14H76v6.405zM133 14v6.405c0 7.911 6.405 14.316 14.316 14.316 7.912 0 14.317-6.405 14.317-14.316V14H133zM90.42 53c12.275 0 22.227 10.12 22.227 22.605 0 12.484-9.952 22.605-22.228 22.605-12.276 0-22.228-10.12-22.228-22.605C68.191 63.121 78.143 53 90.42 53"/>
        <path fill="#FFF" d="M87.808 85.543a1.79 1.79 0 1 1-3.564.36 1.79 1.79 0 0 1 3.564-.36zm8.895-1.608a1.79 1.79 0 1 1 0 3.578 1.79 1.79 0 0 1 0-3.578zM81.75 65c.45 0 .844.3.964.733l3.82 13.792h10.014l3.597-7.85H88.708a1 1 0 1 1 0-2h12.995a1.003 1.003 0 0 1 .909 1.417l-4.514 9.85a1 1 0 0 1-.909.583H85.772a1 1 0 0 1-.965-.733L80.989 67h-2.987a1 1 0 1 1 0-2h3.748z"/>
    </g>
</svg>
